<svg width="578" height="212" viewBox="0 0 578 212" fill="none" xmlns="http://www.w3.org/2000/svg">
<path d="M77.5225 4.19114C75.1229 6.1615 73.2522 8.69827 72.0793 11.5723C70.9063 14.4464 70.4682 17.5672 70.8043 20.653C71.1404 23.7387 72.2402 26.6922 74.0044 29.2466C75.7686 31.8011 78.1417 33.876 80.9092 35.2841C81.5795 35.7902 82.0502 36.516 82.2385 37.3342C82.4269 38.1525 82.321 39.0109 81.9393 39.7589C81.5577 40.5068 80.9247 41.0966 80.1514 41.4246C79.3782 41.7527 78.514 41.7981 77.7106 41.5529C71.8474 38.5766 67.3556 33.4584 65.1671 27.2601C51.5358 30.6394 39.0204 37.5099 28.8538 47.1947C-1.25053 73.8369 -8.77662 114.897 10.9166 140.724C5.91205 146.581 2.53773 153.65 1.13273 161.223C0.53485 164.786 0.791646 168.439 1.88198 171.883C2.97231 175.327 4.86503 178.462 7.40446 181.032C17.502 191.564 30.9235 188.806 41.7109 186.674C48.9234 185.17 55.7595 183.791 59.8362 186.674C63.9128 189.558 63.6619 190.874 63.7874 191.564C66.1079 201.782 57.5156 206.797 55.3832 209.367C55.1968 209.606 55.0805 209.892 55.0474 210.193C55.0144 210.494 55.0658 210.798 55.1961 211.071C55.3263 211.345 55.5302 211.576 55.7848 211.74C56.0394 211.904 56.3347 211.994 56.6376 212C61.4822 211.919 66.1697 210.269 69.9964 207.298C72.5395 205.135 74.4608 202.334 75.563 199.184C76.6652 196.033 76.9085 192.646 76.2681 189.37L75.8918 187.677C74.4584 182.52 71.058 178.131 66.4215 175.453C57.9546 170.062 47.6063 172.131 38.7631 173.949C28.0385 176.08 21.2023 177.083 16.4358 172.068C15.376 170.919 14.5977 169.539 14.1624 168.038C13.727 166.537 13.6465 164.955 13.9271 163.417C14.9561 158.636 17.1055 154.167 20.1988 150.378C44.0314 169.184 82.9162 165.173 110.951 140.098C120.952 131.677 128.836 121.027 133.968 109.005C130.537 107.723 127.429 105.707 124.861 103.097C122.293 100.487 120.328 97.3469 119.104 93.8969C118.948 93.4606 118.879 92.9977 118.901 92.5348C118.924 92.0718 119.037 91.6178 119.235 91.1987C119.433 90.7796 119.712 90.4036 120.055 90.0921C120.398 89.7806 120.8 89.5398 121.236 89.3834C121.673 89.227 122.136 89.158 122.599 89.1805C123.062 89.203 123.517 89.3164 123.936 89.5143C124.355 89.7122 124.731 89.9907 125.043 90.334C125.355 90.6772 125.596 91.0784 125.752 91.5147C126.552 93.6775 127.742 95.675 129.264 97.4074C131.351 99.759 134.002 101.54 136.969 102.583C139.935 103.626 143.119 103.896 146.218 103.367C149.318 102.839 152.232 101.529 154.685 99.5621C157.138 97.5953 159.048 95.036 160.237 92.126C161.425 89.216 161.852 86.0513 161.476 82.9307C161.101 79.8101 159.936 76.8366 158.092 74.291C156.247 71.7453 153.784 69.7115 150.935 68.3817C148.086 67.0519 144.945 66.4698 141.808 66.6905C140.9 66.7274 140.012 66.4174 139.325 65.8235C138.638 65.2297 138.202 64.3966 138.107 63.4935C138.055 63.032 138.095 62.5648 138.225 62.1189C138.355 61.673 138.572 61.2572 138.863 60.8957C139.155 60.5342 139.516 60.2342 139.924 60.0129C140.333 59.7917 140.781 59.6537 141.243 59.6068C146.152 59.2224 151.069 60.2444 155.417 62.5532C158.24 47.132 159.055 28.0751 153.16 21.4302C148.644 16.3525 130.519 12.5913 114.526 12.9047C115.279 16.4594 115.279 20.1323 114.526 23.6869C114.33 24.5905 113.785 25.3804 113.01 25.8851C112.235 26.3898 111.292 26.5686 110.386 26.3825C109.93 26.3073 109.493 26.1412 109.102 25.8939C108.712 25.6466 108.374 25.3233 108.111 24.9431C107.848 24.563 107.664 24.1337 107.57 23.681C107.476 23.2283 107.474 22.7613 107.564 22.3078C108.324 18.5448 107.901 14.639 106.355 11.1251C104.808 7.61122 102.213 4.66081 98.9247 2.67766C95.6362 0.694511 91.8149 -0.224471 87.9838 0.0464504C84.1526 0.317372 80.4989 1.76496 77.5225 4.19114ZM146.951 27.2601C147.559 28.3151 147.825 29.5324 147.712 30.7448C147.6 31.9571 147.115 33.1049 146.323 34.0304C144.881 35.2841 143.313 33.4662 141.808 31.7736C140.303 30.0811 138.421 28.0124 139.801 26.7586C140.901 26.1022 142.176 25.7983 143.454 25.888C144.733 25.9776 145.953 26.4565 146.951 27.2601Z" fill="#EC407A"/>
<path fill-rule="evenodd" clip-rule="evenodd" d="M441.653 137.338C441.673 141.825 440.755 146.266 438.956 150.377C437.266 154.363 434.817 157.983 431.743 161.034C428.651 164.086 425.013 166.531 421.019 168.243C416.891 169.985 412.454 170.881 407.973 170.876H399.506V153.95H407.848C410.125 153.991 412.393 153.652 414.559 152.947C417.927 151.768 420.697 149.315 422.273 146.114C423.035 144.59 423.644 142.994 424.092 141.35C423.392 142.439 422.419 143.325 421.269 143.92C419.987 144.653 418.617 145.222 417.193 145.613C415.656 146.054 414.081 146.348 412.489 146.49C410.985 146.584 409.477 146.584 407.973 146.49C403.524 146.706 399.074 146.068 394.865 144.61C390.803 143.049 387.111 140.66 384.023 137.595C380.934 134.53 378.518 130.856 376.928 126.806C375.12 122.174 374.226 117.235 374.294 112.263C374.251 107.517 375.146 102.809 376.928 98.409C378.61 94.2739 381.081 90.5053 384.203 87.3134C387.242 84.2088 390.865 81.7373 394.865 80.0416C399 78.2436 403.464 77.3256 407.973 77.3461C410.089 77.3709 412.194 77.6444 414.245 78.161C418.463 79.2552 422.441 81.126 425.973 83.6775C427.743 84.9341 429.42 86.3168 430.991 87.8149L437.262 80.0416H441.339L441.653 137.338ZM480.663 129.565C481.296 129.756 481.948 129.882 482.607 129.941H484.551C486.161 129.953 487.765 129.742 489.318 129.314C490.81 128.834 492.241 128.182 493.582 127.371C496.325 125.65 498.505 123.166 499.854 120.224L512.398 132.762C510.855 135.058 509.045 137.163 507.004 139.031C502.953 142.517 498.142 145.007 492.955 146.302C490.325 146.927 487.631 147.243 484.927 147.243C480.513 147.278 476.137 146.432 472.054 144.752C467.972 143.073 464.268 140.595 461.158 137.463C458.037 134.331 455.583 130.599 453.945 126.493C452.149 122.052 451.233 117.304 451.248 112.514C451.208 107.619 452.124 102.764 453.945 98.221C455.546 94.1485 457.963 90.4462 461.047 87.3415C464.132 84.2368 467.819 81.7953 471.882 80.167C478.578 77.398 485.986 76.8487 493.018 78.5998C495.603 79.2593 498.106 80.2055 500.481 81.4207C502.737 82.6825 504.841 84.1968 506.753 85.9342C508.812 87.8022 510.643 89.9063 512.21 92.203L480.663 129.565ZM546.328 129.565C546.961 129.756 547.613 129.882 548.272 129.941H550.279C551.889 129.953 553.493 129.742 555.045 129.314C556.538 128.834 557.969 128.182 559.31 127.371C560.64 126.52 561.844 125.486 562.885 124.299C563.93 123.068 564.795 121.696 565.457 120.224L578 132.762C576.458 135.058 574.647 137.163 572.606 139.031C570.609 140.787 568.396 142.283 566.021 143.481C563.658 144.723 561.152 145.671 558.558 146.302C555.927 146.927 553.233 147.243 550.53 147.243C546.116 147.278 541.739 146.432 537.657 144.752C533.575 143.073 529.87 140.595 526.76 137.463C523.639 134.331 521.186 130.599 519.547 126.493C517.721 122.061 516.804 117.307 516.851 112.514C516.811 107.619 517.727 102.764 519.547 98.221C521.148 94.1485 523.565 90.4462 526.65 87.3415C529.734 84.2368 533.421 81.7953 537.485 80.167C541.626 78.4743 546.056 77.6014 550.53 77.5968C553.256 77.6172 555.971 77.9538 558.62 78.5998C561.206 79.2593 563.709 80.2055 566.084 81.4207C568.339 82.6825 570.443 84.1968 572.355 85.9342C574.414 87.8022 576.246 89.9063 577.812 92.203L546.328 129.565ZM338.796 112.138C338.8 116.819 337.906 121.458 336.162 125.803C334.463 129.896 332.017 133.638 328.949 136.836C325.875 139.942 322.235 142.431 318.225 144.171C314.139 145.877 309.755 146.755 305.327 146.753C300.899 146.752 296.516 145.871 292.432 144.162C288.347 142.453 284.643 139.95 281.534 136.799C278.426 133.647 275.974 129.91 274.323 125.803C272.527 121.45 271.611 116.784 271.626 112.075C271.612 107.325 272.529 102.619 274.323 98.221C275.944 94.0875 278.399 90.332 281.535 87.188C284.592 84.0766 288.237 81.6046 292.26 79.9162C296.371 78.1126 300.816 77.1942 305.305 77.2207C309.816 77.2034 314.287 78.0548 318.476 79.7282C322.462 81.3636 326.086 83.771 329.138 86.8119C332.233 89.9888 334.682 93.7356 336.35 97.8449C338.164 102.389 339.059 107.246 338.984 112.138H338.796ZM251.368 145.675H233.807V75.0893H207.278V57.4115H277.835V75.0893H251.368V145.675ZM365.012 145.675H348.078V53.5875H365.012V145.675ZM321.862 112.138C321.868 109.633 321.422 107.149 320.545 104.803C319.726 102.678 318.489 100.738 316.908 99.0986C315.411 97.548 313.62 96.3119 311.639 95.4627C307.444 93.8323 302.79 93.8323 298.594 95.4627C296.609 96.3043 294.817 97.5415 293.326 99.0986C291.783 100.744 290.588 102.685 289.814 104.803C288.058 109.557 288.058 114.781 289.814 119.535C290.628 121.615 291.818 123.528 293.326 125.177C294.829 126.751 296.616 128.028 298.594 128.938C300.557 129.855 302.699 130.326 304.866 130.317C307.021 130.34 309.157 129.913 311.138 129.063C313.11 128.198 314.898 126.964 316.406 125.427C317.973 123.8 319.208 121.884 320.044 119.785C320.915 117.438 321.361 114.955 321.361 112.451L321.862 112.138ZM424.719 112.138C424.702 109.833 424.234 107.554 423.339 105.43C422.513 103.323 421.301 101.388 419.764 99.7255C418.241 98.0813 416.435 96.7226 414.433 95.7135C412.484 94.7432 410.339 94.2287 408.161 94.209C406.016 94.2225 403.891 94.6261 401.89 95.4001C399.907 96.1583 398.11 97.3342 396.621 98.8479C395.06 100.467 393.844 102.387 393.047 104.49C392.159 106.94 391.734 109.533 391.792 112.138C391.74 114.66 392.165 117.17 393.047 119.535C393.859 121.63 395.073 123.547 396.621 125.177C398.104 126.728 399.9 127.946 401.89 128.75C403.879 129.571 406.009 129.997 408.161 130.003C410.339 129.984 412.484 129.469 414.433 128.499C416.45 127.515 418.26 126.153 419.764 124.487C421.327 122.845 422.543 120.905 423.339 118.782C424.272 116.688 424.783 114.43 424.844 112.138H424.719ZM489.255 94.8985C488.51 94.6291 487.726 94.4809 486.934 94.4597H484.614C482.465 94.4946 480.34 94.9194 478.342 95.7135C476.341 96.525 474.542 97.7662 473.074 99.3493C471.514 100.946 470.298 102.845 469.499 104.929C468.611 107.313 468.186 109.845 468.245 112.388V116.839C468.162 117.646 468.337 118.458 468.746 119.159C468.953 119.832 469.226 120.483 469.562 121.102L489.255 94.8985ZM554.92 94.8985C554.182 94.5862 553.398 94.3956 552.6 94.3344L550.279 94.4597C548.13 94.4946 546.005 94.9194 544.007 95.7135C542.006 96.525 540.207 97.7662 538.739 99.3493C537.179 100.946 535.963 102.845 535.164 104.929C534.276 107.313 533.851 109.845 533.91 112.388V116.839C533.827 117.646 534.002 118.458 534.411 119.159C534.618 119.832 534.891 120.483 535.227 121.102L554.92 94.8985Z" fill="#2C3C52"/>
</svg>
