<?xml version="1.0" standalone="no"?>
<!DOCTYPE svg PUBLIC "-//W3C//DTD SVG 20010904//EN"
 "http://www.w3.org/TR/2001/REC-SVG-20010904/DTD/svg10.dtd">
<svg version="1.0" xmlns="http://www.w3.org/2000/svg"
 width="960.000000pt" height="960.000000pt" viewBox="0 0 960.000000 960.000000"
 preserveAspectRatio="xMidYMid meet">
<metadata>
Created by potrace 1.14, written by Peter Selinger 2001-2017
</metadata>
<g transform="translate(0.000000,960.000000) scale(0.100000,-0.100000)"
fill="#000000" stroke="none">
<path d="M879 9276 c-2 -2 -17 -6 -34 -9 -40 -6 -113 -25 -150 -39 -45 -17
-139 -60 -145 -67 -3 -4 -22 -15 -42 -26 -21 -11 -38 -23 -38 -27 0 -5 -4 -8
-10 -8 -13 0 -53 -34 -112 -95 -27 -27 -57 -59 -68 -70 -11 -12 -20 -26 -20
-33 0 -7 -4 -12 -8 -12 -5 0 -17 -17 -28 -37 -10 -21 -22 -40 -26 -43 -3 -3
-8 -12 -10 -20 -2 -8 -9 -21 -16 -28 -7 -8 -10 -18 -7 -23 4 -5 2 -9 -3 -9 -6
0 -37 -77 -48 -122 -1 -5 -2 -9 -4 -10 -6 -9 -17 -74 -19 -116 -1 -23 -5 -31
-13 -26 -10 5 -10 4 -1 -6 8 -8 9 -20 3 -36 -5 -13 -6 -24 -2 -24 9 0 8 -97
-1 -107 -4 -3 -3 -11 3 -18 5 -6 11 -30 12 -53 2 -23 7 -42 12 -42 5 0 7 -3 3
-6 -3 -3 -2 -17 4 -31 7 -18 6 -22 -4 -17 -7 5 -6 1 3 -10 15 -19 21 -37 23
-73 0 -12 3 -20 6 -18 6 6 31 -43 31 -61 0 -8 5 -14 10 -14 6 0 10 -7 10 -16
0 -8 -4 -12 -10 -9 -6 3 -7 -1 -3 -10 5 -13 7 -14 14 -3 7 10 11 7 15 -9 4
-13 10 -23 15 -23 5 0 9 -9 9 -21 0 -13 4 -18 12 -13 8 5 9 2 5 -10 -4 -9 -3
-15 2 -12 5 3 17 -7 27 -22 9 -15 26 -34 36 -43 10 -9 18 -22 18 -29 0 -7 3
-11 6 -7 9 9 55 -36 50 -50 -3 -8 1 -10 11 -6 11 4 14 2 9 -5 -5 -8 -1 -10 10
-5 13 5 15 3 9 -7 -5 -8 -4 -11 3 -6 6 3 19 -4 29 -16 10 -13 25 -24 33 -26 8
-2 17 -7 20 -11 3 -4 13 -10 22 -14 10 -3 16 -12 14 -19 -1 -7 -1 -10 1 -5 7
11 33 8 33 -4 0 -6 6 -9 13 -6 8 3 20 -3 27 -13 8 -11 17 -17 22 -14 4 3 14 2
21 -3 6 -4 17 -8 22 -10 6 -1 21 -4 34 -7 14 -3 29 -10 34 -15 5 -5 16 -7 23
-4 8 3 14 1 14 -4 0 -4 15 -9 33 -10 105 -7 135 -11 147 -18 9 -6 11 -4 5 6
-6 10 -5 11 4 3 7 -6 31 -8 62 -4 27 4 52 4 54 0 3 -5 50 -5 65 0 5 2 48 1
112 -2 21 -1 40 1 43 4 9 9 46 -3 40 -12 -3 -5 -1 -12 5 -15 6 -4 10 -3 9 2
-5 31 3 35 28 12 15 -13 21 -16 14 -6 -12 16 -10 17 30 18 24 1 49 0 54 -1 28
-6 56 -7 59 -1 7 11 65 4 82 -10 10 -8 15 -9 11 -3 -5 8 8 13 39 16 25 2 47 1
49 -2 3 -5 51 -5 65 0 5 2 48 1 112 -2 21 -1 40 1 43 4 9 9 46 -3 40 -12 -3
-5 -1 -12 5 -15 6 -4 10 -3 9 2 -5 31 3 35 28 12 15 -13 21 -16 14 -6 -12 16
-10 17 30 18 24 1 49 0 54 -1 28 -6 56 -7 59 -1 7 11 65 4 82 -10 10 -8 15 -9
11 -3 -5 8 8 13 39 16 25 2 47 1 49 -2 3 -5 51 -5 65 0 6 2 51 1 108 -2 23 -2
42 1 42 5 0 5 4 5 10 2 20 -12 50 -14 50 -2 0 8 3 8 8 2 8 -12 92 -14 92 -2 0
4 10 2 23 -4 26 -15 27 -15 38 3 5 7 9 8 9 3 0 -10 86 -12 96 -3 8 9 44 -3 39
-12 -3 -5 -1 -12 5 -15 6 -4 10 -3 9 2 -5 31 3 35 28 12 15 -13 21 -16 14 -6
-12 16 -10 17 30 18 24 1 49 0 54 -1 28 -6 56 -7 59 -1 7 11 65 4 82 -10 10
-8 15 -9 11 -3 -5 8 8 13 39 16 25 2 47 1 49 -2 3 -5 60 -5 60 0 0 1 15 2 33
3 24 2 31 -2 27 -12 -4 -10 -2 -11 7 -4 7 5 30 9 51 9 20 -1 37 3 37 7 0 5 4
5 10 2 20 -12 50 -14 50 -2 0 8 3 8 8 2 8 -12 92 -14 92 -2 0 4 10 2 23 -4 26
-15 27 -15 38 3 5 7 9 8 9 2 0 -6 12 -10 28 -8 44 5 85 6 115 1 15 -2 30 -1
32 3 7 12 43 0 41 -13 -1 -7 -6 -19 -11 -27 -8 -13 -6 -13 8 -2 9 8 16 17 15
20 -3 25 5 28 52 22 29 -4 54 -2 60 4 7 7 10 6 10 -4 0 -7 3 -10 7 -7 3 4 13
1 21 -6 13 -9 14 -9 8 1 -7 11 21 19 49 12 22 -5 51 -6 59 -1 5 2 22 5 38 5
19 1 27 -3 23 -12 -3 -8 0 -10 8 -5 23 14 137 21 156 8 6 -3 11 -1 11 5 0 6 4
8 10 5 20 -12 50 -14 50 -2 0 8 3 8 8 2 8 -12 92 -14 92 -2 0 4 10 2 23 -4 26
-15 27 -15 38 3 5 7 9 8 9 3 0 -10 86 -12 96 -3 8 9 44 -3 39 -12 -3 -5 -1
-12 5 -15 6 -4 10 -3 9 2 -5 31 3 35 28 12 15 -13 21 -16 14 -6 -12 16 -10 17
30 18 24 1 49 0 54 -1 28 -6 56 -7 59 -1 7 11 65 4 82 -10 10 -8 15 -9 11 -3
-5 8 8 13 39 16 25 2 47 1 49 -2 3 -5 60 -5 60 0 0 1 15 2 33 3 24 2 31 -2 27
-12 -4 -10 -2 -11 7 -4 7 5 30 9 51 9 20 -1 37 3 37 7 0 5 4 5 10 2 20 -12 50
-14 50 -2 0 8 3 8 8 2 8 -12 92 -14 92 -2 0 4 10 2 23 -4 26 -15 27 -15 38 3
5 7 9 8 9 2 0 -10 67 -10 97 1 7 2 14 1 17 -3 4 -6 61 -8 61 -2 0 0 34 3 75 4
88 4 152 13 186 27 19 7 24 6 19 -4 -4 -6 0 -4 8 6 14 17 33 24 23 9 -9 -14
196 91 235 121 37 28 55 35 44 17 -3 -6 1 -7 10 -3 10 3 13 8 6 12 -6 4 -7 12
-1 21 6 8 10 11 10 7 0 -5 16 8 35 28 20 20 40 33 47 29 7 -5 8 -3 3 6 -5 8
-2 17 7 24 8 6 29 31 46 55 18 24 32 40 32 35 1 -5 7 6 15 24 8 17 19 32 25
32 6 0 8 4 5 10 -3 5 -1 19 5 30 10 18 14 19 28 8 15 -11 15 -11 5 3 -10 12
-10 24 -1 50 6 19 15 37 20 40 6 3 9 9 9 13 -1 7 0 15 4 31 1 6 3 16 3 24 2
11 5 11 20 0 15 -13 16 -12 4 3 -13 16 -13 53 1 75 4 6 8 30 9 53 1 22 5 43 9
46 4 2 4 18 -1 34 -5 17 -6 30 -2 30 4 0 6 19 5 42 -1 24 -2 43 -4 43 -1 0 -3
23 -5 50 -1 28 -3 51 -5 53 -1 1 -2 5 -4 10 -1 4 -4 14 -8 22 -3 8 -8 26 -11
40 -14 68 -20 85 -28 91 -5 3 -10 12 -12 20 -4 27 -58 129 -69 129 -6 0 -7 3
-4 7 6 5 -16 40 -63 96 -67 81 -218 207 -249 207 -5 0 -11 4 -13 9 -1 5 -10
11 -18 13 -8 2 -21 9 -28 16 -8 7 -18 10 -23 7 -5 -4 -9 -2 -9 4 0 9 -56 27
-72 23 -5 -1 -8 2 -8 6 0 5 -26 15 -57 22 -32 7 -67 16 -78 18 -24 6 -5170 14
-5176 8z"/>
<path d="M6610 7740 c0 -5 5 -10 11 -10 5 0 7 5 4 10 -3 6 -8 10 -11 10 -2 0
-4 -4 -4 -10z"/>
<path d="M270 7686 c0 -2 7 -7 16 -10 8 -3 12 -2 9 4 -6 10 -25 14 -25 6z"/>
<path d="M350 7659 c0 -5 5 -7 10 -4 6 3 10 8 10 11 0 2 -4 4 -10 4 -5 0 -10
-5 -10 -11z"/>
<path d="M373 7623 c4 -3 1 -13 -6 -22 -11 -14 -10 -14 5 -2 16 12 16 31 1 31
-4 0 -3 -3 0 -7z"/>
<path d="M424 7602 c4 -3 14 -7 22 -8 9 -1 13 0 10 4 -4 3 -14 7 -22 8 -9 1
-13 0 -10 -4z"/>
<path d="M6415 7580 c-3 -5 -1 -10 4 -10 6 0 11 5 11 10 0 6 -2 10 -4 10 -3 0
-8 -4 -11 -10z"/>
<path d="M6450 7580 c0 -5 5 -10 11 -10 5 0 7 5 4 10 -3 6 -8 10 -11 10 -2 0
-4 -4 -4 -10z"/>
<path d="M6405 7540 c-3 -6 1 -7 9 -4 18 7 21 14 7 14 -6 0 -13 -4 -16 -10z"/>
<path d="M6316 7513 c-6 -14 -5 -15 5 -6 7 7 10 15 7 18 -3 3 -9 -2 -12 -12z"/>
<path d="M593 7475 c0 -8 4 -12 9 -9 5 3 6 10 3 15 -9 13 -12 11 -12 -6z"/>
<path d="M6213 7465 c0 -8 4 -12 9 -9 5 3 6 10 3 15 -9 13 -12 11 -12 -6z"/>
<path d="M730 7460 c0 -5 5 -10 11 -10 5 0 7 5 4 10 -3 6 -8 10 -11 10 -2 0
-4 -4 -4 -10z"/>
<path d="M6299 7468 c-5 -18 -6 -38 -1 -34 7 8 12 36 6 36 -2 0 -4 -1 -5 -2z"/>
<path d="M735 7420 c3 -5 8 -10 11 -10 2 0 4 5 4 10 0 6 -5 10 -11 10 -5 0 -7
-4 -4 -10z"/>
<path d="M775 7420 c3 -5 8 -10 11 -10 2 0 4 5 4 10 0 6 -5 10 -11 10 -5 0 -7
-4 -4 -10z"/>
<path d="M1593 7423 c4 -3 1 -13 -6 -22 -11 -14 -10 -14 5 -2 16 12 16 31 1
31 -4 0 -3 -3 0 -7z"/>
<path d="M1665 7420 c-3 -6 1 -7 9 -4 18 7 21 14 7 14 -6 0 -13 -4 -16 -10z"/>
<path d="M2233 7423 c4 -3 1 -13 -6 -22 -11 -14 -10 -14 5 -2 16 12 16 31 1
31 -4 0 -3 -3 0 -7z"/>
<path d="M2305 7420 c-3 -6 1 -7 9 -4 18 7 21 14 7 14 -6 0 -13 -4 -16 -10z"/>
<path d="M3193 7423 c4 -3 1 -13 -6 -22 -11 -14 -10 -14 5 -2 16 12 16 31 1
31 -4 0 -3 -3 0 -7z"/>
<path d="M3265 7420 c-3 -6 1 -7 9 -4 18 7 21 14 7 14 -6 0 -13 -4 -16 -10z"/>
<path d="M4075 7421 c-3 -5 -2 -12 3 -15 5 -3 9 1 9 9 0 17 -3 19 -12 6z"/>
<path d="M5113 7423 c4 -3 1 -13 -6 -22 -11 -14 -10 -14 5 -2 16 12 16 31 1
31 -4 0 -3 -3 0 -7z"/>
<path d="M5185 7420 c-3 -6 1 -7 9 -4 18 7 21 14 7 14 -6 0 -13 -4 -16 -10z"/>
<path d="M5985 7420 c-3 -6 1 -7 9 -4 18 7 21 14 7 14 -6 0 -13 -4 -16 -10z"/>
<path d="M2610 7416 c0 -2 8 -10 18 -17 15 -13 16 -12 3 4 -13 16 -21 21 -21
13z"/>
<path d="M2694 7400 c0 -13 4 -16 10 -10 7 7 7 13 0 20 -6 6 -10 3 -10 -10z"/>
<path d="M2770 7416 c0 -2 8 -10 18 -17 15 -13 16 -12 3 4 -13 16 -21 21 -21
13z"/>
<path d="M2854 7400 c0 -13 4 -16 10 -10 7 7 7 13 0 20 -6 6 -10 3 -10 -10z"/>
<path d="M3570 7416 c0 -2 8 -10 18 -17 15 -13 16 -12 3 4 -13 16 -21 21 -21
13z"/>
<path d="M3654 7400 c0 -13 4 -16 10 -10 7 7 7 13 0 20 -6 6 -10 3 -10 -10z"/>
<path d="M3730 7416 c0 -2 8 -10 18 -17 15 -13 16 -12 3 4 -13 16 -21 21 -21
13z"/>
<path d="M3814 7400 c0 -13 4 -16 10 -10 7 7 7 13 0 20 -6 6 -10 3 -10 -10z"/>
<path d="M4530 7416 c0 -2 8 -10 18 -17 15 -13 16 -12 3 4 -13 16 -21 21 -21
13z"/>
<path d="M4614 7400 c0 -13 4 -16 10 -10 7 7 7 13 0 20 -6 6 -10 3 -10 -10z"/>
<path d="M4690 7416 c0 -2 8 -10 18 -17 15 -13 16 -12 3 4 -13 16 -21 21 -21
13z"/>
<path d="M4774 7400 c0 -13 4 -16 10 -10 7 7 7 13 0 20 -6 6 -10 3 -10 -10z"/>
<path d="M5490 7416 c0 -2 8 -10 18 -17 15 -13 16 -12 3 4 -13 16 -21 21 -21
13z"/>
<path d="M5574 7400 c0 -13 4 -16 10 -10 7 7 7 13 0 20 -6 6 -10 3 -10 -10z"/>
<path d="M5650 7416 c0 -2 8 -10 18 -17 15 -13 16 -12 3 4 -13 16 -21 21 -21
13z"/>
<path d="M5734 7400 c0 -13 4 -16 10 -10 7 7 7 13 0 20 -6 6 -10 3 -10 -10z"/>
<path d="M816 7398 c3 -5 10 -6 15 -3 13 9 11 12 -6 12 -8 0 -12 -4 -9 -9z"/>
<path d="M940 7406 c0 -2 8 -10 18 -17 15 -13 16 -12 3 4 -13 16 -21 21 -21
13z"/>
<path d="M1145 7400 c-3 -6 1 -7 9 -4 18 7 21 14 7 14 -6 0 -13 -4 -16 -10z"/>
<path d="M1305 7400 c-3 -6 1 -7 9 -4 18 7 21 14 7 14 -6 0 -13 -4 -16 -10z"/>
<path d="M1493 7395 c0 -8 4 -12 9 -9 4 3 8 9 8 15 0 5 -4 9 -8 9 -5 0 -9 -7
-9 -15z"/>
<path d="M1785 7400 c-3 -6 1 -7 9 -4 18 7 21 14 7 14 -6 0 -13 -4 -16 -10z"/>
<path d="M1945 7400 c-3 -6 1 -7 9 -4 18 7 21 14 7 14 -6 0 -13 -4 -16 -10z"/>
<path d="M2133 7395 c0 -8 4 -12 9 -9 4 3 8 9 8 15 0 5 -4 9 -8 9 -5 0 -9 -7
-9 -15z"/>
<path d="M2425 7400 c-3 -6 1 -7 9 -4 18 7 21 14 7 14 -6 0 -13 -4 -16 -10z"/>
<path d="M2905 7400 c-3 -6 1 -7 9 -4 18 7 21 14 7 14 -6 0 -13 -4 -16 -10z"/>
<path d="M3093 7395 c0 -8 4 -12 9 -9 4 3 8 9 8 15 0 5 -4 9 -8 9 -5 0 -9 -7
-9 -15z"/>
<path d="M3385 7400 c-3 -6 1 -7 9 -4 18 7 21 14 7 14 -6 0 -13 -4 -16 -10z"/>
<path d="M3475 7399 c-3 -4 2 -6 10 -5 21 3 28 13 10 13 -9 0 -18 -4 -20 -8z"/>
<path d="M3893 7395 c0 -8 4 -12 9 -9 4 3 8 9 8 15 0 5 -4 9 -8 9 -5 0 -9 -7
-9 -15z"/>
<path d="M4135 7400 c3 -5 8 -10 11 -10 2 0 4 5 4 10 0 6 -5 10 -11 10 -5 0
-7 -4 -4 -10z"/>
<path d="M4213 7395 c0 -8 4 -12 9 -9 4 3 8 9 8 15 0 5 -4 9 -8 9 -5 0 -9 -7
-9 -15z"/>
<path d="M4306 7402 c-3 -5 1 -9 9 -9 8 0 12 4 9 9 -3 4 -7 8 -9 8 -2 0 -6 -4
-9 -8z"/>
<path d="M4825 7400 c-3 -6 1 -7 9 -4 18 7 21 14 7 14 -6 0 -13 -4 -16 -10z"/>
<path d="M5013 7395 c0 -8 4 -12 9 -9 4 3 8 9 8 15 0 5 -4 9 -8 9 -5 0 -9 -7
-9 -15z"/>
<path d="M5305 7400 c-3 -6 1 -7 9 -4 18 7 21 14 7 14 -6 0 -13 -4 -16 -10z"/>
<path d="M5395 7399 c-3 -4 2 -6 10 -5 21 3 28 13 10 13 -9 0 -18 -4 -20 -8z"/>
<path d="M5865 7400 c-3 -6 1 -7 9 -4 18 7 21 14 7 14 -6 0 -13 -4 -16 -10z"/>
<path d="M2575 7391 c-3 -5 -2 -12 3 -15 5 -3 9 1 9 9 0 17 -3 19 -12 6z"/>
<path d="M2735 7391 c-3 -5 -2 -12 3 -15 5 -3 9 1 9 9 0 17 -3 19 -12 6z"/>
<path d="M3535 7391 c-3 -5 -2 -12 3 -15 5 -3 9 1 9 9 0 17 -3 19 -12 6z"/>
<path d="M3695 7391 c-3 -5 -2 -12 3 -15 5 -3 9 1 9 9 0 17 -3 19 -12 6z"/>
<path d="M4495 7391 c-3 -5 -2 -12 3 -15 5 -3 9 1 9 9 0 17 -3 19 -12 6z"/>
<path d="M4655 7391 c-3 -5 -2 -12 3 -15 5 -3 9 1 9 9 0 17 -3 19 -12 6z"/>
<path d="M5455 7391 c-3 -5 -2 -12 3 -15 5 -3 9 1 9 9 0 17 -3 19 -12 6z"/>
<path d="M5615 7391 c-3 -5 -2 -12 3 -15 5 -3 9 1 9 9 0 17 -3 19 -12 6z"/>
<path d="M986 7382 c-3 -5 1 -9 9 -9 8 0 12 4 9 9 -3 4 -7 8 -9 8 -2 0 -6 -4
-9 -8z"/>
<path d="M1095 7380 c3 -5 8 -10 11 -10 2 0 4 5 4 10 0 6 -5 10 -11 10 -5 0
-7 -4 -4 -10z"/>
<path d="M1375 7380 c3 -5 8 -10 11 -10 2 0 4 5 4 10 0 6 -5 10 -11 10 -5 0
-7 -4 -4 -10z"/>
<path d="M1615 7380 c3 -5 8 -10 11 -10 2 0 4 5 4 10 0 6 -5 10 -11 10 -5 0
-7 -4 -4 -10z"/>
<path d="M1735 7380 c3 -5 8 -10 11 -10 2 0 4 5 4 10 0 6 -5 10 -11 10 -5 0
-7 -4 -4 -10z"/>
<path d="M2015 7380 c3 -5 8 -10 11 -10 2 0 4 5 4 10 0 6 -5 10 -11 10 -5 0
-7 -4 -4 -10z"/>
<path d="M2255 7380 c3 -5 8 -10 11 -10 2 0 4 5 4 10 0 6 -5 10 -11 10 -5 0
-7 -4 -4 -10z"/>
<path d="M2375 7380 c3 -5 8 -10 11 -10 2 0 4 5 4 10 0 6 -5 10 -11 10 -5 0
-7 -4 -4 -10z"/>
<path d="M2655 7380 c3 -5 8 -10 11 -10 2 0 4 5 4 10 0 6 -5 10 -11 10 -5 0
-7 -4 -4 -10z"/>
<path d="M2815 7380 c3 -5 8 -10 11 -10 2 0 4 5 4 10 0 6 -5 10 -11 10 -5 0
-7 -4 -4 -10z"/>
<path d="M2975 7380 c3 -5 8 -10 11 -10 2 0 4 5 4 10 0 6 -5 10 -11 10 -5 0
-7 -4 -4 -10z"/>
<path d="M3215 7380 c3 -5 8 -10 11 -10 2 0 4 5 4 10 0 6 -5 10 -11 10 -5 0
-7 -4 -4 -10z"/>
<path d="M3335 7380 c3 -5 8 -10 11 -10 2 0 4 5 4 10 0 6 -5 10 -11 10 -5 0
-7 -4 -4 -10z"/>
<path d="M3615 7380 c3 -5 8 -10 11 -10 2 0 4 5 4 10 0 6 -5 10 -11 10 -5 0
-7 -4 -4 -10z"/>
<path d="M3775 7380 c3 -5 8 -10 11 -10 2 0 4 5 4 10 0 6 -5 10 -11 10 -5 0
-7 -4 -4 -10z"/>
<path d="M4010 7385 c0 -7 30 -13 34 -7 3 4 -4 9 -15 9 -10 1 -19 0 -19 -2z"/>
<path d="M4410 7379 c0 -5 5 -7 10 -4 6 3 10 8 10 11 0 2 -4 4 -10 4 -5 0 -10
-5 -10 -11z"/>
<path d="M4575 7380 c3 -5 8 -10 11 -10 2 0 4 5 4 10 0 6 -5 10 -11 10 -5 0
-7 -4 -4 -10z"/>
<path d="M4735 7380 c3 -5 8 -10 11 -10 2 0 4 5 4 10 0 6 -5 10 -11 10 -5 0
-7 -4 -4 -10z"/>
<path d="M4895 7380 c3 -5 8 -10 11 -10 2 0 4 5 4 10 0 6 -5 10 -11 10 -5 0
-7 -4 -4 -10z"/>
<path d="M5135 7380 c3 -5 8 -10 11 -10 2 0 4 5 4 10 0 6 -5 10 -11 10 -5 0
-7 -4 -4 -10z"/>
<path d="M5255 7380 c3 -5 8 -10 11 -10 2 0 4 5 4 10 0 6 -5 10 -11 10 -5 0
-7 -4 -4 -10z"/>
<path d="M5535 7380 c3 -5 8 -10 11 -10 2 0 4 5 4 10 0 6 -5 10 -11 10 -5 0
-7 -4 -4 -10z"/>
<path d="M5695 7380 c3 -5 8 -10 11 -10 2 0 4 5 4 10 0 6 -5 10 -11 10 -5 0
-7 -4 -4 -10z"/>
<path d="M5810 7385 c0 -7 30 -13 34 -7 3 4 -4 9 -15 9 -10 1 -19 0 -19 -2z"/>
<path d="M830 5763 c-36 -8 -69 -16 -75 -17 -5 -2 -23 -6 -40 -11 -41 -10
-159 -66 -163 -77 -2 -4 -8 -8 -14 -8 -15 0 -100 -60 -125 -88 -13 -14 -23
-22 -23 -17 0 7 -67 -61 -100 -101 -48 -60 -69 -92 -63 -97 3 -4 1 -7 -5 -7
-9 0 -43 -49 -47 -70 -1 -3 -10 -25 -21 -50 -10 -25 -18 -48 -16 -52 1 -5 -3
-8 -10 -8 -6 0 -9 -3 -5 -6 3 -3 -1 -23 -8 -44 -8 -22 -14 -47 -14 -57 0 -10
-4 -36 -9 -59 -5 -22 -7 -49 -6 -59 2 -11 -2 -25 -8 -32 -6 -7 -6 -13 -1 -13
5 0 9 -9 9 -20 0 -11 -4 -20 -9 -20 -4 0 -5 -6 0 -12 14 -23 14 -50 1 -42 -9
5 -8 2 1 -9 8 -10 11 -20 8 -23 -3 -3 -2 -17 3 -30 7 -16 6 -24 -1 -24 -8 0
-8 -4 -2 -12 15 -19 35 -107 27 -120 -4 -6 -3 -8 2 -5 6 3 16 -14 23 -39 7
-24 18 -44 23 -44 6 0 4 -8 -3 -17 -8 -9 -9 -14 -3 -10 14 8 27 -20 17 -35 -3
-6 -2 -9 3 -6 10 6 27 -11 32 -31 1 -7 11 -22 22 -34 11 -11 20 -29 20 -39 0
-11 4 -17 8 -14 5 3 17 -7 28 -21 10 -15 27 -34 38 -44 10 -10 15 -22 12 -28
-4 -5 -1 -13 5 -17 8 -4 9 -3 5 4 -13 21 10 13 33 -12 13 -14 20 -29 17 -35
-4 -5 -1 -13 5 -17 8 -4 9 -3 5 4 -4 7 -3 12 3 12 5 0 13 -5 16 -10 4 -6 11
-8 16 -5 5 4 9 -1 9 -10 0 -9 5 -13 10 -10 6 3 10 2 10 -4 0 -5 -3 -11 -7 -14
-5 -2 -2 -2 5 0 17 4 54 -21 45 -31 -4 -4 0 -4 10 0 11 4 17 1 17 -7 0 -7 3
-10 6 -6 3 3 31 -8 61 -23 31 -16 60 -27 65 -24 4 3 8 1 8 -3 0 -5 9 -14 21
-21 12 -8 18 -9 14 -3 -3 6 -1 11 4 11 6 0 11 -5 11 -10 0 -6 6 -9 13 -8 7 2
11 -6 10 -17 -1 -19 -1 -19 11 -2 14 18 32 24 21 7 -4 -6 1 -7 10 -3 10 3 21
0 26 -8 7 -11 9 -11 9 -1 0 8 5 10 12 6 7 -4 39 -9 73 -11 69 -3 565 -6 580
-3 6 1 14 2 19 1 14 -3 289 -3 301 -1 6 1 15 1 20 0 6 -1 110 -2 233 -2 195 0
224 -2 232 -17 9 -14 10 -13 8 4 -3 16 2 19 27 17 17 -1 121 -3 233 -3 176 -1
204 -3 212 -18 9 -14 10 -13 8 4 -3 16 2 19 27 17 36 -2 586 -4 600 -2 6 2 14
2 19 1 14 -3 289 -3 301 -1 6 1 15 1 20 0 6 -1 110 -2 233 -2 195 0 224 -2
232 -17 9 -14 10 -13 8 4 -3 16 2 19 27 17 17 -1 121 -3 233 -3 176 -1 204 -3
212 -18 9 -14 10 -13 8 4 -3 16 2 19 27 17 17 -1 193 -3 393 -3 324 -1 363 -3
372 -18 9 -14 10 -13 8 4 -3 16 2 19 27 17 17 -1 121 -3 233 -3 176 -1 204 -3
212 -18 9 -14 10 -13 8 4 -3 16 2 19 27 17 36 -2 586 -4 600 -2 6 2 14 2 19 1
14 -3 289 -3 301 -1 6 1 15 1 20 0 6 -1 110 -2 233 -2 195 0 224 -2 232 -17 9
-14 10 -13 8 4 -3 16 2 19 27 17 17 -1 121 -3 233 -3 176 -1 204 -3 212 -18 9
-14 10 -13 8 4 -3 16 2 19 27 17 36 -2 586 -4 600 -2 6 2 15 1 20 0 17 -4 119
0 145 5 14 3 40 6 58 7 17 1 32 5 32 10 0 6 6 8 13 5 6 -2 26 1 42 8 17 6 36
10 43 8 6 -3 12 1 12 8 0 7 3 9 7 6 3 -4 12 -2 20 4 7 6 13 8 13 4 0 -4 7 -2
15 5 16 13 50 6 41 -8 -3 -5 1 -9 9 -9 13 0 13 3 0 17 -14 15 -9 20 50 51 36
18 65 38 65 42 0 5 7 6 16 3 8 -3 13 -2 10 3 -3 5 11 21 31 37 20 15 49 40 64
57 17 17 33 26 40 21 8 -4 9 -3 5 4 -6 10 12 37 52 78 7 8 10 14 6 14 -4 0 1
7 12 15 10 8 15 15 11 15 -4 0 -2 6 5 14 7 8 16 12 20 9 4 -2 5 3 2 11 -3 9
-1 16 5 16 6 0 11 3 10 8 -2 16 14 52 24 52 6 0 7 3 4 7 -4 3 -3 11 2 17 5 6
14 28 21 49 6 20 16 35 21 32 5 -4 6 1 3 9 -3 8 -1 31 6 51 11 34 17 73 19
123 1 16 5 21 14 16 9 -6 9 -5 0 7 -14 17 -14 30 -1 47 6 6 7 12 2 12 -5 0 -9
14 -10 30 -1 17 3 30 9 30 5 0 4 7 -3 15 -10 12 -10 15 1 15 9 0 10 3 4 8 -5
4 -11 18 -12 32 -6 65 -13 100 -29 155 -10 33 -20 62 -23 65 -3 3 -7 12 -9 20
-7 38 -78 165 -109 198 -7 7 -13 17 -13 21 0 8 -115 131 -123 131 -4 0 -17 10
-31 23 -45 41 -136 101 -136 90 0 -5 -4 -3 -8 3 -9 15 -145 74 -170 74 -10 0
-22 3 -26 7 -3 4 -14 8 -24 9 -9 1 -39 7 -67 13 -35 7 -1239 10 -3950 10
-3392 -1 -3908 -3 -3965 -16z"/>
<path d="M75 4640 c3 -5 8 -10 11 -10 2 0 4 5 4 10 0 6 -5 10 -11 10 -5 0 -7
-4 -4 -10z"/>
<path d="M227 4279 c7 -7 15 -10 18 -7 3 3 -2 9 -12 12 -14 6 -15 5 -6 -5z"/>
<path d="M290 4226 c0 -2 7 -7 16 -10 8 -3 12 -2 9 4 -6 10 -25 14 -25 6z"/>
<path d="M9250 4179 c0 -5 5 -7 10 -4 6 3 10 8 10 11 0 2 -4 4 -10 4 -5 0 -10
-5 -10 -11z"/>
<path d="M9226 4162 c-3 -5 1 -9 9 -9 8 0 12 4 9 9 -3 4 -7 8 -9 8 -2 0 -6 -4
-9 -8z"/>
<path d="M415 4100 c3 -5 8 -10 11 -10 2 0 4 5 4 10 0 6 -5 10 -11 10 -5 0 -7
-4 -4 -10z"/>
<path d="M9133 4071 c0 -11 5 -18 9 -15 4 3 5 11 1 19 -7 21 -12 19 -10 -4z"/>
<path d="M456 4058 c3 -5 10 -6 15 -3 13 9 11 12 -6 12 -8 0 -12 -4 -9 -9z"/>
<path d="M9030 4006 c0 -2 7 -7 16 -10 8 -3 12 -2 9 4 -6 10 -25 14 -25 6z"/>
<path d="M8870 3960 c0 -5 5 -10 11 -10 5 0 7 5 4 10 -3 6 -8 10 -11 10 -2 0
-4 -4 -4 -10z"/>
<path d="M1056 3922 c-3 -5 1 -9 9 -9 8 0 12 4 9 9 -3 4 -7 8 -9 8 -2 0 -6 -4
-9 -8z"/>
<path d="M1416 3913 c-6 -14 -5 -15 5 -6 7 7 10 15 7 18 -3 3 -9 -2 -12 -12z"/>
<path d="M1736 3913 c-6 -14 -5 -15 5 -6 7 7 10 15 7 18 -3 3 -9 -2 -12 -12z"/>
<path d="M2016 3922 c-3 -5 1 -9 9 -9 8 0 12 4 9 9 -3 4 -7 8 -9 8 -2 0 -6 -4
-9 -8z"/>
<path d="M2496 3922 c-3 -5 1 -9 9 -9 8 0 12 4 9 9 -3 4 -7 8 -9 8 -2 0 -6 -4
-9 -8z"/>
<path d="M2976 3922 c-3 -5 1 -9 9 -9 8 0 12 4 9 9 -3 4 -7 8 -9 8 -2 0 -6 -4
-9 -8z"/>
<path d="M3336 3913 c-6 -14 -5 -15 5 -6 7 7 10 15 7 18 -3 3 -9 -2 -12 -12z"/>
<path d="M3656 3913 c-6 -14 -5 -15 5 -6 7 7 10 15 7 18 -3 3 -9 -2 -12 -12z"/>
<path d="M3936 3922 c-3 -5 1 -9 9 -9 8 0 12 4 9 9 -3 4 -7 8 -9 8 -2 0 -6 -4
-9 -8z"/>
<path d="M4416 3922 c-3 -5 1 -9 9 -9 8 0 12 4 9 9 -3 4 -7 8 -9 8 -2 0 -6 -4
-9 -8z"/>
<path d="M4896 3922 c-3 -5 1 -9 9 -9 8 0 12 4 9 9 -3 4 -7 8 -9 8 -2 0 -6 -4
-9 -8z"/>
<path d="M5216 3922 c-3 -5 1 -9 9 -9 8 0 12 4 9 9 -3 4 -7 8 -9 8 -2 0 -6 -4
-9 -8z"/>
<path d="M5696 3922 c-3 -5 1 -9 9 -9 8 0 12 4 9 9 -3 4 -7 8 -9 8 -2 0 -6 -4
-9 -8z"/>
<path d="M6176 3922 c-3 -5 1 -9 9 -9 8 0 12 4 9 9 -3 4 -7 8 -9 8 -2 0 -6 -4
-9 -8z"/>
<path d="M6536 3913 c-6 -14 -5 -15 5 -6 7 7 10 15 7 18 -3 3 -9 -2 -12 -12z"/>
<path d="M6856 3913 c-6 -14 -5 -15 5 -6 7 7 10 15 7 18 -3 3 -9 -2 -12 -12z"/>
<path d="M7136 3922 c-3 -5 1 -9 9 -9 8 0 12 4 9 9 -3 4 -7 8 -9 8 -2 0 -6 -4
-9 -8z"/>
<path d="M7616 3922 c-3 -5 1 -9 9 -9 8 0 12 4 9 9 -3 4 -7 8 -9 8 -2 0 -6 -4
-9 -8z"/>
<path d="M8096 3922 c-3 -5 1 -9 9 -9 8 0 12 4 9 9 -3 4 -7 8 -9 8 -2 0 -6 -4
-9 -8z"/>
<path d="M8456 3913 c-6 -14 -5 -15 5 -6 7 7 10 15 7 18 -3 3 -9 -2 -12 -12z"/>
<path d="M8870 3919 c0 -5 5 -7 10 -4 6 3 10 8 10 11 0 2 -4 4 -10 4 -5 0 -10
-5 -10 -11z"/>
<path d="M2113 3905 c0 -8 4 -12 9 -9 5 3 6 10 3 15 -9 13 -12 11 -12 -6z"/>
<path d="M2593 3905 c0 -8 4 -12 9 -9 5 3 6 10 3 15 -9 13 -12 11 -12 -6z"/>
<path d="M4033 3905 c0 -8 4 -12 9 -9 5 3 6 10 3 15 -9 13 -12 11 -12 -6z"/>
<path d="M4513 3905 c0 -8 4 -12 9 -9 5 3 6 10 3 15 -9 13 -12 11 -12 -6z"/>
<path d="M5313 3905 c0 -8 4 -12 9 -9 5 3 6 10 3 15 -9 13 -12 11 -12 -6z"/>
<path d="M5793 3905 c0 -8 4 -12 9 -9 5 3 6 10 3 15 -9 13 -12 11 -12 -6z"/>
<path d="M7233 3905 c0 -8 4 -12 9 -9 5 3 6 10 3 15 -9 13 -12 11 -12 -6z"/>
<path d="M7713 3905 c0 -8 4 -12 9 -9 5 3 6 10 3 15 -9 13 -12 11 -12 -6z"/>
<path d="M773 3895 c0 -8 4 -12 9 -9 5 3 6 10 3 15 -9 13 -12 11 -12 -6z"/>
<path d="M8771 3907 c2 -1 13 -9 24 -17 19 -14 19 -14 6 3 -7 9 -18 17 -24 17
-6 0 -8 -1 -6 -3z"/>
<path d="M2316 3887 c3 -10 9 -15 12 -12 3 3 0 11 -7 18 -10 9 -11 8 -5 -6z"/>
<path d="M2796 3887 c3 -10 9 -15 12 -12 3 3 0 11 -7 18 -10 9 -11 8 -5 -6z"/>
<path d="M4236 3887 c3 -10 9 -15 12 -12 3 3 0 11 -7 18 -10 9 -11 8 -5 -6z"/>
<path d="M4716 3887 c3 -10 9 -15 12 -12 3 3 0 11 -7 18 -10 9 -11 8 -5 -6z"/>
<path d="M5516 3887 c3 -10 9 -15 12 -12 3 3 0 11 -7 18 -10 9 -11 8 -5 -6z"/>
<path d="M5996 3887 c3 -10 9 -15 12 -12 3 3 0 11 -7 18 -10 9 -11 8 -5 -6z"/>
<path d="M7436 3887 c3 -10 9 -15 12 -12 3 3 0 11 -7 18 -10 9 -11 8 -5 -6z"/>
<path d="M7916 3887 c3 -10 9 -15 12 -12 3 3 0 11 -7 18 -10 9 -11 8 -5 -6z"/>
<path d="M1006 3878 c3 -5 10 -6 15 -3 13 9 11 12 -6 12 -8 0 -12 -4 -9 -9z"/>
<path d="M1246 3878 c3 -5 10 -6 15 -3 13 9 11 12 -6 12 -8 0 -12 -4 -9 -9z"/>
<path d="M1966 3878 c3 -5 10 -6 15 -3 13 9 11 12 -6 12 -8 0 -12 -4 -9 -9z"/>
<path d="M2206 3878 c3 -5 10 -6 15 -3 13 9 11 12 -6 12 -8 0 -12 -4 -9 -9z"/>
<path d="M2446 3878 c3 -5 10 -6 15 -3 13 9 11 12 -6 12 -8 0 -12 -4 -9 -9z"/>
<path d="M2686 3878 c3 -5 10 -6 15 -3 13 9 11 12 -6 12 -8 0 -12 -4 -9 -9z"/>
<path d="M2926 3878 c3 -5 10 -6 15 -3 13 9 11 12 -6 12 -8 0 -12 -4 -9 -9z"/>
<path d="M3886 3878 c3 -5 10 -6 15 -3 13 9 11 12 -6 12 -8 0 -12 -4 -9 -9z"/>
<path d="M4126 3878 c3 -5 10 -6 15 -3 13 9 11 12 -6 12 -8 0 -12 -4 -9 -9z"/>
<path d="M4366 3878 c3 -5 10 -6 15 -3 13 9 11 12 -6 12 -8 0 -12 -4 -9 -9z"/>
<path d="M4606 3878 c3 -5 10 -6 15 -3 13 9 11 12 -6 12 -8 0 -12 -4 -9 -9z"/>
<path d="M4846 3878 c3 -5 10 -6 15 -3 13 9 11 12 -6 12 -8 0 -12 -4 -9 -9z"/>
<path d="M5086 3878 c3 -5 10 -6 15 -3 13 9 11 12 -6 12 -8 0 -12 -4 -9 -9z"/>
<path d="M5166 3878 c3 -5 10 -6 15 -3 13 9 11 12 -6 12 -8 0 -12 -4 -9 -9z"/>
<path d="M5406 3878 c3 -5 10 -6 15 -3 13 9 11 12 -6 12 -8 0 -12 -4 -9 -9z"/>
<path d="M5646 3878 c3 -5 10 -6 15 -3 13 9 11 12 -6 12 -8 0 -12 -4 -9 -9z"/>
<path d="M5886 3878 c3 -5 10 -6 15 -3 13 9 11 12 -6 12 -8 0 -12 -4 -9 -9z"/>
<path d="M6126 3878 c3 -5 10 -6 15 -3 13 9 11 12 -6 12 -8 0 -12 -4 -9 -9z"/>
<path d="M6366 3878 c3 -5 10 -6 15 -3 13 9 11 12 -6 12 -8 0 -12 -4 -9 -9z"/>
<path d="M7086 3878 c3 -5 10 -6 15 -3 13 9 11 12 -6 12 -8 0 -12 -4 -9 -9z"/>
<path d="M7326 3878 c3 -5 10 -6 15 -3 13 9 11 12 -6 12 -8 0 -12 -4 -9 -9z"/>
<path d="M7566 3878 c3 -5 10 -6 15 -3 13 9 11 12 -6 12 -8 0 -12 -4 -9 -9z"/>
<path d="M7806 3878 c3 -5 10 -6 15 -3 13 9 11 12 -6 12 -8 0 -12 -4 -9 -9z"/>
<path d="M8046 3878 c3 -5 10 -6 15 -3 13 9 11 12 -6 12 -8 0 -12 -4 -9 -9z"/>
<path d="M999 2325 c-2 -2 -37 -6 -77 -10 -78 -7 -207 -36 -257 -59 -16 -7
-49 -22 -72 -32 -24 -10 -43 -21 -43 -26 0 -4 -6 -8 -13 -8 -7 0 -27 -10 -44
-22 -16 -13 -42 -32 -57 -43 -57 -42 -176 -166 -176 -184 0 -5 -4 -11 -8 -13
-11 -4 -57 -81 -54 -90 1 -5 -2 -8 -7 -8 -5 0 -14 -15 -21 -32 -7 -18 -19 -46
-25 -63 -19 -44 -28 -69 -30 -80 -1 -5 -3 -13 -5 -17 -1 -5 -4 -12 -5 -18 -1
-5 -3 -11 -4 -12 -1 -2 -4 -25 -7 -52 -2 -27 -10 -56 -17 -64 -6 -9 -7 -13 -1
-9 7 4 11 -7 10 -33 -1 -22 -5 -40 -9 -40 -5 0 -6 -4 -3 -9 11 -18 15 -81 5
-87 -7 -4 -7 -10 0 -18 6 -7 11 -29 13 -49 1 -20 5 -37 8 -37 3 0 7 -14 8 -31
1 -18 6 -37 9 -43 4 -6 8 -15 9 -21 5 -26 10 -40 16 -45 3 -3 8 -14 10 -25 1
-11 5 -22 8 -25 7 -7 50 -90 50 -97 0 -2 -5 -1 -12 3 -7 4 -8 3 -4 -5 4 -6 12
-9 17 -6 5 4 13 -5 19 -19 5 -14 14 -26 20 -26 5 0 10 -6 10 -12 0 -7 13 -27
30 -44 16 -18 26 -35 23 -38 -4 -3 -1 -6 6 -6 6 0 27 -16 46 -35 19 -19 35
-33 35 -30 0 2 14 -9 31 -25 53 -47 69 -60 74 -57 2 1 13 -5 23 -13 10 -8 25
-16 33 -18 8 -2 16 -8 17 -13 2 -5 12 -9 22 -9 9 0 23 -6 30 -14 6 -8 18 -12
26 -9 8 3 14 0 14 -6 0 -6 3 -10 8 -9 17 3 102 -27 102 -37 0 -5 4 -4 9 4 12
19 32 5 24 -17 -6 -16 -6 -16 10 -1 12 13 25 15 56 9 23 -4 41 -5 41 -2 0 2 7
-1 15 -8 9 -8 15 -8 15 -2 0 12 38 10 58 -2 7 -4 12 -4 12 1 0 4 29 8 65 8 51
0 65 -3 65 -15 0 -13 2 -13 9 -1 10 16 51 23 51 9 0 -5 6 -6 12 -2 19 12 48
12 48 0 0 -6 5 -4 10 4 6 10 10 11 10 3 0 -7 5 -13 11 -13 5 0 8 3 6 8 -3 4 6
7 19 7 13 0 24 -3 24 -7 0 -5 5 -8 11 -8 5 0 8 4 5 8 -7 12 38 9 47 -3 4 -6
10 -5 16 4 6 9 11 10 15 2 4 -6 12 -11 17 -11 6 0 8 4 5 8 -3 5 1 9 9 9 8 0
15 -4 15 -9 0 -5 5 -6 11 -3 17 11 59 13 65 4 3 -5 10 -9 15 -9 6 0 8 3 6 8
-6 9 105 8 120 -1 6 -4 13 -3 17 0 3 4 20 7 36 8 29 1 33 -2 33 -37 0 -10 3
-15 8 -13 4 3 6 14 4 25 -2 11 0 21 6 21 5 1 15 2 22 3 6 1 17 -2 24 -6 6 -5
14 -5 17 0 8 13 46 7 57 -9 7 -11 9 -10 9 5 0 20 0 20 15 0 10 -12 14 -14 13
-4 -3 16 30 20 50 6 8 -5 12 -4 12 5 1 9 5 8 15 -5 15 -20 15 -20 15 0 0 14 2
16 9 5 6 -9 10 -10 16 -2 5 9 10 9 20 1 7 -6 16 -7 18 -3 6 10 48 10 64 0 7
-4 15 -3 18 3 5 8 11 8 20 0 10 -8 14 -7 18 2 4 10 6 10 6 1 1 -7 6 -13 12
-13 5 0 8 3 6 7 -3 5 6 8 19 8 13 0 24 -3 24 -7 0 -5 5 -8 11 -8 5 0 8 4 5 8
-7 12 38 9 47 -3 4 -6 10 -5 16 4 6 9 11 10 15 2 4 -6 12 -11 17 -11 6 0 8 4
5 8 -3 5 1 9 9 9 8 0 15 -4 15 -9 0 -5 5 -6 11 -3 17 11 59 13 65 4 3 -5 10
-9 15 -9 6 0 8 4 5 8 -3 5 1 9 9 9 8 0 15 -4 15 -9 0 -4 5 -8 11 -8 5 0 8 3 6
7 -3 5 6 8 19 8 13 0 24 -3 24 -7 0 -5 5 -8 11 -8 5 0 8 4 5 8 -7 12 38 9 47
-3 4 -6 10 -5 16 4 6 9 11 10 15 2 4 -6 12 -11 17 -11 6 0 8 4 5 8 -3 5 1 9 9
9 8 0 15 -4 15 -9 0 -5 5 -6 11 -3 17 11 59 13 65 4 3 -5 10 -9 15 -9 6 0 8 3
6 7 -6 10 105 9 120 0 6 -4 13 -3 17 0 3 4 20 7 36 8 29 1 33 -2 33 -37 0 -10
3 -15 8 -13 4 3 6 14 4 25 -2 11 0 21 6 21 5 1 15 2 22 3 6 1 17 -2 24 -6 6
-5 14 -5 17 0 8 13 46 7 57 -9 7 -11 9 -10 9 5 0 20 0 20 15 0 10 -12 14 -14
13 -4 -3 16 30 20 50 6 8 -5 12 -4 12 5 1 9 5 8 15 -5 15 -20 15 -20 15 0 0
14 2 16 9 5 6 -9 10 -10 16 -2 5 9 10 9 20 1 7 -6 16 -7 18 -3 6 10 48 10 64
0 7 -4 15 -3 18 3 5 8 11 8 20 0 10 -8 14 -7 18 2 4 10 6 10 6 1 1 -7 6 -13
12 -13 5 0 8 3 6 8 -3 4 6 7 19 7 13 0 24 -3 24 -7 0 -5 5 -8 11 -8 5 0 8 4 5
8 -7 12 38 9 47 -3 4 -6 10 -5 16 4 6 9 11 10 15 2 4 -6 12 -11 17 -11 6 0 8
4 5 8 -3 5 1 9 9 9 8 0 15 -4 15 -9 0 -5 5 -6 11 -3 17 11 59 13 65 4 3 -5 10
-9 15 -9 6 0 8 4 5 8 -3 5 1 9 9 9 8 0 15 -4 15 -9 0 -4 5 -8 11 -8 5 0 8 3 6
8 -3 4 6 7 19 7 13 0 24 -3 24 -7 0 -5 5 -8 11 -8 5 0 8 4 5 8 -7 12 38 9 47
-3 4 -6 10 -5 16 4 6 9 11 10 15 2 4 -6 12 -11 17 -11 6 0 8 4 5 8 -3 5 1 9 9
9 8 0 15 -4 15 -9 0 -5 5 -6 11 -3 17 11 59 13 65 4 3 -5 10 -9 15 -9 6 0 8 3
6 8 -6 9 105 8 120 -1 6 -4 13 -3 17 0 3 4 20 7 36 8 29 1 33 -2 33 -37 0 -10
3 -15 8 -13 4 3 6 14 4 25 -2 11 0 21 6 21 5 1 15 2 22 3 6 1 17 -2 24 -6 6
-5 14 -5 17 0 6 10 36 9 54 -2 7 -4 12 -2 12 5 0 6 8 3 17 -8 10 -10 15 -14
11 -8 -8 12 -1 25 13 25 4 0 10 -8 12 -17 4 -16 5 -15 6 1 1 20 1 20 17 0 8
-10 13 -14 10 -7 -9 17 15 28 25 12 7 -12 9 -12 9 0 0 11 4 9 15 -5 8 -10 14
-13 13 -5 -2 7 7 15 20 17 16 3 21 0 16 -8 -5 -10 -4 -10 6 -1 11 10 16 9 27
-5 12 -16 13 -16 7 0 -5 13 -1 18 15 19 12 1 27 2 34 3 6 1 18 -3 26 -8 11 -8
13 -8 7 2 -4 7 -2 14 6 16 7 2 32 9 55 16 35 11 45 11 60 -1 16 -13 17 -12 4
3 -11 15 -11 18 3 23 9 3 23 7 32 10 9 3 22 1 29 -5 11 -9 12 -6 8 11 -4 16
-2 20 8 17 8 -3 19 1 24 7 20 23 104 65 110 55 3 -5 11 -10 18 -10 6 0 3 6 -5
13 -15 10 -15 14 -2 25 8 7 14 11 14 8 0 -3 19 14 43 37 23 22 41 45 39 50 -1
4 4 7 12 5 8 -2 14 -1 13 2 -1 5 33 47 66 82 9 10 17 20 17 23 0 17 26 42 39
38 13 -4 13 -3 2 5 -10 7 -11 14 -2 31 7 11 14 21 17 21 3 0 2 -5 -2 -12 -4
-6 -3 -8 4 -5 5 4 8 16 5 27 -3 12 0 20 6 20 7 0 9 5 6 10 -3 6 2 10 12 10 12
0 14 3 6 8 -9 6 -9 14 2 37 12 27 19 47 24 67 1 4 7 22 12 40 16 52 19 71 21
142 2 36 6 66 10 66 8 0 5 21 -5 38 -5 7 -3 12 3 12 8 0 8 6 0 20 -7 14 -7 20
0 20 5 0 10 5 10 11 0 5 -5 7 -12 3 -7 -5 -9 -2 -6 8 4 8 2 21 -2 29 -6 8 -4
16 3 21 9 6 9 8 -1 8 -9 0 -11 7 -7 20 3 11 2 20 -4 20 -5 0 -8 8 -6 19 2 10
-3 30 -10 45 -8 15 -13 28 -13 29 4 5 -37 107 -42 107 -4 0 -7 6 -7 14 0 15
-63 119 -75 124 -5 2 -8 10 -8 17 0 8 -11 22 -25 33 -14 11 -25 24 -25 29 0
11 -59 63 -71 63 -5 0 -9 5 -9 11 0 14 -41 48 -57 49 -7 0 -13 4 -13 9 0 8
-31 29 -105 70 -40 23 -154 70 -182 76 -13 3 -33 7 -45 10 -38 10 -80 15 -140
20 -32 2 -62 6 -67 10 -5 3 -12 1 -15 -4 -3 -4 -24 -5 -46 -1 -22 4 -40 4 -40
-1 0 -8 -33 -4 -50 6 -6 3 -10 2 -10 -4 0 -7 -8 -7 -25 -1 -16 6 -26 6 -31 -1
-4 -6 -11 -6 -20 2 -8 6 -14 8 -14 3 0 -8 -65 -10 -95 -4 -5 1 -12 1 -15 0
-17 -6 -60 -4 -60 3 0 5 -6 5 -13 -1 -8 -7 -18 -7 -27 -2 -8 5 -18 6 -23 3
-14 -9 -57 -11 -62 -2 -3 4 -18 4 -34 -1 -15 -4 -34 -4 -42 0 -7 5 -20 5 -28
2 -14 -7 -37 -8 -51 -2 -16 6 -73 4 -77 -3 -3 -4 -11 -3 -19 4 -8 6 -14 7 -14
2 0 -8 -35 -10 -65 -3 -24 5 -46 -1 -39 -11 3 -6 -5 -3 -20 6 -15 10 -26 13
-26 6 0 -7 -8 -8 -25 -1 -16 6 -26 6 -31 -1 -4 -6 -11 -6 -20 2 -11 9 -14 9
-14 0 0 -7 -6 -9 -17 -4 -16 7 -49 9 -63 3 -17 -7 -60 -5 -60 2 0 5 -10 3 -22
-3 -13 -7 -25 -11 -28 -10 -3 2 -13 7 -22 12 -12 6 -18 6 -18 0 0 -7 -9 -7
-25 -1 -16 6 -26 6 -31 -1 -4 -6 -11 -6 -20 2 -8 6 -14 7 -14 2 0 -6 -12 -8
-27 -6 -35 5 -41 5 -76 0 -15 -2 -30 -1 -32 4 -3 4 -18 4 -34 -1 -15 -4 -34
-4 -42 0 -7 5 -17 6 -22 3 -13 -8 -57 -11 -62 -4 -2 4 -29 4 -60 1 -31 -3 -58
-2 -61 2 -3 5 -10 5 -17 1 -14 -9 -57 -11 -57 -2 0 3 -7 6 -15 6 -8 0 -15 -4
-15 -9 0 -5 -8 -4 -18 1 -10 5 -24 6 -31 2 -7 -5 -28 -5 -46 -1 -18 4 -39 4
-46 -1 -7 -4 -21 -3 -31 2 -12 6 -18 6 -18 0 0 -7 -9 -7 -25 -1 -16 6 -26 6
-31 -1 -4 -6 -11 -6 -20 2 -8 6 -14 8 -14 3 0 -8 -65 -10 -95 -4 -5 1 -12 1
-15 0 -17 -6 -60 -4 -60 3 0 5 -6 5 -13 -1 -8 -7 -18 -7 -27 -2 -8 5 -18 6
-23 3 -14 -9 -57 -11 -62 -2 -3 4 -18 4 -34 -1 -15 -4 -34 -4 -42 0 -7 5 -20
5 -28 2 -14 -7 -37 -8 -51 -2 -16 6 -73 4 -77 -3 -3 -4 -11 -3 -19 4 -8 6 -14
7 -14 2 0 -8 -35 -10 -65 -3 -24 5 -46 -1 -39 -11 3 -6 -5 -3 -20 6 -15 10
-26 13 -26 6 0 -7 -8 -8 -25 -1 -16 6 -26 6 -31 -1 -4 -6 -11 -6 -20 2 -11 9
-14 9 -14 0 0 -7 -6 -9 -17 -4 -16 7 -49 9 -63 3 -17 -7 -60 -5 -60 2 0 5 -10
3 -22 -3 -13 -7 -23 -12 -23 -12 0 0 -10 5 -22 12 -14 7 -23 8 -23 2 0 -7 -9
-7 -25 -1 -16 6 -26 6 -31 -1 -4 -6 -11 -6 -20 2 -8 6 -14 7 -14 2 0 -6 -12
-8 -27 -6 -35 5 -41 5 -76 0 -15 -2 -30 -1 -32 4 -3 4 -18 4 -34 -1 -15 -4
-34 -4 -42 0 -7 5 -20 5 -28 2 -20 -9 -42 -9 -57 0 -6 4 -13 6 -15 3z"/>
<path d="M76 1127 c3 -10 9 -15 12 -12 3 3 0 11 -7 18 -10 9 -11 8 -5 -6z"/>
<path d="M210 839 c0 -5 5 -7 10 -4 6 3 10 8 10 11 0 2 -4 4 -10 4 -5 0 -10
-5 -10 -11z"/>
<path d="M273 765 c0 -8 4 -12 9 -9 5 3 6 10 3 15 -9 13 -12 11 -12 -6z"/>
<path d="M316 713 c-6 -14 -5 -15 5 -6 7 7 10 15 7 18 -3 3 -9 -2 -12 -12z"/>
<path d="M396 662 c-3 -4 4 -9 15 -9 23 -2 25 3 4 10 -8 4 -16 3 -19 -1z"/>
<path d="M466 602 c-3 -5 1 -9 9 -9 8 0 12 4 9 9 -3 4 -7 8 -9 8 -2 0 -6 -4
-9 -8z"/>
<path d="M5076 593 c-6 -14 -5 -15 5 -6 7 7 10 15 7 18 -3 3 -9 -2 -12 -12z"/>
<path d="M513 565 c0 -8 4 -12 9 -9 5 3 6 10 3 15 -9 13 -12 11 -12 -6z"/>
<path d="M545 560 c-3 -6 1 -7 9 -4 18 7 21 14 7 14 -6 0 -13 -4 -16 -10z"/>
<path d="M626 518 c3 -5 10 -6 15 -3 13 9 11 12 -6 12 -8 0 -12 -4 -9 -9z"/>
<path d="M4907 499 c7 -7 15 -10 18 -7 3 3 -2 9 -12 12 -14 6 -15 5 -6 -5z"/>
<path d="M4970 506 c0 -2 7 -7 16 -10 8 -3 12 -2 9 4 -6 10 -25 14 -25 6z"/>
<path d="M710 496 c0 -2 8 -10 18 -17 15 -13 16 -12 3 4 -13 16 -21 21 -21 13z"/>
<path d="M1515 471 c-3 -5 -2 -12 3 -15 5 -3 9 1 9 9 0 17 -3 19 -12 6z"/>
<path d="M1989 463 c-13 -16 -12 -17 4 -4 9 7 17 15 17 17 0 8 -8 3 -21 -13z"/>
<path d="M2475 471 c-3 -5 -2 -12 3 -15 5 -3 9 1 9 9 0 17 -3 19 -12 6z"/>
<path d="M2795 471 c-3 -5 -2 -12 3 -15 5 -3 9 1 9 9 0 17 -3 19 -12 6z"/>
<path d="M3269 463 c-13 -16 -12 -17 4 -4 16 13 21 21 13 21 -2 0 -10 -8 -17
-17z"/>
<path d="M3755 471 c-3 -5 -2 -12 3 -15 5 -3 9 1 9 9 0 17 -3 19 -12 6z"/>
<path d="M4075 471 c-3 -5 -2 -12 3 -15 5 -3 9 1 9 9 0 17 -3 19 -12 6z"/>
<path d="M1060 460 c-9 -6 -10 -10 -3 -10 6 0 15 5 18 10 8 12 4 12 -15 0z"/>
<path d="M1391 453 c7 -12 15 -20 18 -17 3 2 -3 12 -13 22 -17 16 -18 16 -5
-5z"/>
<path d="M1600 460 c-9 -6 -10 -10 -3 -10 6 0 15 5 18 10 8 12 4 12 -15 0z"/>
<path d="M1638 463 c7 -3 16 -2 19 1 4 3 -2 6 -13 5 -11 0 -14 -3 -6 -6z"/>
<path d="M1753 455 c0 -8 4 -12 9 -9 4 3 8 9 8 15 0 5 -4 9 -8 9 -5 0 -9 -7
-9 -15z"/>
<path d="M1820 466 c0 -2 8 -10 18 -17 15 -13 16 -12 3 4 -13 16 -21 21 -21
13z"/>
<path d="M1876 455 c-9 -26 -7 -32 5 -12 6 10 9 21 6 23 -2 3 -7 -2 -11 -11z"/>
<path d="M2351 453 c7 -12 15 -20 18 -17 3 2 -3 12 -13 22 -17 16 -18 16 -5
-5z"/>
<path d="M2671 453 c7 -12 15 -20 18 -17 3 2 -3 12 -13 22 -17 16 -18 16 -5
-5z"/>
<path d="M2880 460 c-9 -6 -10 -10 -3 -10 6 0 15 5 18 10 8 12 4 12 -15 0z"/>
<path d="M2918 463 c7 -3 16 -2 19 1 4 3 -2 6 -13 5 -11 0 -14 -3 -6 -6z"/>
<path d="M3033 455 c0 -8 4 -12 9 -9 4 3 8 9 8 15 0 5 -4 9 -8 9 -5 0 -9 -7
-9 -15z"/>
<path d="M3100 466 c0 -2 8 -10 18 -17 15 -13 16 -12 3 4 -13 16 -21 21 -21
13z"/>
<path d="M3156 455 c-9 -26 -7 -32 5 -12 6 10 9 21 6 23 -2 3 -7 -2 -11 -11z"/>
<path d="M3631 453 c7 -12 15 -20 18 -17 3 2 -3 12 -13 22 -17 16 -18 16 -5
-5z"/>
<path d="M3951 453 c7 -12 15 -20 18 -17 3 2 -3 12 -13 22 -17 16 -18 16 -5
-5z"/>
<path d="M4160 460 c-9 -6 -10 -10 -3 -10 6 0 15 5 18 10 8 12 4 12 -15 0z"/>
<path d="M4198 463 c7 -3 16 -2 19 1 4 3 -2 6 -13 5 -11 0 -14 -3 -6 -6z"/>
<path d="M4313 455 c0 -8 4 -12 9 -9 4 3 8 9 8 15 0 5 -4 9 -8 9 -5 0 -9 -7
-9 -15z"/>
<path d="M4380 466 c0 -2 8 -10 18 -17 15 -13 16 -12 3 4 -13 16 -21 21 -21
13z"/>
<path d="M4436 455 c-9 -26 -7 -32 5 -12 6 10 9 21 6 23 -2 3 -7 -2 -11 -11z"/>
<path d="M4846 462 c-3 -5 1 -9 9 -9 8 0 12 4 9 9 -3 4 -7 8 -9 8 -2 0 -6 -4
-9 -8z"/>
<path d="M1349 443 c-13 -16 -12 -17 4 -4 16 13 21 21 13 21 -2 0 -10 -8 -17
-17z"/>
<path d="M2019 458 c-5 -9 -5 -48 -1 -43 6 6 11 45 5 45 -2 0 -4 -1 -4 -2z"/>
<path d="M2173 445 c0 -8 4 -12 9 -9 5 3 6 10 3 15 -9 13 -12 11 -12 -6z"/>
<path d="M2216 447 c3 -10 9 -15 12 -12 3 3 0 11 -7 18 -10 9 -11 8 -5 -6z"/>
<path d="M2309 443 c-13 -16 -12 -17 4 -4 16 13 21 21 13 21 -2 0 -10 -8 -17
-17z"/>
<path d="M2629 443 c-13 -16 -12 -17 4 -4 16 13 21 21 13 21 -2 0 -10 -8 -17
-17z"/>
<path d="M3299 458 c-5 -9 -5 -48 -1 -43 6 6 11 45 5 45 -2 0 -4 -1 -4 -2z"/>
<path d="M3453 445 c0 -8 4 -12 9 -9 5 3 6 10 3 15 -9 13 -12 11 -12 -6z"/>
<path d="M3496 447 c3 -10 9 -15 12 -12 3 3 0 11 -7 18 -10 9 -11 8 -5 -6z"/>
<path d="M3589 443 c-13 -16 -12 -17 4 -4 16 13 21 21 13 21 -2 0 -10 -8 -17
-17z"/>
<path d="M3909 443 c-13 -16 -12 -17 4 -4 16 13 21 21 13 21 -2 0 -10 -8 -17
-17z"/>
<path d="M4615 440 c2 -27 10 -33 12 -10 1 11 -2 22 -6 24 -4 3 -7 -4 -6 -14z"/>
<path d="M816 438 c3 -5 10 -6 15 -3 13 9 11 12 -6 12 -8 0 -12 -4 -9 -9z"/>
<path d="M1296 438 c3 -4 11 -5 19 -1 21 7 19 12 -4 10 -11 0 -18 -5 -15 -9z"/>
<path d="M1633 435 c0 -8 4 -12 9 -9 5 3 6 10 3 15 -9 13 -12 11 -12 -6z"/>
<path d="M2256 438 c3 -4 11 -5 19 -1 21 7 19 12 -4 10 -11 0 -18 -5 -15 -9z"/>
<path d="M2576 438 c3 -4 11 -5 19 -1 21 7 19 12 -4 10 -11 0 -18 -5 -15 -9z"/>
<path d="M2913 435 c0 -8 4 -12 9 -9 5 3 6 10 3 15 -9 13 -12 11 -12 -6z"/>
<path d="M3536 438 c3 -4 11 -5 19 -1 21 7 19 12 -4 10 -11 0 -18 -5 -15 -9z"/>
<path d="M3856 438 c3 -4 11 -5 19 -1 21 7 19 12 -4 10 -11 0 -18 -5 -15 -9z"/>
<path d="M4193 435 c0 -8 4 -12 9 -9 5 3 6 10 3 15 -9 13 -12 11 -12 -6z"/>
<path d="M1590 436 c0 -2 8 -10 18 -17 15 -13 16 -12 3 4 -13 16 -21 21 -21
13z"/>
<path d="M2870 436 c0 -2 8 -10 18 -17 15 -13 16 -12 3 4 -13 16 -21 21 -21
13z"/>
<path d="M4150 436 c0 -2 8 -10 18 -17 15 -13 16 -12 3 4 -13 16 -21 21 -21
13z"/>
<path d="M4793 425 c0 -8 4 -12 9 -9 5 3 6 10 3 15 -9 13 -12 11 -12 -6z"/>
<path d="M930 426 c0 -2 7 -7 16 -10 8 -3 12 -2 9 4 -6 10 -25 14 -25 6z"/>
<path d="M975 420 c-3 -5 -1 -10 4 -10 6 0 11 5 11 10 0 6 -2 10 -4 10 -3 0
-8 -4 -11 -10z"/>
<path d="M1055 420 c3 -5 8 -10 11 -10 2 0 4 5 4 10 0 6 -5 10 -11 10 -5 0 -7
-4 -4 -10z"/>
<path d="M1225 420 c-3 -6 1 -7 9 -4 18 7 21 14 7 14 -6 0 -13 -4 -16 -10z"/>
<path d="M1530 426 c0 -2 7 -7 16 -10 8 -3 12 -2 9 4 -6 10 -25 14 -25 6z"/>
<path d="M1685 420 c-3 -6 1 -7 9 -4 18 7 21 14 7 14 -6 0 -13 -4 -16 -10z"/>
<path d="M1975 420 c-3 -5 -1 -10 4 -10 6 0 11 5 11 10 0 6 -2 10 -4 10 -3 0
-8 -4 -11 -10z"/>
<path d="M2085 420 c-3 -6 1 -7 9 -4 18 7 21 14 7 14 -6 0 -13 -4 -16 -10z"/>
<path d="M2490 426 c0 -2 7 -7 16 -10 8 -3 12 -2 9 4 -6 10 -25 14 -25 6z"/>
<path d="M2810 426 c0 -2 7 -7 16 -10 8 -3 12 -2 9 4 -6 10 -25 14 -25 6z"/>
<path d="M2965 420 c-3 -6 1 -7 9 -4 18 7 21 14 7 14 -6 0 -13 -4 -16 -10z"/>
<path d="M3255 420 c-3 -5 -1 -10 4 -10 6 0 11 5 11 10 0 6 -2 10 -4 10 -3 0
-8 -4 -11 -10z"/>
<path d="M3365 420 c-3 -6 1 -7 9 -4 18 7 21 14 7 14 -6 0 -13 -4 -16 -10z"/>
<path d="M3770 426 c0 -2 7 -7 16 -10 8 -3 12 -2 9 4 -6 10 -25 14 -25 6z"/>
<path d="M4090 426 c0 -2 7 -7 16 -10 8 -3 12 -2 9 4 -6 10 -25 14 -25 6z"/>
<path d="M4245 420 c-3 -6 1 -7 9 -4 18 7 21 14 7 14 -6 0 -13 -4 -16 -10z"/>
<path d="M2155 401 c-3 -5 -2 -12 3 -15 5 -3 9 1 9 9 0 17 -3 19 -12 6z"/>
<path d="M3435 401 c-3 -5 -2 -12 3 -15 5 -3 9 1 9 9 0 17 -3 19 -12 6z"/>
</g>
</svg>
