<svg width="2068" height="2071" xmlns="http://www.w3.org/2000/svg" xmlns:xlink="http://www.w3.org/1999/xlink" xml:space="preserve" overflow="hidden"><g transform="translate(-957 -284)"><g><path d="M1324 725.501C1324 636.859 1395.86 565 1484.5 565L2340.5 565C2429.14 565 2501 636.859 2501 725.501L2501 725.501C2501 814.143 2429.14 886.001 2340.5 886.001L1484.5 886C1395.86 886 1324 814.141 1324 725.499Z" fill="#000000" fill-rule="evenodd" fill-opacity="1"/><path d="M1324 1320C1324 1231.08 1396.08 1159 1485 1159L2774 1159C2862.92 1159 2935 1231.08 2935 1320 2935 1408.92 2862.92 1481 2774 1481L1485 1481C1396.08 1481 1324 1408.92 1324 1320Z" fill="#000000" fill-rule="evenodd" fill-opacity="1"/><path d="M1324 1897.5C1324 1808.86 1395.86 1737 1484.5 1737L2101.5 1737C2190.14 1737 2262 1808.86 2262 1897.5L2262 1897.5C2262 1986.14 2190.14 2058 2101.5 2058L1484.5 2058C1395.86 2058 1324 1986.14 1324 1897.5Z" fill="#000000" fill-rule="evenodd" fill-opacity="1"/></g></g></svg>