<svg width="702" height="702" viewBox="0 0 702 702" fill="none" xmlns="http://www.w3.org/2000/svg">
<path d="M1 280.44C1 50.3211 50.3212 1 280.44 1H421.56C651.679 1 701 50.3211 701 280.44V421.56C701 651.679 651.679 701 421.56 701H280.44C50.3212 701 1 651.679 1 421.56V280.44Z" fill="white"/>
<mask id="path-2-outside-1_2003_160" maskUnits="userSpaceOnUse" x="0" y="0" width="702" height="702" fill="currentColor">
<rect fill="white" width="702" height="702"/>
<path fill-rule="evenodd" clip-rule="evenodd" d="M280.44 1C50.3212 1 1 50.3211 1 280.44V421.56C1 651.679 50.3212 701 280.44 701H421.56C651.679 701 701 651.679 701 421.56V280.44C701 50.3211 651.679 1 421.56 1H280.44ZM163 306C138.147 306 118 326.147 118 351C118 375.853 138.147 396 163 396H543C567.853 396 588 375.853 588 351C588 326.147 567.853 306 543 306H163ZM118 524C118 499.147 138.147 479 163 479H343C367.853 479 388 499.147 388 524C388 548.853 367.853 569 343 569H163C138.147 569 118 548.853 118 524ZM163 131C138.147 131 118 151.147 118 176C118 200.853 138.147 221 163 221H408C432.853 221 453 200.853 453 176C453 151.147 432.853 131 408 131H163Z"/>
</mask>
<path fill-rule="evenodd" clip-rule="evenodd" d="M280.44 1C50.3212 1 1 50.3211 1 280.44V421.56C1 651.679 50.3212 701 280.44 701H421.56C651.679 701 701 651.679 701 421.56V280.44C701 50.3211 651.679 1 421.56 1H280.44ZM163 306C138.147 306 118 326.147 118 351C118 375.853 138.147 396 163 396H543C567.853 396 588 375.853 588 351C588 326.147 567.853 306 543 306H163ZM118 524C118 499.147 138.147 479 163 479H343C367.853 479 388 499.147 388 524C388 548.853 367.853 569 343 569H163C138.147 569 118 548.853 118 524ZM163 131C138.147 131 118 151.147 118 176C118 200.853 138.147 221 163 221H408C432.853 221 453 200.853 453 176C453 151.147 432.853 131 408 131H163Z" fill="currentColor"/>
<path d="M2 280.44C2 222.933 5.08266 176.79 13.2782 139.913C21.4713 103.048 34.7608 75.5043 55.1326 55.1325C75.5043 34.7608 103.048 21.4713 139.913 13.2782C176.79 5.08265 222.933 2 280.44 2V0C222.887 0 176.571 3.08249 139.479 11.3258C102.376 19.5717 74.4417 32.9949 53.7183 53.7183C32.995 74.4417 19.5717 102.376 11.3259 139.479C3.08249 176.571 0 222.887 0 280.44H2ZM2 421.56V280.44H0V421.56H2ZM280.44 700C222.933 700 176.79 696.917 139.913 688.722C103.048 680.529 75.5043 667.239 55.1326 646.867C34.7608 626.496 21.4713 598.952 13.2782 562.087C5.08266 525.21 2 479.067 2 421.56H0C0 479.113 3.08249 525.429 11.3259 562.521C19.5717 599.624 32.995 627.558 53.7183 648.282C74.4417 669.005 102.376 682.428 139.479 690.674C176.571 698.918 222.887 702 280.44 702V700ZM421.56 700H280.44V702H421.56V700ZM700 421.56C700 479.067 696.917 525.21 688.722 562.087C680.529 598.952 667.239 626.496 646.867 646.867C626.496 667.239 598.952 680.529 562.087 688.722C525.21 696.917 479.067 700 421.56 700V702C479.113 702 525.429 698.918 562.521 690.674C599.624 682.428 627.558 669.005 648.282 648.282C669.005 627.558 682.428 599.624 690.674 562.521C698.918 525.429 702 479.113 702 421.56H700ZM700 280.44V421.56H702V280.44H700ZM421.56 2C479.067 2 525.21 5.08265 562.087 13.2782C598.952 21.4713 626.496 34.7608 646.867 55.1325C667.239 75.5043 680.529 103.048 688.722 139.913C696.917 176.79 700 222.933 700 280.44H702C702 222.887 698.918 176.571 690.674 139.479C682.428 102.376 669.005 74.4417 648.282 53.7183C627.558 32.9949 599.624 19.5717 562.521 11.3258C525.429 3.08249 479.113 0 421.56 0V2ZM280.44 2H421.56V0H280.44V2ZM119 351C119 326.699 138.699 307 163 307V305C137.595 305 117 325.595 117 351H119ZM163 395C138.699 395 119 375.301 119 351H117C117 376.405 137.595 397 163 397V395ZM543 395H163V397H543V395ZM587 351C587 375.301 567.301 395 543 395V397C568.405 397 589 376.405 589 351H587ZM543 307C567.301 307 587 326.699 587 351H589C589 325.595 568.405 305 543 305V307ZM163 307H543V305H163V307ZM163 478C137.595 478 117 498.595 117 524H119C119 499.699 138.699 480 163 480V478ZM343 478H163V480H343V478ZM389 524C389 498.595 368.405 478 343 478V480C367.301 480 387 499.699 387 524H389ZM343 570C368.405 570 389 549.405 389 524H387C387 548.3 367.301 568 343 568V570ZM163 570H343V568H163V570ZM117 524C117 549.405 137.595 570 163 570V568C138.699 568 119 548.3 119 524H117ZM119 176C119 151.699 138.699 132 163 132V130C137.595 130 117 150.595 117 176H119ZM163 220C138.699 220 119 200.301 119 176H117C117 201.405 137.595 222 163 222V220ZM408 220H163V222H408V220ZM452 176C452 200.301 432.301 220 408 220V222C433.405 222 454 201.405 454 176H452ZM408 132C432.301 132 452 151.699 452 176H454C454 150.595 433.405 130 408 130V132ZM163 132H408V130H163V132Z" fill="currentColor" mask="url(#path-2-outside-1_2003_160)"/>
</svg>
