<svg width="1860" height="1381" viewBox="0 0 1860 1381" fill="none" xmlns="http://www.w3.org/2000/svg">
<path d="M564 280.44C564 50.3211 613.321 1 843.44 1H984.56C1214.68 1 1264 50.3211 1264 280.44V421.56C1264 651.679 1214.68 701 984.56 701H843.44C613.321 701 564 651.679 564 421.56V280.44Z" fill="white"/>
<mask id="path-2-outside-1_2059_7" maskUnits="userSpaceOnUse" x="0.5" y="0" width="1860" height="1381" fill="black">
<rect fill="white" x="0.5" width="1860" height="1381"/>
<path fill-rule="evenodd" clip-rule="evenodd" d="M564 280.44C564 50.3211 613.321 1 843.44 1H984.56C1214.68 1 1264 50.3211 1264 280.44V421.56C1264 651.679 1214.68 701 984.56 701H843.44C613.321 701 564 651.679 564 421.56V280.44ZM681 351C681 326.147 701.147 306 726 306H1106C1130.85 306 1151 326.147 1151 351C1151 375.853 1130.85 396 1106 396H726C701.147 396 681 375.853 681 351ZM726 479C701.147 479 681 499.147 681 524C681 548.853 701.147 569 726 569H906C930.853 569 951 548.853 951 524C951 499.147 930.853 479 906 479H726ZM681 176C681 151.147 701.147 131 726 131H971C995.853 131 1016 151.147 1016 176C1016 200.853 995.853 221 971 221H726C701.147 221 681 200.853 681 176ZM1.5 910V1275H74.5V910H1.5ZM151.215 1015V1275H220.215V1122C220.215 1111 222.715 1101.5 227.715 1093.5C233.048 1085.17 240.382 1078.67 249.715 1074C259.048 1069 269.715 1066.5 281.715 1066.5C297.715 1066.5 309.382 1071.5 316.715 1081.5C324.048 1091.17 327.715 1106.83 327.715 1128.5V1275H396.215V1115C396.215 1078.67 388.715 1052.17 373.715 1035.5C359.048 1018.5 336.048 1010 304.715 1010C286.048 1010 269.548 1013 255.215 1019C241.215 1024.67 228.882 1033.5 218.215 1045.5H217.215L216.715 1015H151.215ZM501.52 1261C515.52 1273.67 538.186 1280 569.52 1280C580.52 1280 591.186 1279.17 601.52 1277.5C611.853 1276.17 622.686 1273.83 634.02 1270.5L628.52 1216C621.853 1218.33 614.52 1220.17 606.52 1221.5C598.853 1222.83 591.52 1223.5 584.52 1223.5C571.52 1223.5 562.52 1220.5 557.52 1214.5C552.52 1208.17 550.02 1197.17 550.02 1181.5V1068.5H634.52V1015H550.02V930H481.02V1015H424.52V1068.5H481.02V1198.5C481.02 1227.5 487.853 1248.33 501.52 1261ZM696.707 910V1275H766.707V910H696.707ZM841.191 1258.5C856.191 1272.83 876.525 1280 902.191 1280C919.191 1280 935.858 1276.83 952.191 1270.5C968.525 1264.17 981.358 1255.67 990.691 1245H991.191L992.191 1275H1057.69V1111C1057.69 1086 1054.19 1066.17 1047.19 1051.5C1040.19 1036.5 1029.02 1025.83 1013.69 1019.5C998.358 1013.17 977.358 1010 950.691 1010C929.691 1010 908.525 1011.83 887.191 1015.5C866.191 1018.83 847.025 1023.67 829.691 1030L838.191 1083C854.191 1076.67 871.191 1071.83 889.191 1068.5C907.191 1064.83 924.525 1063 941.191 1063C953.858 1063 963.525 1064.33 970.191 1067C977.191 1069.33 982.025 1073.67 984.691 1080C987.691 1086.33 989.191 1095.33 989.191 1107H954.691C911.358 1107 877.858 1115.17 854.191 1131.5C830.858 1147.83 819.191 1171 819.191 1201C819.191 1225 826.525 1244.17 841.191 1258.5ZM958.691 1222C949.358 1226 938.858 1228 927.191 1228C913.525 1228 902.858 1225 895.191 1219C887.858 1213 884.191 1204.67 884.191 1194C884.191 1179.67 890.858 1169.17 904.191 1162.5C917.525 1155.5 937.691 1152 964.691 1152H989.191V1181.5C989.191 1190.17 986.358 1198.17 980.691 1205.5C975.358 1212.5 968.025 1218 958.691 1222ZM1185.11 1273.5L1142.11 1380H1214.61L1357.61 1015H1283.61L1220.11 1207.5H1219.11L1156.11 1015L1082.61 1015.5L1185.11 1273.5ZM1411.46 1245C1436.79 1268.33 1472.79 1280 1519.46 1280C1536.13 1280 1552.63 1278.5 1568.96 1275.5C1585.63 1272.83 1600.13 1269 1612.46 1264L1604.46 1211.5C1592.13 1216.17 1577.96 1219.83 1561.96 1222.5C1545.96 1225.17 1530.79 1226.5 1516.46 1226.5C1491.13 1226.5 1472.29 1221 1459.96 1210C1449.75 1200.89 1443.77 1187.56 1442.01 1170H1624.46C1624.79 1167 1624.96 1162.5 1624.96 1156.5C1625.29 1150.5 1625.46 1145.17 1625.46 1140.5C1625.46 1098.83 1614.79 1066.67 1593.46 1044C1572.46 1021.33 1542.46 1010 1503.46 1010C1463.13 1010 1431.46 1022 1408.46 1046C1385.46 1070 1373.96 1103 1373.96 1145C1373.96 1188.33 1386.46 1221.67 1411.46 1245ZM1442.19 1122.5C1443.95 1104.35 1448.87 1090.18 1456.96 1080C1467.29 1066.67 1482.79 1060 1503.46 1060C1523.13 1060 1537.63 1066.33 1546.96 1079C1554.74 1089.19 1559.38 1103.69 1560.91 1122.5H1442.19ZM1743.09 1015H1677.09V1275H1746.59V1155C1746.59 1139 1751.59 1124.5 1761.59 1111.5C1771.59 1098.17 1785.09 1087.67 1802.09 1080C1819.09 1072.33 1837.93 1068.5 1858.59 1068.5V1010C1843.59 1010 1828.93 1012.17 1814.59 1016.5C1800.59 1020.5 1787.59 1026.5 1775.59 1034.5C1763.93 1042.17 1753.76 1051.83 1745.09 1063.5H1743.59L1743.09 1015Z"/>
</mask>
<path fill-rule="evenodd" clip-rule="evenodd" d="M564 280.44C564 50.3211 613.321 1 843.44 1H984.56C1214.68 1 1264 50.3211 1264 280.44V421.56C1264 651.679 1214.68 701 984.56 701H843.44C613.321 701 564 651.679 564 421.56V280.44ZM681 351C681 326.147 701.147 306 726 306H1106C1130.85 306 1151 326.147 1151 351C1151 375.853 1130.85 396 1106 396H726C701.147 396 681 375.853 681 351ZM726 479C701.147 479 681 499.147 681 524C681 548.853 701.147 569 726 569H906C930.853 569 951 548.853 951 524C951 499.147 930.853 479 906 479H726ZM681 176C681 151.147 701.147 131 726 131H971C995.853 131 1016 151.147 1016 176C1016 200.853 995.853 221 971 221H726C701.147 221 681 200.853 681 176ZM1.5 910V1275H74.5V910H1.5ZM151.215 1015V1275H220.215V1122C220.215 1111 222.715 1101.5 227.715 1093.5C233.048 1085.17 240.382 1078.67 249.715 1074C259.048 1069 269.715 1066.5 281.715 1066.5C297.715 1066.5 309.382 1071.5 316.715 1081.5C324.048 1091.17 327.715 1106.83 327.715 1128.5V1275H396.215V1115C396.215 1078.67 388.715 1052.17 373.715 1035.5C359.048 1018.5 336.048 1010 304.715 1010C286.048 1010 269.548 1013 255.215 1019C241.215 1024.67 228.882 1033.5 218.215 1045.5H217.215L216.715 1015H151.215ZM501.52 1261C515.52 1273.67 538.186 1280 569.52 1280C580.52 1280 591.186 1279.17 601.52 1277.5C611.853 1276.17 622.686 1273.83 634.02 1270.5L628.52 1216C621.853 1218.33 614.52 1220.17 606.52 1221.5C598.853 1222.83 591.52 1223.5 584.52 1223.5C571.52 1223.5 562.52 1220.5 557.52 1214.5C552.52 1208.17 550.02 1197.17 550.02 1181.5V1068.5H634.52V1015H550.02V930H481.02V1015H424.52V1068.5H481.02V1198.5C481.02 1227.5 487.853 1248.33 501.52 1261ZM696.707 910V1275H766.707V910H696.707ZM841.191 1258.5C856.191 1272.83 876.525 1280 902.191 1280C919.191 1280 935.858 1276.83 952.191 1270.5C968.525 1264.17 981.358 1255.67 990.691 1245H991.191L992.191 1275H1057.69V1111C1057.69 1086 1054.19 1066.17 1047.19 1051.5C1040.19 1036.5 1029.02 1025.83 1013.69 1019.5C998.358 1013.17 977.358 1010 950.691 1010C929.691 1010 908.525 1011.83 887.191 1015.5C866.191 1018.83 847.025 1023.67 829.691 1030L838.191 1083C854.191 1076.67 871.191 1071.83 889.191 1068.5C907.191 1064.83 924.525 1063 941.191 1063C953.858 1063 963.525 1064.33 970.191 1067C977.191 1069.33 982.025 1073.67 984.691 1080C987.691 1086.33 989.191 1095.33 989.191 1107H954.691C911.358 1107 877.858 1115.17 854.191 1131.5C830.858 1147.83 819.191 1171 819.191 1201C819.191 1225 826.525 1244.17 841.191 1258.5ZM958.691 1222C949.358 1226 938.858 1228 927.191 1228C913.525 1228 902.858 1225 895.191 1219C887.858 1213 884.191 1204.67 884.191 1194C884.191 1179.67 890.858 1169.17 904.191 1162.5C917.525 1155.5 937.691 1152 964.691 1152H989.191V1181.5C989.191 1190.17 986.358 1198.17 980.691 1205.5C975.358 1212.5 968.025 1218 958.691 1222ZM1185.11 1273.5L1142.11 1380H1214.61L1357.61 1015H1283.61L1220.11 1207.5H1219.11L1156.11 1015L1082.61 1015.5L1185.11 1273.5ZM1411.46 1245C1436.79 1268.33 1472.79 1280 1519.46 1280C1536.13 1280 1552.63 1278.5 1568.96 1275.5C1585.63 1272.83 1600.13 1269 1612.46 1264L1604.46 1211.5C1592.13 1216.17 1577.96 1219.83 1561.96 1222.5C1545.96 1225.17 1530.79 1226.5 1516.46 1226.5C1491.13 1226.5 1472.29 1221 1459.96 1210C1449.75 1200.89 1443.77 1187.56 1442.01 1170H1624.46C1624.79 1167 1624.96 1162.5 1624.96 1156.5C1625.29 1150.5 1625.46 1145.17 1625.46 1140.5C1625.46 1098.83 1614.79 1066.67 1593.46 1044C1572.46 1021.33 1542.46 1010 1503.46 1010C1463.13 1010 1431.46 1022 1408.46 1046C1385.46 1070 1373.96 1103 1373.96 1145C1373.96 1188.33 1386.46 1221.67 1411.46 1245ZM1442.19 1122.5C1443.95 1104.35 1448.87 1090.18 1456.96 1080C1467.29 1066.67 1482.79 1060 1503.46 1060C1523.13 1060 1537.63 1066.33 1546.96 1079C1554.74 1089.19 1559.38 1103.69 1560.91 1122.5H1442.19ZM1743.09 1015H1677.09V1275H1746.59V1155C1746.59 1139 1751.59 1124.5 1761.59 1111.5C1771.59 1098.17 1785.09 1087.67 1802.09 1080C1819.09 1072.33 1837.93 1068.5 1858.59 1068.5V1010C1843.59 1010 1828.93 1012.17 1814.59 1016.5C1800.59 1020.5 1787.59 1026.5 1775.59 1034.5C1763.93 1042.17 1753.76 1051.83 1745.09 1063.5H1743.59L1743.09 1015Z" fill="black"/>
<path d="M1.5 1275H0.5V1276H1.5V1275ZM1.5 910V909H0.5V910H1.5ZM74.5 1275V1276H75.5V1275H74.5ZM74.5 910H75.5V909H74.5V910ZM151.215 1275H150.215V1276H151.215V1275ZM151.215 1015V1014H150.215V1015H151.215ZM220.215 1275V1276H221.215V1275H220.215ZM227.715 1093.5L226.873 1092.96L226.867 1092.97L227.715 1093.5ZM249.715 1074L250.162 1074.89L250.175 1074.89L250.187 1074.88L249.715 1074ZM316.715 1081.5L315.908 1082.09L315.913 1082.1L315.918 1082.1L316.715 1081.5ZM327.715 1275H326.715V1276H327.715V1275ZM396.215 1275V1276H397.215V1275H396.215ZM373.715 1035.5L372.958 1036.15L372.965 1036.16L372.972 1036.17L373.715 1035.5ZM255.215 1019L255.59 1019.93L255.601 1019.92L255.215 1019ZM218.215 1045.5V1046.5H218.664L218.962 1046.16L218.215 1045.5ZM217.215 1045.5L216.215 1045.52L216.231 1046.5H217.215V1045.5ZM216.715 1015L217.715 1014.98L217.699 1014H216.715V1015ZM501.52 1261L500.84 1261.73L500.849 1261.74L501.52 1261ZM601.52 1277.5L601.392 1276.51L601.376 1276.51L601.36 1276.51L601.52 1277.5ZM634.02 1270.5L634.302 1271.46L635.098 1271.23L635.014 1270.4L634.02 1270.5ZM628.52 1216L629.514 1215.9L629.387 1214.64L628.189 1215.06L628.52 1216ZM606.52 1221.5L606.355 1220.51L606.348 1220.51L606.52 1221.5ZM557.52 1214.5L556.735 1215.12L556.743 1215.13L556.751 1215.14L557.52 1214.5ZM550.02 1068.5V1067.5H549.02V1068.5H550.02ZM634.52 1068.5V1069.5H635.52V1068.5H634.52ZM634.52 1015H635.52V1014H634.52V1015ZM550.02 1015H549.02V1016H550.02V1015ZM550.02 930H551.02V929H550.02V930ZM481.02 930V929H480.02V930H481.02ZM481.02 1015V1016H482.02V1015H481.02ZM424.52 1015V1014H423.52V1015H424.52ZM424.52 1068.5H423.52V1069.5H424.52V1068.5ZM481.02 1068.5H482.02V1067.5H481.02V1068.5ZM696.707 1275H695.707V1276H696.707V1275ZM696.707 910V909H695.707V910H696.707ZM766.707 1275V1276H767.707V1275H766.707ZM766.707 910H767.707V909H766.707V910ZM841.191 1258.5L840.492 1259.22L840.501 1259.22L841.191 1258.5ZM990.691 1245V1244H990.238L989.939 1244.34L990.691 1245ZM991.191 1245L992.191 1244.97L992.159 1244H991.191V1245ZM992.191 1275L991.192 1275.03L991.224 1276H992.191V1275ZM1057.69 1275V1276H1058.69V1275H1057.69ZM1047.19 1051.5L1046.29 1051.92L1046.29 1051.93L1047.19 1051.5ZM1013.69 1019.5L1013.31 1020.42L1013.31 1020.42L1013.69 1019.5ZM887.191 1015.5L887.348 1016.49L887.361 1016.49L887.191 1015.5ZM829.691 1030L829.348 1029.06L828.573 1029.34L828.704 1030.16L829.691 1030ZM838.191 1083L837.204 1083.16L837.401 1084.39L838.559 1083.93L838.191 1083ZM889.191 1068.5L889.373 1069.48L889.382 1069.48L889.391 1069.48L889.191 1068.5ZM970.191 1067L969.82 1067.93L969.847 1067.94L969.875 1067.95L970.191 1067ZM984.691 1080L983.77 1080.39L983.778 1080.41L983.788 1080.43L984.691 1080ZM989.191 1107V1108H990.191V1107H989.191ZM854.191 1131.5L853.623 1130.68L853.618 1130.68L854.191 1131.5ZM895.191 1219L894.558 1219.77L894.567 1219.78L894.575 1219.79L895.191 1219ZM904.191 1162.5L904.639 1163.39L904.647 1163.39L904.656 1163.39L904.191 1162.5ZM989.191 1152H990.191V1151H989.191V1152ZM980.691 1205.5L979.9 1204.89L979.896 1204.89L980.691 1205.5ZM1142.11 1380L1141.18 1379.63L1140.62 1381H1142.11V1380ZM1185.11 1273.5L1186.03 1273.87L1186.18 1273.5L1186.03 1273.13L1185.11 1273.5ZM1214.61 1380V1381H1215.29L1215.54 1380.36L1214.61 1380ZM1357.61 1015L1358.54 1015.36L1359.07 1014H1357.61V1015ZM1283.61 1015V1014H1282.88L1282.66 1014.69L1283.61 1015ZM1220.11 1207.5V1208.5H1220.83L1221.06 1207.81L1220.11 1207.5ZM1219.11 1207.5L1218.16 1207.81L1218.38 1208.5H1219.11V1207.5ZM1156.11 1015L1157.06 1014.69L1156.83 1014L1156.1 1014L1156.11 1015ZM1082.61 1015.5L1082.6 1014.5L1081.14 1014.51L1081.68 1015.87L1082.61 1015.5ZM1411.46 1245L1410.78 1245.73L1410.78 1245.74L1411.46 1245ZM1568.96 1275.5L1568.8 1274.51L1568.79 1274.51L1568.78 1274.52L1568.96 1275.5ZM1612.46 1264L1612.84 1264.93L1613.57 1264.63L1613.45 1263.85L1612.46 1264ZM1604.46 1211.5L1605.45 1211.35L1605.26 1210.13L1604.11 1210.56L1604.46 1211.5ZM1459.96 1210L1460.63 1209.25L1460.63 1209.25L1459.96 1210ZM1442.01 1170V1169H1440.9L1441.01 1170.1L1442.01 1170ZM1624.46 1170V1171H1625.36L1625.45 1170.11L1624.46 1170ZM1624.96 1156.5L1623.96 1156.44L1623.96 1156.47V1156.5H1624.96ZM1593.46 1044L1592.73 1044.68L1592.73 1044.69L1593.46 1044ZM1456.96 1080L1457.74 1080.62L1457.75 1080.61L1456.96 1080ZM1442.19 1122.5L1441.19 1122.4L1441.09 1123.5H1442.19V1122.5ZM1546.96 1079L1546.16 1079.59L1546.16 1079.6L1546.17 1079.61L1546.96 1079ZM1560.91 1122.5V1123.5H1561.99L1561.9 1122.42L1560.91 1122.5ZM1677.09 1015V1014H1676.09V1015H1677.09ZM1743.09 1015L1744.09 1014.99L1744.08 1014H1743.09V1015ZM1677.09 1275H1676.09V1276H1677.09V1275ZM1746.59 1275V1276H1747.59V1275H1746.59ZM1761.59 1111.5L1762.39 1112.11L1762.39 1112.1L1761.59 1111.5ZM1858.59 1068.5V1069.5H1859.59V1068.5H1858.59ZM1858.59 1010H1859.59V1009H1858.59V1010ZM1814.59 1016.5L1814.87 1017.46L1814.88 1017.46L1814.88 1017.46L1814.59 1016.5ZM1775.59 1034.5L1776.14 1035.34L1776.15 1035.33L1775.59 1034.5ZM1745.09 1063.5V1064.5H1745.6L1745.9 1064.1L1745.09 1063.5ZM1743.59 1063.5L1742.59 1063.51L1742.6 1064.5H1743.59V1063.5ZM843.44 0C785.887 0 739.571 3.08249 702.479 11.3258C665.376 19.5717 637.442 32.9949 616.718 53.7183C595.995 74.4417 582.572 102.376 574.326 139.479C566.082 176.571 563 222.887 563 280.44H565C565 222.933 568.083 176.79 576.278 139.913C584.471 103.048 597.761 75.5043 618.133 55.1325C638.504 34.7608 666.048 21.4713 702.913 13.2782C739.79 5.08265 785.933 2 843.44 2V0ZM984.56 0H843.44V2H984.56V0ZM1265 280.44C1265 222.887 1261.92 176.571 1253.67 139.479C1245.43 102.376 1232.01 74.4417 1211.28 53.7183C1190.56 32.9949 1162.62 19.5717 1125.52 11.3258C1088.43 3.08249 1042.11 0 984.56 0V2C1042.07 2 1088.21 5.08265 1125.09 13.2782C1161.95 21.4713 1189.5 34.7608 1209.87 55.1325C1230.24 75.5043 1243.53 103.048 1251.72 139.913C1259.92 176.79 1263 222.933 1263 280.44H1265ZM1265 421.56V280.44H1263V421.56H1265ZM984.56 702C1042.11 702 1088.43 698.918 1125.52 690.674C1162.62 682.428 1190.56 669.005 1211.28 648.282C1232.01 627.558 1245.43 599.624 1253.67 562.521C1261.92 525.429 1265 479.113 1265 421.56H1263C1263 479.067 1259.92 525.21 1251.72 562.087C1243.53 598.952 1230.24 626.496 1209.87 646.867C1189.5 667.239 1161.95 680.529 1125.09 688.722C1088.21 696.917 1042.07 700 984.56 700V702ZM843.44 702H984.56V700H843.44V702ZM563 421.56C563 479.113 566.082 525.429 574.326 562.521C582.572 599.624 595.995 627.558 616.718 648.282C637.442 669.005 665.376 682.428 702.479 690.674C739.571 698.918 785.887 702 843.44 702V700C785.933 700 739.79 696.917 702.913 688.722C666.048 680.529 638.504 667.239 618.133 646.867C597.761 626.496 584.471 598.952 576.278 562.087C568.083 525.21 565 479.067 565 421.56H563ZM563 280.44V421.56H565V280.44H563ZM726 305C700.595 305 680 325.595 680 351H682C682 326.699 701.7 307 726 307V305ZM1106 305H726V307H1106V305ZM1152 351C1152 325.595 1131.41 305 1106 305V307C1130.3 307 1150 326.699 1150 351H1152ZM1106 397C1131.41 397 1152 376.405 1152 351H1150C1150 375.301 1130.3 395 1106 395V397ZM726 397H1106V395H726V397ZM680 351C680 376.405 700.595 397 726 397V395C701.7 395 682 375.301 682 351H680ZM682 524C682 499.699 701.7 480 726 480V478C700.595 478 680 498.595 680 524H682ZM726 568C701.7 568 682 548.3 682 524H680C680 549.405 700.595 570 726 570V568ZM906 568H726V570H906V568ZM950 524C950 548.3 930.3 568 906 568V570C931.405 570 952 549.405 952 524H950ZM906 480C930.3 480 950 499.699 950 524H952C952 498.595 931.405 478 906 478V480ZM726 480H906V478H726V480ZM726 130C700.595 130 680 150.595 680 176H682C682 151.699 701.7 132 726 132V130ZM971 130H726V132H971V130ZM1017 176C1017 150.595 996.405 130 971 130V132C995.3 132 1015 151.699 1015 176H1017ZM971 222C996.405 222 1017 201.405 1017 176H1015C1015 200.301 995.3 220 971 220V222ZM726 222H971V220H726V222ZM680 176C680 201.405 700.595 222 726 222V220C701.7 220 682 200.301 682 176H680ZM2.5 1275V910H0.5V1275H2.5ZM74.5 1274H1.5V1276H74.5V1274ZM73.5 910V1275H75.5V910H73.5ZM1.5 911H74.5V909H1.5V911ZM152.215 1275V1015H150.215V1275H152.215ZM220.215 1274H151.215V1276H220.215V1274ZM219.215 1122V1275H221.215V1122H219.215ZM226.867 1092.97C221.752 1101.15 219.215 1110.84 219.215 1122H221.215C221.215 1111.16 223.678 1101.85 228.563 1094.03L226.867 1092.97ZM249.268 1073.11C239.782 1077.85 232.309 1084.47 226.873 1092.96L228.557 1094.04C233.788 1085.87 240.981 1079.48 250.162 1074.89L249.268 1073.11ZM281.715 1065.5C269.572 1065.5 258.74 1068.03 249.243 1073.12L250.187 1074.88C259.357 1069.97 269.857 1067.5 281.715 1067.5V1065.5ZM317.521 1080.91C309.946 1070.58 297.932 1065.5 281.715 1065.5V1067.5C297.498 1067.5 308.817 1072.42 315.908 1082.09L317.521 1080.91ZM328.715 1128.5C328.715 1106.77 325.046 1090.83 317.512 1080.9L315.918 1082.1C323.051 1091.51 326.715 1106.9 326.715 1128.5H328.715ZM328.715 1275V1128.5H326.715V1275H328.715ZM396.215 1274H327.715V1276H396.215V1274ZM395.215 1115V1275H397.215V1115H395.215ZM372.972 1036.17C387.73 1052.57 395.215 1078.77 395.215 1115H397.215C397.215 1078.56 389.7 1051.77 374.458 1034.83L372.972 1036.17ZM304.715 1011C335.877 1011 358.547 1019.45 372.958 1036.15L374.472 1034.85C359.549 1017.55 336.219 1009 304.715 1009V1011ZM255.601 1019.92C269.79 1013.98 286.155 1011 304.715 1011V1009C285.942 1009 269.306 1012.02 254.829 1018.08L255.601 1019.92ZM218.962 1046.16C229.533 1034.27 241.742 1025.53 255.59 1019.93L254.84 1018.07C240.688 1023.8 228.23 1032.73 217.467 1044.84L218.962 1046.16ZM217.215 1046.5H218.215V1044.5H217.215V1046.5ZM215.715 1015.02L216.215 1045.52L218.215 1045.48L217.715 1014.98L215.715 1015.02ZM151.215 1016H216.715V1014H151.215V1016ZM569.52 1279C538.281 1279 515.918 1272.68 502.19 1260.26L500.849 1261.74C515.121 1274.65 538.091 1281 569.52 1281V1279ZM601.36 1276.51C591.082 1278.17 580.469 1279 569.52 1279V1281C580.57 1281 591.29 1280.16 601.679 1278.49L601.36 1276.51ZM633.737 1269.54C622.448 1272.86 611.666 1275.18 601.392 1276.51L601.648 1278.49C612.039 1277.15 622.924 1274.81 634.302 1271.46L633.737 1269.54ZM627.525 1216.1L633.025 1270.6L635.014 1270.4L629.514 1215.9L627.525 1216.1ZM606.684 1222.49C614.732 1221.14 622.122 1219.3 628.85 1216.94L628.189 1215.06C621.584 1217.37 614.307 1219.19 606.355 1220.51L606.684 1222.49ZM584.52 1224.5C591.583 1224.5 598.974 1223.83 606.691 1222.49L606.348 1220.51C598.732 1221.84 591.456 1222.5 584.52 1222.5V1224.5ZM556.751 1215.14C562.037 1221.48 571.415 1224.5 584.52 1224.5V1222.5C571.624 1222.5 563.002 1219.52 558.288 1213.86L556.751 1215.14ZM549.02 1181.5C549.02 1197.21 551.514 1208.51 556.735 1215.12L558.304 1213.88C553.525 1207.83 551.02 1197.12 551.02 1181.5H549.02ZM549.02 1068.5V1181.5H551.02V1068.5H549.02ZM634.52 1067.5H550.02V1069.5H634.52V1067.5ZM633.52 1015V1068.5H635.52V1015H633.52ZM550.02 1016H634.52V1014H550.02V1016ZM549.02 930V1015H551.02V930H549.02ZM481.02 931H550.02V929H481.02V931ZM482.02 1015V930H480.02V1015H482.02ZM424.52 1016H481.02V1014H424.52V1016ZM425.52 1068.5V1015H423.52V1068.5H425.52ZM481.02 1067.5H424.52V1069.5H481.02V1067.5ZM482.02 1198.5V1068.5H480.02V1198.5H482.02ZM502.199 1260.27C488.827 1247.87 482.02 1227.37 482.02 1198.5H480.02C480.02 1227.63 486.879 1248.79 500.84 1261.73L502.199 1260.27ZM697.707 1275V910H695.707V1275H697.707ZM766.707 1274H696.707V1276H766.707V1274ZM765.707 910V1275H767.707V910H765.707ZM696.707 911H766.707V909H696.707V911ZM902.191 1279C876.718 1279 856.654 1271.89 841.882 1257.78L840.501 1259.22C855.728 1273.77 876.332 1281 902.191 1281V1279ZM951.83 1269.57C935.608 1275.86 919.064 1279 902.191 1279V1281C919.319 1281 936.108 1277.81 952.553 1271.43L951.83 1269.57ZM989.939 1244.34C980.734 1254.86 968.048 1263.28 951.83 1269.57L952.553 1271.43C969.002 1265.05 981.982 1256.47 991.444 1245.66L989.939 1244.34ZM991.191 1244H990.691V1246H991.191V1244ZM993.191 1274.97L992.191 1244.97L990.192 1245.03L991.192 1275.03L993.191 1274.97ZM1057.69 1274H992.191V1276H1057.69V1274ZM1056.69 1111V1275H1058.69V1111H1056.69ZM1046.29 1051.93C1053.2 1066.41 1056.69 1086.08 1056.69 1111H1058.69C1058.69 1085.92 1055.18 1065.92 1048.09 1051.07L1046.29 1051.93ZM1013.31 1020.42C1028.41 1026.66 1039.39 1037.15 1046.29 1051.92L1048.1 1051.08C1040.99 1035.85 1029.64 1025 1014.07 1018.58L1013.31 1020.42ZM950.691 1011C977.297 1011 998.149 1014.16 1013.31 1020.42L1014.07 1018.58C998.568 1012.17 977.419 1009 950.691 1009V1011ZM887.361 1016.49C908.64 1012.83 929.75 1011 950.691 1011V1009C929.633 1009 908.41 1010.84 887.022 1014.51L887.361 1016.49ZM830.035 1030.94C847.299 1024.63 866.402 1019.81 887.348 1016.49L887.035 1014.51C865.98 1017.85 846.75 1022.7 829.348 1029.06L830.035 1030.94ZM839.179 1082.84L830.679 1029.84L828.704 1030.16L837.204 1083.16L839.179 1082.84ZM889.009 1067.52C870.95 1070.86 853.887 1075.71 837.823 1082.07L838.559 1083.93C854.496 1077.62 871.433 1072.81 889.373 1069.48L889.009 1067.52ZM941.191 1062C924.451 1062 907.051 1063.84 888.992 1067.52L889.391 1069.48C907.332 1065.83 924.598 1064 941.191 1064V1062ZM970.563 1066.07C963.72 1063.33 953.903 1062 941.191 1062V1064C953.813 1064 963.329 1065.33 969.82 1067.93L970.563 1066.07ZM985.613 1079.61C982.826 1072.99 977.758 1068.47 970.508 1066.05L969.875 1067.95C976.625 1070.2 981.224 1074.34 983.77 1080.39L985.613 1079.61ZM990.191 1107C990.191 1095.27 988.687 1086.1 985.595 1079.57L983.788 1080.43C986.696 1086.57 988.191 1095.4 988.191 1107H990.191ZM954.691 1108H989.191V1106H954.691V1108ZM854.759 1132.32C878.194 1116.15 911.464 1108 954.691 1108V1106C911.252 1106 877.522 1114.18 853.623 1130.68L854.759 1132.32ZM820.191 1201C820.191 1171.31 831.715 1148.45 854.765 1132.32L853.618 1130.68C830.001 1147.21 818.191 1170.69 818.191 1201H820.191ZM841.89 1257.78C827.449 1243.67 820.191 1224.78 820.191 1201H818.191C818.191 1225.22 825.6 1244.66 840.492 1259.22L841.89 1257.78ZM927.191 1229C938.973 1229 949.61 1226.98 959.085 1222.92L958.297 1221.08C949.106 1225.02 938.743 1227 927.191 1227V1229ZM894.575 1219.79C902.477 1225.97 913.39 1229 927.191 1229V1227C913.66 1227 903.24 1224.03 895.808 1218.21L894.575 1219.79ZM883.191 1194C883.191 1204.92 886.962 1213.56 894.558 1219.77L895.825 1218.23C888.755 1212.44 885.191 1204.41 885.191 1194H883.191ZM903.744 1161.61C896.948 1165 891.796 1169.41 888.347 1174.84C884.897 1180.27 883.191 1186.67 883.191 1194H885.191C885.191 1186.99 886.819 1180.98 890.036 1175.91C893.254 1170.84 898.102 1166.66 904.639 1163.39L903.744 1161.61ZM964.691 1151C937.639 1151 917.276 1154.5 903.727 1161.61L904.656 1163.39C917.773 1156.5 937.744 1153 964.691 1153V1151ZM989.191 1151H964.691V1153H989.191V1151ZM990.191 1181.5V1152H988.191V1181.5H990.191ZM981.483 1206.11C987.275 1198.62 990.191 1190.4 990.191 1181.5H988.191C988.191 1189.93 985.442 1197.72 979.9 1204.89L981.483 1206.11ZM959.085 1222.92C968.553 1218.86 976.034 1213.26 981.487 1206.11L979.896 1204.89C974.682 1211.74 967.497 1217.14 958.297 1221.08L959.085 1222.92ZM1143.03 1380.37L1186.03 1273.87L1184.18 1273.13L1141.18 1379.63L1143.03 1380.37ZM1214.61 1379H1142.11V1381H1214.61V1379ZM1356.67 1014.64L1213.67 1379.64L1215.54 1380.36L1358.54 1015.36L1356.67 1014.64ZM1283.61 1016H1357.61V1014H1283.61V1016ZM1221.06 1207.81L1284.56 1015.31L1282.66 1014.69L1219.16 1207.19L1221.06 1207.81ZM1219.11 1208.5H1220.11V1206.5H1219.11V1208.5ZM1155.16 1015.31L1218.16 1207.81L1220.06 1207.19L1157.06 1014.69L1155.16 1015.31ZM1082.61 1016.5L1156.11 1016L1156.1 1014L1082.6 1014.5L1082.61 1016.5ZM1186.03 1273.13L1083.53 1015.13L1081.68 1015.87L1184.18 1273.87L1186.03 1273.13ZM1519.46 1279C1472.95 1279 1437.23 1267.38 1412.14 1244.26L1410.78 1245.74C1436.36 1269.29 1472.63 1281 1519.46 1281V1279ZM1568.78 1274.52C1552.51 1277.51 1536.07 1279 1519.46 1279V1281C1536.19 1281 1552.75 1279.49 1569.14 1276.48L1568.78 1274.52ZM1612.09 1263.07C1599.84 1268.04 1585.41 1271.85 1568.8 1274.51L1569.12 1276.49C1585.84 1273.81 1600.42 1269.96 1612.84 1264.93L1612.09 1263.07ZM1603.47 1211.65L1611.47 1264.15L1613.45 1263.85L1605.45 1211.35L1603.47 1211.65ZM1562.13 1223.49C1578.18 1220.81 1592.41 1217.13 1604.81 1212.44L1604.11 1210.56C1591.85 1215.2 1577.75 1218.86 1561.8 1221.51L1562.13 1223.49ZM1516.46 1227.5C1530.86 1227.5 1546.08 1226.16 1562.13 1223.49L1561.8 1221.51C1545.84 1224.17 1530.73 1225.5 1516.46 1225.5V1227.5ZM1459.3 1210.75C1471.89 1221.98 1491.01 1227.5 1516.46 1227.5V1225.5C1491.25 1225.5 1472.7 1220.02 1460.63 1209.25L1459.3 1210.75ZM1441.01 1170.1C1442.79 1187.83 1448.85 1201.43 1459.3 1210.75L1460.63 1209.25C1450.65 1200.36 1444.74 1187.29 1443 1169.9L1441.01 1170.1ZM1624.46 1169H1442.01V1171H1624.46V1169ZM1623.96 1156.5C1623.96 1162.49 1623.79 1166.95 1623.47 1169.89L1625.45 1170.11C1625.79 1167.05 1625.96 1162.51 1625.96 1156.5H1623.96ZM1624.46 1140.5C1624.46 1145.14 1624.3 1150.46 1623.96 1156.44L1625.96 1156.56C1626.29 1150.54 1626.46 1145.19 1626.46 1140.5H1624.46ZM1592.73 1044.69C1613.84 1067.11 1624.46 1099 1624.46 1140.5H1626.46C1626.46 1098.67 1615.75 1066.22 1594.19 1043.31L1592.73 1044.69ZM1503.46 1011C1542.26 1011 1571.96 1022.27 1592.73 1044.68L1594.19 1043.32C1572.96 1020.4 1542.66 1009 1503.46 1009V1011ZM1409.18 1046.69C1431.96 1022.93 1463.34 1011 1503.46 1011V1009C1462.92 1009 1430.97 1021.07 1407.74 1045.31L1409.18 1046.69ZM1374.96 1145C1374.96 1103.19 1386.41 1070.46 1409.18 1046.69L1407.74 1045.31C1384.52 1069.54 1372.96 1102.81 1372.96 1145H1374.96ZM1412.14 1244.27C1387.4 1221.17 1374.96 1188.13 1374.96 1145H1372.96C1372.96 1188.53 1385.52 1222.16 1410.78 1245.73L1412.14 1244.27ZM1456.18 1079.38C1447.93 1089.76 1442.96 1104.13 1441.19 1122.4L1443.19 1122.6C1444.93 1104.56 1449.81 1090.6 1457.74 1080.62L1456.18 1079.38ZM1503.46 1059C1482.56 1059 1466.74 1065.75 1456.17 1079.39L1457.75 1080.61C1467.85 1067.58 1483.03 1061 1503.46 1061V1059ZM1547.77 1078.41C1538.2 1065.42 1523.36 1059 1503.46 1059V1061C1522.9 1061 1537.06 1067.25 1546.16 1079.59L1547.77 1078.41ZM1561.9 1122.42C1560.37 1103.5 1555.69 1088.79 1547.76 1078.39L1546.17 1079.61C1553.78 1089.59 1558.4 1103.87 1559.91 1122.58L1561.9 1122.42ZM1442.19 1123.5H1560.91V1121.5H1442.19V1123.5ZM1677.09 1016H1743.09V1014H1677.09V1016ZM1678.09 1275V1015H1676.09V1275H1678.09ZM1746.59 1274H1677.09V1276H1746.59V1274ZM1745.59 1155V1275H1747.59V1155H1745.59ZM1760.8 1110.89C1750.67 1124.06 1745.59 1138.77 1745.59 1155H1747.59C1747.59 1139.23 1752.52 1124.94 1762.39 1112.11L1760.8 1110.89ZM1801.68 1079.09C1784.55 1086.82 1770.91 1097.42 1760.79 1110.9L1762.39 1112.1C1772.28 1098.92 1785.64 1088.52 1802.5 1080.91L1801.68 1079.09ZM1858.59 1067.5C1837.8 1067.5 1818.83 1071.36 1801.68 1079.09L1802.5 1080.91C1819.36 1073.31 1838.05 1069.5 1858.59 1069.5V1067.5ZM1857.59 1010V1068.5H1859.59V1010H1857.59ZM1814.88 1017.46C1829.12 1013.15 1843.69 1011 1858.59 1011V1009C1843.5 1009 1828.73 1011.18 1814.3 1015.54L1814.88 1017.46ZM1776.15 1035.33C1788.06 1027.39 1800.97 1021.43 1814.87 1017.46L1814.32 1015.54C1800.22 1019.57 1787.13 1025.61 1775.04 1033.67L1776.15 1035.33ZM1745.9 1064.1C1754.5 1052.52 1764.58 1042.94 1776.14 1035.34L1775.04 1033.66C1763.28 1041.4 1753.02 1051.15 1744.29 1062.9L1745.9 1064.1ZM1743.59 1064.5H1745.09V1062.5H1743.59V1064.5ZM1742.09 1015.01L1742.59 1063.51L1744.59 1063.49L1744.09 1014.99L1742.09 1015.01Z" fill="black" mask="url(#path-2-outside-1_2059_7)"/>
</svg>
