<svg width="2822" height="702" viewBox="0 0 2822 702" fill="none" xmlns="http://www.w3.org/2000/svg">
<path d="M1 280.44C1 50.3211 50.3212 1 280.44 1H421.56C651.679 1 701 50.3211 701 280.44V421.56C701 651.679 651.679 701 421.56 701H280.44C50.3212 701 1 651.679 1 421.56V280.44Z" fill="white"/>
<mask id="path-2-outside-1_2003_161" maskUnits="userSpaceOnUse" x="0" y="0" width="2822" height="702" fill="currentColor">
<rect fill="white" width="2822" height="702"/>
<path fill-rule="evenodd" clip-rule="evenodd" d="M1 280.44C1 50.3211 50.3212 1 280.44 1H421.56C651.679 1 701 50.3211 701 280.44V421.56C701 651.679 651.679 701 421.56 701H280.44C50.3212 701 1 651.679 1 421.56V280.44ZM118 351C118 326.147 138.147 306 163 306H543C567.853 306 588 326.147 588 351C588 375.853 567.853 396 543 396H163C138.147 396 118 375.853 118 351ZM163 479C138.147 479 118 499.147 118 524C118 548.853 138.147 569 163 569H343C367.853 569 388 548.853 388 524C388 499.147 367.853 479 343 479H163ZM118 176C118 151.147 138.147 131 163 131H408C432.853 131 453 151.147 453 176C453 200.853 432.853 221 408 221H163C138.147 221 118 200.853 118 176ZM963.5 169V534H1036.5V169H963.5ZM1113.21 274V534H1182.21V381C1182.21 370 1184.71 360.5 1189.71 352.5C1195.05 344.167 1202.38 337.667 1211.71 333C1221.05 328 1231.71 325.5 1243.71 325.5C1259.71 325.5 1271.38 330.5 1278.71 340.5C1286.05 350.167 1289.71 365.833 1289.71 387.5V534H1358.21V374C1358.21 337.667 1350.71 311.167 1335.71 294.5C1321.05 277.5 1298.05 269 1266.71 269C1248.05 269 1231.55 272 1217.21 278C1203.21 283.667 1190.88 292.5 1180.21 304.5H1179.21L1178.71 274H1113.21ZM1463.52 520C1477.52 532.667 1500.19 539 1531.52 539C1542.52 539 1553.19 538.167 1563.52 536.5C1573.85 535.167 1584.69 532.833 1596.02 529.5L1590.52 475C1583.85 477.333 1576.52 479.167 1568.52 480.5C1560.85 481.833 1553.52 482.5 1546.52 482.5C1533.52 482.5 1524.52 479.5 1519.52 473.5C1514.52 467.167 1512.02 456.167 1512.02 440.5V327.5H1596.52V274H1512.02V189H1443.02V274H1386.52V327.5H1443.02V457.5C1443.02 486.5 1449.85 507.333 1463.52 520ZM1658.71 169V534H1728.71V169H1658.71ZM1803.19 517.5C1818.19 531.833 1838.52 539 1864.19 539C1881.19 539 1897.86 535.833 1914.19 529.5C1930.52 523.167 1943.36 514.667 1952.69 504H1953.19L1954.19 534H2019.69V370C2019.69 345 2016.19 325.167 2009.19 310.5C2002.19 295.5 1991.02 284.833 1975.69 278.5C1960.36 272.167 1939.36 269 1912.69 269C1891.69 269 1870.52 270.833 1849.19 274.5C1828.19 277.833 1809.02 282.667 1791.69 289L1800.19 342C1816.19 335.667 1833.19 330.833 1851.19 327.5C1869.19 323.833 1886.52 322 1903.19 322C1915.86 322 1925.52 323.333 1932.19 326C1939.19 328.333 1944.02 332.667 1946.69 339C1949.69 345.333 1951.19 354.333 1951.19 366H1916.69C1873.36 366 1839.86 374.167 1816.19 390.5C1792.86 406.833 1781.19 430 1781.19 460C1781.19 484 1788.52 503.167 1803.19 517.5ZM1920.69 481C1911.36 485 1900.86 487 1889.19 487C1875.52 487 1864.86 484 1857.19 478C1849.86 472 1846.19 463.667 1846.19 453C1846.19 438.667 1852.86 428.167 1866.19 421.5C1879.52 414.5 1899.69 411 1926.69 411H1951.19V440.5C1951.19 449.167 1948.36 457.167 1942.69 464.5C1937.36 471.5 1930.02 477 1920.69 481ZM2147.11 532.5L2104.11 639H2176.61L2319.61 274H2245.61L2182.11 466.5H2181.11L2118.11 274L2044.61 274.5L2147.11 532.5ZM2373.46 504C2398.79 527.333 2434.79 539 2481.46 539C2498.13 539 2514.63 537.5 2530.96 534.5C2547.63 531.833 2562.13 528 2574.46 523L2566.46 470.5C2554.13 475.167 2539.96 478.833 2523.96 481.5C2507.96 484.167 2492.79 485.5 2478.46 485.5C2453.13 485.5 2434.29 480 2421.96 469C2411.75 459.893 2405.77 446.56 2404.01 429H2586.46C2586.79 426 2586.96 421.5 2586.96 415.5C2587.29 409.5 2587.46 404.167 2587.46 399.5C2587.46 357.833 2576.79 325.667 2555.46 303C2534.46 280.333 2504.46 269 2465.46 269C2425.13 269 2393.46 281 2370.46 305C2347.46 329 2335.96 362 2335.96 404C2335.96 447.333 2348.46 480.667 2373.46 504ZM2404.19 381.5C2405.95 363.347 2410.87 349.18 2418.96 339C2429.29 325.667 2444.79 319 2465.46 319C2485.13 319 2499.63 325.333 2508.96 338C2516.74 348.188 2521.38 362.688 2522.91 381.5H2404.19ZM2705.09 274H2639.09V534H2708.59V414C2708.59 398 2713.59 383.5 2723.59 370.5C2733.59 357.167 2747.09 346.667 2764.09 339C2781.09 331.333 2799.93 327.5 2820.59 327.5V269C2805.59 269 2790.93 271.167 2776.59 275.5C2762.59 279.5 2749.59 285.5 2737.59 293.5C2725.93 301.167 2715.76 310.833 2707.09 322.5H2705.59L2705.09 274Z"/>
</mask>
<path fill-rule="evenodd" clip-rule="evenodd" d="M1 280.44C1 50.3211 50.3212 1 280.44 1H421.56C651.679 1 701 50.3211 701 280.44V421.56C701 651.679 651.679 701 421.56 701H280.44C50.3212 701 1 651.679 1 421.56V280.44ZM118 351C118 326.147 138.147 306 163 306H543C567.853 306 588 326.147 588 351C588 375.853 567.853 396 543 396H163C138.147 396 118 375.853 118 351ZM163 479C138.147 479 118 499.147 118 524C118 548.853 138.147 569 163 569H343C367.853 569 388 548.853 388 524C388 499.147 367.853 479 343 479H163ZM118 176C118 151.147 138.147 131 163 131H408C432.853 131 453 151.147 453 176C453 200.853 432.853 221 408 221H163C138.147 221 118 200.853 118 176ZM963.5 169V534H1036.5V169H963.5ZM1113.21 274V534H1182.21V381C1182.21 370 1184.71 360.5 1189.71 352.5C1195.05 344.167 1202.38 337.667 1211.71 333C1221.05 328 1231.71 325.5 1243.71 325.5C1259.71 325.5 1271.38 330.5 1278.71 340.5C1286.05 350.167 1289.71 365.833 1289.71 387.5V534H1358.21V374C1358.21 337.667 1350.71 311.167 1335.71 294.5C1321.05 277.5 1298.05 269 1266.71 269C1248.05 269 1231.55 272 1217.21 278C1203.21 283.667 1190.88 292.5 1180.21 304.5H1179.21L1178.71 274H1113.21ZM1463.52 520C1477.52 532.667 1500.19 539 1531.52 539C1542.52 539 1553.19 538.167 1563.52 536.5C1573.85 535.167 1584.69 532.833 1596.02 529.5L1590.52 475C1583.85 477.333 1576.52 479.167 1568.52 480.5C1560.85 481.833 1553.52 482.5 1546.52 482.5C1533.52 482.5 1524.52 479.5 1519.52 473.5C1514.52 467.167 1512.02 456.167 1512.02 440.5V327.5H1596.52V274H1512.02V189H1443.02V274H1386.52V327.5H1443.02V457.5C1443.02 486.5 1449.85 507.333 1463.52 520ZM1658.71 169V534H1728.71V169H1658.71ZM1803.19 517.5C1818.19 531.833 1838.52 539 1864.19 539C1881.19 539 1897.86 535.833 1914.19 529.5C1930.52 523.167 1943.36 514.667 1952.69 504H1953.19L1954.19 534H2019.69V370C2019.69 345 2016.19 325.167 2009.19 310.5C2002.19 295.5 1991.02 284.833 1975.69 278.5C1960.36 272.167 1939.36 269 1912.69 269C1891.69 269 1870.52 270.833 1849.19 274.5C1828.19 277.833 1809.02 282.667 1791.69 289L1800.19 342C1816.19 335.667 1833.19 330.833 1851.19 327.5C1869.19 323.833 1886.52 322 1903.19 322C1915.86 322 1925.52 323.333 1932.19 326C1939.19 328.333 1944.02 332.667 1946.69 339C1949.69 345.333 1951.19 354.333 1951.19 366H1916.69C1873.36 366 1839.86 374.167 1816.19 390.5C1792.86 406.833 1781.19 430 1781.19 460C1781.19 484 1788.52 503.167 1803.19 517.5ZM1920.69 481C1911.36 485 1900.86 487 1889.19 487C1875.52 487 1864.86 484 1857.19 478C1849.86 472 1846.19 463.667 1846.19 453C1846.19 438.667 1852.86 428.167 1866.19 421.5C1879.52 414.5 1899.69 411 1926.69 411H1951.19V440.5C1951.19 449.167 1948.36 457.167 1942.69 464.5C1937.36 471.5 1930.02 477 1920.69 481ZM2147.11 532.5L2104.11 639H2176.61L2319.61 274H2245.61L2182.11 466.5H2181.11L2118.11 274L2044.61 274.5L2147.11 532.5ZM2373.46 504C2398.79 527.333 2434.79 539 2481.46 539C2498.13 539 2514.63 537.5 2530.96 534.5C2547.63 531.833 2562.13 528 2574.46 523L2566.46 470.5C2554.13 475.167 2539.96 478.833 2523.96 481.5C2507.96 484.167 2492.79 485.5 2478.46 485.5C2453.13 485.5 2434.29 480 2421.96 469C2411.75 459.893 2405.77 446.56 2404.01 429H2586.46C2586.79 426 2586.96 421.5 2586.96 415.5C2587.29 409.5 2587.46 404.167 2587.46 399.5C2587.46 357.833 2576.79 325.667 2555.46 303C2534.46 280.333 2504.46 269 2465.46 269C2425.13 269 2393.46 281 2370.46 305C2347.46 329 2335.96 362 2335.96 404C2335.96 447.333 2348.46 480.667 2373.46 504ZM2404.19 381.5C2405.95 363.347 2410.87 349.18 2418.96 339C2429.29 325.667 2444.79 319 2465.46 319C2485.13 319 2499.63 325.333 2508.96 338C2516.74 348.188 2521.38 362.688 2522.91 381.5H2404.19ZM2705.09 274H2639.09V534H2708.59V414C2708.59 398 2713.59 383.5 2723.59 370.5C2733.59 357.167 2747.09 346.667 2764.09 339C2781.09 331.333 2799.93 327.5 2820.59 327.5V269C2805.59 269 2790.93 271.167 2776.59 275.5C2762.59 279.5 2749.59 285.5 2737.59 293.5C2725.93 301.167 2715.76 310.833 2707.09 322.5H2705.59L2705.09 274Z" fill="currentColor"/>
<path d="M963.5 534H962.5V535H963.5V534ZM963.5 169V168H962.5V169H963.5ZM1036.5 534V535H1037.5V534H1036.5ZM1036.5 169H1037.5V168H1036.5V169ZM1113.21 534H1112.21V535H1113.21V534ZM1113.21 274V273H1112.21V274H1113.21ZM1182.21 534V535H1183.21V534H1182.21ZM1189.71 352.5L1188.87 351.961L1188.87 351.97L1189.71 352.5ZM1211.71 333L1212.16 333.894L1212.17 333.888L1212.19 333.881L1211.71 333ZM1278.71 340.5L1277.91 341.091L1277.91 341.098L1277.92 341.104L1278.71 340.5ZM1289.71 534H1288.71V535H1289.71V534ZM1358.21 534V535H1359.21V534H1358.21ZM1335.71 294.5L1334.96 295.153L1334.96 295.161L1334.97 295.169L1335.71 294.5ZM1217.21 278L1217.59 278.927L1217.6 278.922L1217.21 278ZM1180.21 304.5V305.5H1180.66L1180.96 305.164L1180.21 304.5ZM1179.21 304.5L1178.21 304.516L1178.23 305.5H1179.21V304.5ZM1178.71 274L1179.71 273.984L1179.7 273H1178.71V274ZM1463.52 520L1462.84 520.733L1462.85 520.742L1463.52 520ZM1563.52 536.5L1563.39 535.508L1563.38 535.51L1563.36 535.513L1563.52 536.5ZM1596.02 529.5L1596.3 530.459L1597.1 530.225L1597.01 529.4L1596.02 529.5ZM1590.52 475L1591.51 474.9L1591.39 473.637L1590.19 474.056L1590.52 475ZM1568.52 480.5L1568.36 479.514L1568.35 479.515L1568.52 480.5ZM1519.52 473.5L1518.73 474.12L1518.74 474.13L1518.75 474.14L1519.52 473.5ZM1512.02 327.5V326.5H1511.02V327.5H1512.02ZM1596.52 327.5V328.5H1597.52V327.5H1596.52ZM1596.52 274H1597.52V273H1596.52V274ZM1512.02 274H1511.02V275H1512.02V274ZM1512.02 189H1513.02V188H1512.02V189ZM1443.02 189V188H1442.02V189H1443.02ZM1443.02 274V275H1444.02V274H1443.02ZM1386.52 274V273H1385.52V274H1386.52ZM1386.52 327.5H1385.52V328.5H1386.52V327.5ZM1443.02 327.5H1444.02V326.5H1443.02V327.5ZM1658.71 534H1657.71V535H1658.71V534ZM1658.71 169V168H1657.71V169H1658.71ZM1728.71 534V535H1729.71V534H1728.71ZM1728.71 169H1729.71V168H1728.71V169ZM1803.19 517.5L1802.49 518.215L1802.5 518.223L1803.19 517.5ZM1952.69 504V503H1952.24L1951.94 503.341L1952.69 504ZM1953.19 504L1954.19 503.967L1954.16 503H1953.19V504ZM1954.19 534L1953.19 534.033L1953.22 535H1954.19V534ZM2019.69 534V535H2020.69V534H2019.69ZM2009.19 310.5L2008.29 310.923L2008.29 310.931L2009.19 310.5ZM1975.69 278.5L1976.07 277.576L1976.07 277.576L1975.69 278.5ZM1849.19 274.5L1849.35 275.488L1849.36 275.486L1849.19 274.5ZM1791.69 289L1791.35 288.061L1790.57 288.344L1790.7 289.158L1791.69 289ZM1800.19 342L1799.2 342.158L1799.4 343.388L1800.56 342.93L1800.19 342ZM1851.19 327.5L1851.37 328.483L1851.38 328.482L1851.39 328.48L1851.19 327.5ZM1932.19 326L1931.82 326.928L1931.85 326.939L1931.88 326.949L1932.19 326ZM1946.69 339L1945.77 339.388L1945.78 339.408L1945.79 339.428L1946.69 339ZM1951.19 366V367H1952.19V366H1951.19ZM1816.19 390.5L1815.62 389.677L1815.62 389.681L1816.19 390.5ZM1857.19 478L1856.56 478.774L1856.57 478.781L1856.58 478.788L1857.19 478ZM1866.19 421.5L1866.64 422.394L1866.65 422.39L1866.66 422.385L1866.19 421.5ZM1951.19 411H1952.19V410H1951.19V411ZM1942.69 464.5L1941.9 463.889L1941.9 463.894L1942.69 464.5ZM2104.11 639L2103.18 638.626L2102.62 640H2104.11V639ZM2147.11 532.5L2148.03 532.874L2148.18 532.503L2148.03 532.131L2147.11 532.5ZM2176.61 639V640H2177.29L2177.54 639.365L2176.61 639ZM2319.61 274L2320.54 274.365L2321.07 273H2319.61V274ZM2245.61 274V273H2244.88L2244.66 273.687L2245.61 274ZM2182.11 466.5V467.5H2182.83L2183.06 466.813L2182.11 466.5ZM2181.11 466.5L2180.16 466.811L2180.38 467.5H2181.11V466.5ZM2118.11 274L2119.06 273.689L2118.83 272.995L2118.1 273L2118.11 274ZM2044.61 274.5L2044.6 273.5L2043.14 273.51L2043.68 274.869L2044.61 274.5ZM2373.46 504L2372.78 504.731L2372.78 504.736L2373.46 504ZM2530.96 534.5L2530.8 533.513L2530.79 533.514L2530.78 533.516L2530.96 534.5ZM2574.46 523L2574.84 523.927L2575.57 523.63L2575.45 522.849L2574.46 523ZM2566.46 470.5L2567.45 470.349L2567.26 469.127L2566.11 469.565L2566.46 470.5ZM2421.96 469L2421.3 469.746L2421.3 469.746L2421.96 469ZM2404.01 429V428H2402.9L2403.01 429.1L2404.01 429ZM2586.46 429V430H2587.36L2587.45 429.11L2586.46 429ZM2586.96 415.5L2585.96 415.445L2585.96 415.472V415.5H2586.96ZM2555.46 303L2554.73 303.68L2554.73 303.685L2555.46 303ZM2370.46 305L2369.74 304.308L2369.74 304.308L2370.46 305ZM2418.96 339L2419.74 339.622L2419.75 339.613L2418.96 339ZM2404.19 381.5L2403.19 381.404L2403.09 382.5H2404.19V381.5ZM2508.96 338L2508.16 338.593L2508.16 338.6L2508.17 338.607L2508.96 338ZM2522.91 381.5V382.5H2523.99L2523.9 381.419L2522.91 381.5ZM2639.09 274V273H2638.09V274H2639.09ZM2705.09 274L2706.09 273.99L2706.08 273H2705.09V274ZM2639.09 534H2638.09V535H2639.09V534ZM2708.59 534V535H2709.59V534H2708.59ZM2723.59 370.5L2724.39 371.11L2724.39 371.1L2723.59 370.5ZM2764.09 339L2764.5 339.912L2764.5 339.912L2764.09 339ZM2820.59 327.5V328.5H2821.59V327.5H2820.59ZM2820.59 269H2821.59V268H2820.59V269ZM2776.59 275.5L2776.87 276.462L2776.88 276.459L2776.88 276.457L2776.59 275.5ZM2737.59 293.5L2738.14 294.336L2738.15 294.332L2737.59 293.5ZM2707.09 322.5V323.5H2707.6L2707.9 323.096L2707.09 322.5ZM2705.59 322.5L2704.59 322.51L2704.6 323.5H2705.59V322.5ZM280.44 0C222.887 0 176.571 3.08249 139.479 11.3258C102.376 19.5717 74.4417 32.9949 53.7183 53.7183C32.995 74.4417 19.5717 102.376 11.3259 139.479C3.08249 176.571 0 222.887 0 280.44H2C2 222.933 5.08266 176.79 13.2782 139.913C21.4713 103.048 34.7608 75.5043 55.1326 55.1325C75.5043 34.7608 103.048 21.4713 139.913 13.2782C176.79 5.08265 222.933 2 280.44 2V0ZM421.56 0H280.44V2H421.56V0ZM702 280.44C702 222.887 698.918 176.571 690.674 139.479C682.428 102.376 669.005 74.4417 648.282 53.7183C627.558 32.9949 599.624 19.5717 562.521 11.3258C525.429 3.08249 479.113 0 421.56 0V2C479.067 2 525.21 5.08265 562.087 13.2782C598.952 21.4713 626.496 34.7608 646.867 55.1325C667.239 75.5043 680.529 103.048 688.722 139.913C696.917 176.79 700 222.933 700 280.44H702ZM702 421.56V280.44H700V421.56H702ZM421.56 702C479.113 702 525.429 698.918 562.521 690.674C599.624 682.428 627.558 669.005 648.282 648.282C669.005 627.558 682.428 599.624 690.674 562.521C698.918 525.429 702 479.113 702 421.56H700C700 479.067 696.917 525.21 688.722 562.087C680.529 598.952 667.239 626.496 646.867 646.867C626.496 667.239 598.952 680.529 562.087 688.722C525.21 696.917 479.067 700 421.56 700V702ZM280.44 702H421.56V700H280.44V702ZM0 421.56C0 479.113 3.08249 525.429 11.3259 562.521C19.5717 599.624 32.995 627.558 53.7183 648.282C74.4417 669.005 102.376 682.428 139.479 690.674C176.571 698.918 222.887 702 280.44 702V700C222.933 700 176.79 696.917 139.913 688.722C103.048 680.529 75.5043 667.239 55.1326 646.867C34.7608 626.496 21.4713 598.952 13.2782 562.087C5.08266 525.21 2 479.067 2 421.56H0ZM0 280.44V421.56H2V280.44H0ZM163 305C137.595 305 117 325.595 117 351H119C119 326.699 138.699 307 163 307V305ZM543 305H163V307H543V305ZM589 351C589 325.595 568.405 305 543 305V307C567.301 307 587 326.699 587 351H589ZM543 397C568.405 397 589 376.405 589 351H587C587 375.301 567.301 395 543 395V397ZM163 397H543V395H163V397ZM117 351C117 376.405 137.595 397 163 397V395C138.699 395 119 375.301 119 351H117ZM119 524C119 499.699 138.699 480 163 480V478C137.595 478 117 498.595 117 524H119ZM163 568C138.699 568 119 548.3 119 524H117C117 549.405 137.595 570 163 570V568ZM343 568H163V570H343V568ZM387 524C387 548.3 367.301 568 343 568V570C368.405 570 389 549.405 389 524H387ZM343 480C367.301 480 387 499.699 387 524H389C389 498.595 368.405 478 343 478V480ZM163 480H343V478H163V480ZM163 130C137.595 130 117 150.595 117 176H119C119 151.699 138.699 132 163 132V130ZM408 130H163V132H408V130ZM454 176C454 150.595 433.405 130 408 130V132C432.301 132 452 151.699 452 176H454ZM408 222C433.405 222 454 201.405 454 176H452C452 200.301 432.301 220 408 220V222ZM163 222H408V220H163V222ZM117 176C117 201.405 137.595 222 163 222V220C138.699 220 119 200.301 119 176H117ZM964.5 534V169H962.5V534H964.5ZM1036.5 533H963.5V535H1036.5V533ZM1035.5 169V534H1037.5V169H1035.5ZM963.5 170H1036.5V168H963.5V170ZM1114.21 534V274H1112.21V534H1114.21ZM1182.21 533H1113.21V535H1182.21V533ZM1181.21 381V534H1183.21V381H1181.21ZM1188.87 351.97C1183.75 360.154 1181.21 369.844 1181.21 381H1183.21C1183.21 370.156 1185.68 360.846 1190.56 353.03L1188.87 351.97ZM1211.27 332.106C1201.78 336.848 1194.31 343.467 1188.87 351.961L1190.56 353.039C1195.79 344.866 1202.98 338.485 1212.16 333.894L1211.27 332.106ZM1243.71 324.5C1231.57 324.5 1220.74 327.031 1211.24 332.119L1212.19 333.881C1221.36 328.969 1231.86 326.5 1243.71 326.5V324.5ZM1279.52 339.909C1271.95 329.579 1259.93 324.5 1243.71 324.5V326.5C1259.5 326.5 1270.82 331.421 1277.91 341.091L1279.52 339.909ZM1290.71 387.5C1290.71 365.767 1287.05 349.827 1279.51 339.896L1277.92 341.104C1285.05 350.506 1288.71 365.9 1288.71 387.5H1290.71ZM1290.71 534V387.5H1288.71V534H1290.71ZM1358.21 533H1289.71V535H1358.21V533ZM1357.21 374V534H1359.21V374H1357.21ZM1334.97 295.169C1349.73 311.567 1357.21 337.769 1357.21 374H1359.21C1359.21 337.564 1351.7 310.766 1336.46 293.831L1334.97 295.169ZM1266.71 270C1297.88 270 1320.55 278.45 1334.96 295.153L1336.47 293.847C1321.55 276.55 1298.22 268 1266.71 268V270ZM1217.6 278.922C1231.79 272.983 1248.15 270 1266.71 270V268C1247.94 268 1231.31 271.017 1216.83 277.078L1217.6 278.922ZM1180.96 305.164C1191.53 293.272 1203.74 284.532 1217.59 278.927L1216.84 277.073C1202.69 282.801 1190.23 291.728 1179.47 303.836L1180.96 305.164ZM1179.21 305.5H1180.21V303.5H1179.21V305.5ZM1177.71 274.016L1178.21 304.516L1180.21 304.484L1179.71 273.984L1177.71 274.016ZM1113.21 275H1178.71V273H1113.21V275ZM1531.52 538C1500.28 538 1477.92 531.679 1464.19 519.258L1462.85 520.742C1477.12 533.654 1500.09 540 1531.52 540V538ZM1563.36 535.513C1553.08 537.171 1542.47 538 1531.52 538V540C1542.57 540 1553.29 539.163 1563.68 537.487L1563.36 535.513ZM1595.74 528.541C1584.45 531.861 1573.67 534.182 1563.39 535.508L1563.65 537.492C1574.04 536.151 1584.92 533.806 1596.3 530.459L1595.74 528.541ZM1589.52 475.1L1595.02 529.6L1597.01 529.4L1591.51 474.9L1589.52 475.1ZM1568.68 481.486C1576.73 480.145 1584.12 478.299 1590.85 475.944L1590.19 474.056C1583.58 476.368 1576.31 478.188 1568.36 479.514L1568.68 481.486ZM1546.52 483.5C1553.58 483.5 1560.97 482.827 1568.69 481.485L1568.35 479.515C1560.73 480.839 1553.46 481.5 1546.52 481.5V483.5ZM1518.75 474.14C1524.04 480.483 1533.41 483.5 1546.52 483.5V481.5C1533.62 481.5 1525 478.517 1520.29 472.86L1518.75 474.14ZM1511.02 440.5C1511.02 456.211 1513.51 467.507 1518.73 474.12L1520.3 472.88C1515.52 466.826 1513.02 456.123 1513.02 440.5H1511.02ZM1511.02 327.5V440.5H1513.02V327.5H1511.02ZM1596.52 326.5H1512.02V328.5H1596.52V326.5ZM1595.52 274V327.5H1597.52V274H1595.52ZM1512.02 275H1596.52V273H1512.02V275ZM1511.02 189V274H1513.02V189H1511.02ZM1443.02 190H1512.02V188H1443.02V190ZM1444.02 274V189H1442.02V274H1444.02ZM1386.52 275H1443.02V273H1386.52V275ZM1387.52 327.5V274H1385.52V327.5H1387.52ZM1443.02 326.5H1386.52V328.5H1443.02V326.5ZM1444.02 457.5V327.5H1442.02V457.5H1444.02ZM1464.2 519.267C1450.83 506.873 1444.02 486.374 1444.02 457.5H1442.02C1442.02 486.626 1448.88 507.794 1462.84 520.733L1464.2 519.267ZM1659.71 534V169H1657.71V534H1659.71ZM1728.71 533H1658.71V535H1728.71V533ZM1727.71 169V534H1729.71V169H1727.71ZM1658.71 170H1728.71V168H1658.71V170ZM1864.19 538C1838.72 538 1818.65 530.893 1803.88 516.777L1802.5 518.223C1817.73 532.774 1838.33 540 1864.19 540V538ZM1913.83 528.568C1897.61 534.858 1881.06 538 1864.19 538V540C1881.32 540 1898.11 536.809 1914.55 530.432L1913.83 528.568ZM1951.94 503.341C1942.73 513.861 1930.05 522.279 1913.83 528.568L1914.55 530.432C1931 524.054 1943.98 515.472 1953.44 504.659L1951.94 503.341ZM1953.19 503H1952.69V505H1953.19V503ZM1955.19 533.967L1954.19 503.967L1952.19 504.033L1953.19 534.033L1955.19 533.967ZM2019.69 533H1954.19V535H2019.69V533ZM2018.69 370V534H2020.69V370H2018.69ZM2008.29 310.931C2015.2 325.41 2018.69 345.077 2018.69 370H2020.69C2020.69 344.923 2017.18 324.923 2010.09 310.069L2008.29 310.931ZM1975.31 279.424C1990.41 285.662 2001.39 296.15 2008.29 310.923L2010.1 310.077C2002.99 294.85 1991.64 284.004 1976.07 277.576L1975.31 279.424ZM1912.69 270C1939.3 270 1960.15 273.162 1975.31 279.424L1976.07 277.576C1960.57 271.171 1939.42 268 1912.69 268V270ZM1849.36 275.486C1870.64 271.828 1891.75 270 1912.69 270V268C1891.63 268 1870.41 269.838 1849.02 273.514L1849.36 275.486ZM1792.03 289.939C1809.3 283.631 1828.4 278.812 1849.35 275.488L1849.03 273.512C1827.98 276.854 1808.75 281.702 1791.35 288.061L1792.03 289.939ZM1801.18 341.842L1792.68 288.842L1790.7 289.158L1799.2 342.158L1801.18 341.842ZM1851.01 326.517C1832.95 329.861 1815.89 334.712 1799.82 341.07L1800.56 342.93C1816.5 336.622 1833.43 331.806 1851.37 328.483L1851.01 326.517ZM1903.19 321C1886.45 321 1869.05 322.841 1850.99 326.52L1851.39 328.48C1869.33 324.825 1886.6 323 1903.19 323V321ZM1932.56 325.072C1925.72 322.334 1915.9 321 1903.19 321V323C1915.81 323 1925.33 324.332 1931.82 326.928L1932.56 325.072ZM1947.61 338.612C1944.83 331.992 1939.76 327.468 1932.51 325.051L1931.88 326.949C1938.62 329.199 1943.22 333.341 1945.77 339.388L1947.61 338.612ZM1952.19 366C1952.19 354.271 1950.69 345.1 1947.6 338.572L1945.79 339.428C1948.7 345.567 1950.19 354.395 1950.19 366H1952.19ZM1916.69 367H1951.19V365H1916.69V367ZM1816.76 391.323C1840.19 375.15 1873.46 367 1916.69 367V365C1873.25 365 1839.52 373.184 1815.62 389.677L1816.76 391.323ZM1782.19 460C1782.19 430.306 1793.72 407.454 1816.76 391.319L1815.62 389.681C1792 406.213 1780.19 429.694 1780.19 460H1782.19ZM1803.89 516.785C1789.45 502.672 1782.19 483.78 1782.19 460H1780.19C1780.19 484.22 1787.6 503.662 1802.49 518.215L1803.89 516.785ZM1889.19 488C1900.97 488 1911.61 485.98 1921.09 481.919L1920.3 480.081C1911.11 484.02 1900.74 486 1889.19 486V488ZM1856.58 478.788C1864.48 484.971 1875.39 488 1889.19 488V486C1875.66 486 1865.24 483.029 1857.81 477.212L1856.58 478.788ZM1845.19 453C1845.19 463.924 1848.96 472.559 1856.56 478.774L1857.82 477.226C1850.75 471.441 1847.19 463.409 1847.19 453H1845.19ZM1865.74 420.606C1858.95 424.004 1853.8 428.408 1850.35 433.839C1846.9 439.273 1845.19 445.673 1845.19 453H1847.19C1847.19 445.994 1848.82 439.977 1852.04 434.911C1855.25 429.842 1860.1 425.663 1866.64 422.394L1865.74 420.606ZM1926.69 410C1899.64 410 1879.28 413.501 1865.73 420.615L1866.66 422.385C1879.77 415.499 1899.74 412 1926.69 412V410ZM1951.19 410H1926.69V412H1951.19V410ZM1952.19 440.5V411H1950.19V440.5H1952.19ZM1943.48 465.111C1949.27 457.616 1952.19 449.404 1952.19 440.5H1950.19C1950.19 448.93 1947.44 456.717 1941.9 463.889L1943.48 465.111ZM1921.09 481.919C1930.55 477.862 1938.03 472.263 1943.49 465.106L1941.9 463.894C1936.68 470.737 1929.5 476.138 1920.3 480.081L1921.09 481.919ZM2105.03 639.374L2148.03 532.874L2146.18 532.126L2103.18 638.626L2105.03 639.374ZM2176.61 638H2104.11V640H2176.61V638ZM2318.67 273.635L2175.67 638.635L2177.54 639.365L2320.54 274.365L2318.67 273.635ZM2245.61 275H2319.61V273H2245.61V275ZM2183.06 466.813L2246.56 274.313L2244.66 273.687L2181.16 466.187L2183.06 466.813ZM2181.11 467.5H2182.11V465.5H2181.11V467.5ZM2117.16 274.311L2180.16 466.811L2182.06 466.189L2119.06 273.689L2117.16 274.311ZM2044.61 275.5L2118.11 275L2118.1 273L2044.6 273.5L2044.61 275.5ZM2148.03 532.131L2045.53 274.131L2043.68 274.869L2146.18 532.869L2148.03 532.131ZM2481.46 538C2434.95 538 2399.23 526.375 2374.14 503.264L2372.78 504.736C2398.36 528.292 2434.63 540 2481.46 540V538ZM2530.78 533.516C2514.51 536.505 2498.07 538 2481.46 538V540C2498.19 540 2514.75 538.495 2531.14 535.484L2530.78 533.516ZM2574.09 522.073C2561.84 527.038 2547.41 530.855 2530.8 533.513L2531.12 535.487C2547.84 532.812 2562.42 528.962 2574.84 523.927L2574.09 522.073ZM2565.47 470.651L2573.47 523.151L2575.45 522.849L2567.45 470.349L2565.47 470.651ZM2524.13 482.486C2540.18 479.811 2554.41 476.13 2566.81 471.435L2566.11 469.565C2553.85 474.204 2539.75 477.855 2523.8 480.514L2524.13 482.486ZM2478.46 486.5C2492.86 486.5 2508.08 485.161 2524.13 482.486L2523.8 480.514C2507.84 483.172 2492.73 484.5 2478.46 484.5V486.5ZM2421.3 469.746C2433.89 480.978 2453.01 486.5 2478.46 486.5V484.5C2453.25 484.5 2434.7 479.022 2422.63 468.254L2421.3 469.746ZM2403.01 429.1C2404.79 446.834 2410.85 460.429 2421.3 469.746L2422.63 468.254C2412.65 459.358 2406.74 446.286 2405 428.9L2403.01 429.1ZM2586.46 428H2404.01V430H2586.46V428ZM2585.96 415.5C2585.96 421.492 2585.79 425.947 2585.47 428.89L2587.45 429.11C2587.79 426.053 2587.96 421.508 2587.96 415.5H2585.96ZM2586.46 399.5C2586.46 404.144 2586.29 409.458 2585.96 415.445L2587.96 415.555C2588.29 409.542 2588.46 404.19 2588.46 399.5H2586.46ZM2554.73 303.685C2575.84 326.111 2586.46 358 2586.46 399.5H2588.46C2588.46 357.667 2577.75 325.222 2556.19 302.315L2554.73 303.685ZM2465.46 270C2504.26 270 2533.96 281.268 2554.73 303.68L2556.19 302.32C2534.96 279.399 2504.66 268 2465.46 268V270ZM2371.18 305.692C2393.96 281.93 2425.34 270 2465.46 270V268C2424.92 268 2392.97 280.07 2369.74 304.308L2371.18 305.692ZM2336.96 404C2336.96 362.187 2348.41 329.46 2371.18 305.692L2369.74 304.308C2346.52 328.54 2334.96 361.813 2334.96 404H2336.96ZM2374.14 503.269C2349.4 480.172 2336.96 447.135 2336.96 404H2334.96C2334.96 447.532 2347.52 481.161 2372.78 504.731L2374.14 503.269ZM2418.18 338.378C2409.93 348.759 2404.96 363.133 2403.19 381.404L2405.19 381.596C2406.93 363.561 2411.81 349.602 2419.74 339.622L2418.18 338.378ZM2465.46 318C2444.56 318 2428.74 324.754 2418.17 338.387L2419.75 339.613C2429.85 326.579 2445.03 320 2465.46 320V318ZM2509.77 337.407C2500.2 324.421 2485.36 318 2465.46 318V320C2484.9 320 2499.06 326.246 2508.16 338.593L2509.77 337.407ZM2523.9 381.419C2522.37 362.501 2517.69 347.789 2509.76 337.393L2508.17 338.607C2515.78 348.586 2520.4 362.874 2521.91 381.581L2523.9 381.419ZM2404.19 382.5H2522.91V380.5H2404.19V382.5ZM2639.09 275H2705.09V273H2639.09V275ZM2640.09 534V274H2638.09V534H2640.09ZM2708.59 533H2639.09V535H2708.59V533ZM2707.59 414V534H2709.59V414H2707.59ZM2722.8 369.89C2712.67 383.06 2707.59 397.774 2707.59 414H2709.59C2709.59 398.226 2714.52 383.94 2724.39 371.11L2722.8 369.89ZM2763.68 338.088C2746.55 345.816 2732.91 356.416 2722.79 369.9L2724.39 371.1C2734.28 357.917 2747.64 347.517 2764.5 339.912L2763.68 338.088ZM2820.59 326.5C2799.8 326.5 2780.83 330.357 2763.68 338.088L2764.5 339.912C2781.36 332.309 2800.05 328.5 2820.59 328.5V326.5ZM2819.59 269V327.5H2821.59V269H2819.59ZM2776.88 276.457C2791.12 272.152 2805.69 270 2820.59 270V268C2805.5 268 2790.73 270.181 2776.3 274.543L2776.88 276.457ZM2738.15 294.332C2750.06 286.39 2762.97 280.433 2776.87 276.462L2776.32 274.538C2762.22 278.567 2749.13 284.61 2737.04 292.668L2738.15 294.332ZM2707.9 323.096C2716.5 311.52 2726.58 301.935 2738.14 294.336L2737.04 292.664C2725.28 300.398 2715.02 310.147 2706.29 321.904L2707.9 323.096ZM2705.59 323.5H2707.09V321.5H2705.59V323.5ZM2704.09 274.01L2704.59 322.51L2706.59 322.49L2706.09 273.99L2704.09 274.01Z" fill="currentColor" mask="url(#path-2-outside-1_2003_161)"/>
</svg>
