<svg xmlns="http://www.w3.org/2000/svg" id="mainsvg" width="2494.6001953125" height="901.0000000000001" viewBox="-10 -10 2267.818359375 820"><defs><marker id="arrow" viewBox="0 0 10 10" refX="10" refY="5" markerWidth="5" markerHeight="5" orient="auto-start-reverse" fill="black"><path stroke="black" d="M 0 0 L 10 5 L 0 10 z"/></marker><marker id="Many" viewBox="0 0 16 16" refX="15" refY="8" markerWidth="15" markerHeight="15" orient="auto-start-reverse"><path stroke="black" d="M0 8H15M15 15L2 8L15 1" fill="none"/></marker><marker id="ZeroOrOne" viewBox="0 0 16 10" refX="15" refY="5" markerWidth="21" markerHeight="21" orient="auto-start-reverse"><path d="M9 5H16" stroke="black" fill="none"/><circle cx="5" cy="5" r="4.5" stroke="black" fill="#fff"/><path d="M12 0L12 10" stroke="black" fill="none"/></marker><marker id="OneOnlyOne" viewBox="0 0 10 14" refX="10" refY="7" markerWidth="13" markerHeight="13" orient="auto-start-reverse"><path d="M0 7H4M4 7H7M4 7V0M4 7V14M7 7H10M7 7V0M7 7V14" stroke="black" fill="none"/></marker><marker id="OneOrMany" viewBox="0 0 16 16" refX="15" refY="8" markerWidth="15" markerHeight="15" orient="auto-start-reverse"><path stroke="black" d="M2 1V15M2 8L15 15M2 8L15 1M2 8H0M2 8H15" fill="none"/></marker><marker id="ZeroOrMany" viewBox="0 0 25 16" refX="23" refY="8" markerWidth="25" markerHeight="25" orient="auto-start-reverse"><path d="M13 8H27M27 15L14 8L27 1" stroke="black" fill="none"/><path d="M13.5 7.5C13.5 10.7795 10.6254 13.5 7 13.5C3.37461 13.5 0.5 10.7795 0.5 7.5C0.5 4.22054 3.37461 1.5 7 1.5C10.6254 1.5 13.5 4.22054 13.5 7.5Z" stroke="black" fill="#fff"/></marker><marker id="aggregation" viewBox="0 0 10 6" refX="9.3" refY="2.8" markerWidth="23" markerHeight="15" orient="auto-start-reverse"><path stroke="black" fill="#fff" stroke-width="0.7" d="M1.01614 2.82609L5 0.574341L8.98386 2.82609L5 5.07783L1.01614 2.82609Z"/></marker><marker id="composition" viewBox="0 0 10 6" refX="9.7" refY="2.8" markerWidth="18" markerHeight="15" orient="auto-start-reverse"><path stroke="black" fill="black" d="M1.01614 2.82609L5 0.574341L8.98386 2.82609L5 5.07783L1.01614 2.82609Z"/></marker><marker id="implementation" viewBox="0 0 8 10" refX="8" refY="5" markerWidth="20" markerHeight="20" orient="auto-start-reverse"><path stroke="black" fill="#fff" stroke-width="0.7" d="M0.750001 1.10289L7.5 5L0.750001 8.89712L0.750001 1.10289Z"/></marker><marker id="dependency" viewBox="0 0 12 12" refX="11" refY="6" markerWidth="12" markerHeight="11" orient="auto-start-reverse"><path stroke="black" fill="#fff" d="M1 5.93162H10.886M10.886 5.93162L1 0.5M10.886 5.93162L1 11"/></marker><marker id="inheritance" viewBox="0 0 8 10" refX="8" refY="5" markerWidth="20" markerHeight="20" orient="auto-start-reverse"><path stroke="black" fill="#fff" stroke-width="0.7" d="M0.750001 1.10289L7.5 5L0.750001 8.89712L0.750001 1.10289Z"/></marker><marker id="association" viewBox="0 0 12 12" refX="11" refY="6" markerWidth="12" markerHeight="11" orient="auto-start-reverse"><path stroke="black" d="M1 5.93162H10.886M10.886 5.93162L1 0.5M10.886 5.93162L1 11"/></marker><filter id="shadowOLD" x="-50%" y="-50%" width="250%" height="250%"><feDropShadow flood-color="black" flood-opacity="0.3" dx="1" dy="1" stdDeviation="2"> </feDropShadow></filter><filter id="shadow-path" filterUnits="userSpaceOnUse" x="-10" y="-10" width="2267.818359375px" height="810px"><feDropShadow flood-color="black" flood-opacity="0.1" dx="1" dy="1" stdDeviation="1"> </feDropShadow></filter><filter id="shadow" filterUnits="userSpaceOnUse" x="-10" y="-10" width="2367.818359375px" height="910px"><feDropShadow flood-color="black" flood-opacity="0.1" dx="1" dy="1" stdDeviation="1"> </feDropShadow></filter></defs><rect x="-10" y="-10" width="2267.818359375" height="810" fill="#fff"/><path transform="rotate(0,0, 0) scale(1)" d="M70.33128720238095,202L69.33922371031746,206.16666666666666C68.34716021825396,210.33333333333334,66.36303323412699,218.66666666666666,122.73685515873017,228.58956974295324C179.11067708333334,238.51247281923978,293.8424479166667,250.02494563847958,351.2083333333333,255.78118204809948L408.57421875,261.53741845771935" stroke="black" stroke-dasharray="none" stroke-width="2" fill="none" marker-end="url(#arrow)"/><path transform="rotate(0,0, 0) scale(1)" d="M78.42652529761905,202L79.41858878968254,206.16666666666666C80.41065228174604,210.33333333333334,82.39477926587301,218.66666666666666,83.3868427579365,229.83333333333334C84.37890625,241,84.37890625,255,84.37890625,269C84.37890625,283,84.37890625,297,84.37890625,311C84.37890625,325,84.37890625,339,84.37890625,353C84.37890625,367,84.37890625,381,84.37890625,395C84.37890625,409,84.37890625,423,84.37890625,437C84.37890625,451,84.37890625,465,84.37890625,479C84.37890625,493,84.37890625,507,84.37890625,521C84.37890625,535,84.37890625,549,269.1803385416667,562.4438019691526C453.9817708333333,575.887603938305,823.5846354166666,588.7752078766101,1008.3860677083334,595.2190098457627L1193.1875,601.6628118149152" stroke="black" stroke-dasharray="none" stroke-width="2" fill="none" marker-end="url(#arrow)"/><path transform="rotate(0,0, 0) scale(1)" d="M408.57421875,284.67410543647645L387.7555338541667,289.0617545303971C366.9368489583333,293.44940362431765,325.2994791666667,302.2247018121588,366.4296875,312.7577716496291C407.5598958333333,323.29084148709927,531.4576822916666,335.5816829741986,593.4065755208334,341.7271037177482L655.35546875,347.87252446129787" stroke="black" stroke-dasharray="none" stroke-width="2" fill="none" marker-end="url(#arrow)"/><path transform="rotate(0,0, 0) scale(1)" d="M410.3783017113095,286L392.59226965525795,290.1666666666667C374.8062375992063,294.3333333333333,339.2341734871032,302.6666666666667,531.6890268477183,313.4370066012096C724.1438802083334,324.20734653575255,1144.6256510416667,337.41469307150516,1354.8665364583333,344.01836633938143L1565.107421875,350.6220396072577" stroke="black" stroke-dasharray="none" stroke-width="2" fill="none" marker-end="url(#arrow)"/><path transform="rotate(0,0, 0) scale(1)" d="M486.99293154761904,286L487.9849950396826,290.1666666666667C488.977058531746,294.3333333333333,490.961185515873,302.6666666666667,491.95324900793656,313.8333333333333C492.9453125,325,492.9453125,339,492.9453125,353C492.9453125,367,492.9453125,381,492.9453125,395C492.9453125,409,492.9453125,423,492.9453125,437C492.9453125,451,492.9453125,465,519.3359375,476.9747015200126C545.7265625,488.9494030400253,598.5078125,498.8988060800505,624.8984375,503.8735076000632L651.2890625,508.84820912007575" stroke="black" stroke-dasharray="none" stroke-width="2" fill="none" marker-end="url(#arrow)"/><path transform="rotate(0,0, 0) scale(1)" d="M495.08816964285717,286L498.06436011904765,290.1666666666667C501.0405505952381,294.3333333333333,506.99293154761904,302.6666666666667,509.9691220238096,313.8333333333333C512.9453125,325,512.9453125,339,512.9453125,353C512.9453125,367,512.9453125,381,512.9453125,395C512.9453125,409,512.9453125,423,512.9453125,437C512.9453125,451,512.9453125,465,693.0247395833334,478.66540671355347C873.1041666666666,492.33081342710693,1233.2630208333333,505.6616268542138,1413.3424479166667,512.3270335677672L1593.421875,518.9924402813207" stroke="black" stroke-dasharray="none" stroke-width="2" fill="none" marker-end="url(#arrow)"/><path transform="rotate(0,0, 0) scale(1)" d="M702.995349702381,370L702.0032862103175,374.1666666666667C701.011222718254,378.3333333333333,699.0270957341269,386.6666666666667,698.0350322420635,395C697.04296875,403.3333333333333,697.04296875,411.6666666666667,697.04296875,415.8333333333333L697.04296875,420" stroke="black" stroke-dasharray="none" stroke-width="2" fill="none" marker-end="url(#arrow)"/><path transform="rotate(0,0, 0) scale(1)" d="M758.73046875,362.39979365052517L788.607421875,367.8331613754376C818.484375,373.26652910035017,878.23828125,384.13326455017506,1015.9440104166666,396.12080970638704C1153.6497395833333,408.108354862599,1369.3072916666667,421.216709725198,1477.1360677083333,427.7708871564975L1584.96484375,434.325064587797" stroke="black" stroke-dasharray="none" stroke-width="2" fill="none" marker-end="url(#arrow)"/><path transform="rotate(0,0, 0) scale(1)" d="M2092.337890625,102.64202277458062L1824.1057942708333,109.36835231215052C1555.8736979166667,116.09468184972042,1019.4095052083334,129.5473409248602,751.1774088541666,143.2736704624301C482.9453125,157,482.9453125,171,482.9453125,185C482.9453125,199,482.9453125,213,482.9453125,224.16666666666666C482.9453125,235.33333333333334,482.9453125,243.66666666666666,482.9453125,247.83333333333334L482.9453125,252" stroke="black" stroke-dasharray="none" stroke-width="2" fill="none" marker-end="url(#arrow)"/><path transform="rotate(0,0, 0) scale(1)" d="M2092.337890625,102.76650976535056L1843.77734375,109.47209147112547C1595.216796875,116.17767317690038,1098.095703125,129.5888365884502,849.53515625,143.2944182942251C600.974609375,157,600.974609375,171,600.974609375,185C600.974609375,199,600.974609375,213,600.974609375,227C600.974609375,241,600.974609375,255,600.974609375,269C600.974609375,283,600.974609375,297,611.4972640749007,308.1666666666667C622.0199187748016,319.3333333333333,643.0652281746032,327.6666666666667,653.587882874504,331.8333333333333L664.1105375744048,336" stroke="black" stroke-dasharray="none" stroke-width="2" fill="none" marker-end="url(#arrow)"/><path transform="rotate(0,0, 0) scale(1)" d="M2092.337890625,104.12178142750092L1956.423828125,110.60148452291743C1820.509765625,117.08118761833396,1548.681640625,130.04059380916698,1412.767578125,140.68696357125015C1276.853515625,151.33333333333334,1276.853515625,159.66666666666666,1276.853515625,163.83333333333334L1276.853515625,168" stroke="black" stroke-dasharray="none" stroke-width="2" fill="none" marker-end="url(#arrow)"/><path transform="rotate(0,0, 0) scale(1)" d="M2145.6755022321427,118L2142.6993117559523,122.16666666666667C2139.723121279762,126.33333333333333,2133.770740327381,134.66666666666666,2130.7945498511904,145.83333333333334C2127.818359375,157,2127.818359375,171,2127.818359375,185C2127.818359375,199,2127.818359375,213,2127.818359375,227C2127.818359375,241,2127.818359375,255,2127.818359375,269C2127.818359375,283,2127.818359375,297,2127.818359375,311C2127.818359375,325,2127.818359375,339,2127.818359375,353C2127.818359375,367,2127.818359375,381,2127.818359375,395C2127.818359375,409,2127.818359375,423,2127.818359375,437C2127.818359375,451,2127.818359375,465,2127.818359375,479C2127.818359375,493,2127.818359375,507,2127.818359375,521C2127.818359375,535,2127.818359375,549,2003.9488932291667,562.2014182977168C1880.0794270833333,575.4028365954337,1632.3404947916667,587.8056731908672,1508.4710286458333,594.007091488584L1384.6015625,600.2085097863009" stroke="black" stroke-dasharray="none" stroke-width="2" fill="none" marker-end="url(#arrow)"/><path transform="rotate(0,0, 0) scale(1)" d="M2153.7707403273807,118L2152.7786768353176,122.16666666666667C2151.786613343254,126.33333333333333,2149.8024863591268,134.66666666666666,2148.8104228670636,145.83333333333334C2147.818359375,157,2147.818359375,171,2147.818359375,185C2147.818359375,199,2147.818359375,213,2127.972439236111,224.16666666666666C2108.126519097222,235.33333333333334,2068.434678819445,243.66666666666666,2048.5887586805557,247.83333333333334L2028.7428385416667,252" stroke="black" stroke-dasharray="none" stroke-width="2" fill="none" marker-end="url(#arrow)"/><path transform="rotate(0,0, 0) scale(1)" d="M2161.8659784226193,118L2162.8580419146824,122.16666666666667C2163.850105406746,126.33333333333333,2165.8342323908732,134.66666666666666,2166.8262958829364,145.83333333333334C2167.818359375,157,2167.818359375,171,2167.818359375,185C2167.818359375,199,2167.818359375,213,2167.818359375,227C2167.818359375,241,2167.818359375,255,2167.818359375,269C2167.818359375,283,2167.818359375,297,2092.6022135416665,309.9944112131522C2017.3860677083333,322.98882242630435,1866.9537760416667,334.9776448526087,1791.7376302083333,340.9720560657609L1716.521484375,346.96646727891306" stroke="black" stroke-dasharray="none" stroke-width="2" fill="none" marker-end="url(#arrow)"/><path transform="rotate(0,0, 0) scale(1)" d="M2169.9612165178573,118L2172.9374069940477,122.16666666666667C2175.913597470238,126.33333333333333,2181.865978422619,134.66666666666666,2184.8421688988096,145.83333333333334C2187.818359375,157,2187.818359375,171,2187.818359375,185C2187.818359375,199,2187.818359375,213,2187.818359375,227C2187.818359375,241,2187.818359375,255,2187.818359375,269C2187.818359375,283,2187.818359375,297,2187.818359375,311C2187.818359375,325,2187.818359375,339,2187.818359375,353C2187.818359375,367,2187.818359375,381,2102.0120442708335,394.44876611598266C2016.2057291666667,407.8975322319653,1844.5930989583333,420.7950644639306,1758.7867838541667,427.24383057991326L1672.98046875,433.69259669589593" stroke="black" stroke-dasharray="none" stroke-width="2" fill="none" marker-end="url(#arrow)"/><path transform="rotate(0,0, 0) scale(1)" d="M2178.0564546130954,118L2183.016772073413,122.16666666666667C2187.97708953373,126.33333333333333,2197.8977244543653,134.66666666666666,2202.8580419146824,145.83333333333334C2207.818359375,157,2207.818359375,171,2207.818359375,185C2207.818359375,199,2207.818359375,213,2207.818359375,227C2207.818359375,241,2207.818359375,255,2207.818359375,269C2207.818359375,283,2207.818359375,297,2207.818359375,311C2207.818359375,325,2207.818359375,339,2207.818359375,353C2207.818359375,367,2207.818359375,381,2207.818359375,395C2207.818359375,409,2207.818359375,423,2207.818359375,437C2207.818359375,451,2207.818359375,465,2207.818359375,479C2207.818359375,493,2207.818359375,507,2207.818359375,521C2207.818359375,535,2207.818359375,549,2207.818359375,563C2207.818359375,577,2207.818359375,591,2207.818359375,605C2207.818359375,619,2207.818359375,633,2101.1038411458335,646.4327193422605C1994.3893229166667,659.8654386845211,1780.9602864583333,672.7308773690421,1674.2457682291667,679.1635967113026L1567.53125,685.5963160535632" stroke="black" stroke-dasharray="none" stroke-width="2" fill="none" marker-end="url(#arrow)"/><path transform="rotate(0,0, 0) scale(1)" d="M2186.1516927083335,118L2193.096137152778,122.16666666666667C2200.040581597222,126.33333333333333,2213.9294704861113,134.66666666666666,2220.8739149305557,145.83333333333334C2227.818359375,157,2227.818359375,171,2227.818359375,185C2227.818359375,199,2227.818359375,213,2227.818359375,227C2227.818359375,241,2227.818359375,255,2227.818359375,269C2227.818359375,283,2227.818359375,297,2227.818359375,311C2227.818359375,325,2227.818359375,339,2227.818359375,353C2227.818359375,367,2227.818359375,381,2227.818359375,395C2227.818359375,409,2227.818359375,423,2227.818359375,437C2227.818359375,451,2227.818359375,465,2227.818359375,479C2227.818359375,493,2227.818359375,507,2227.818359375,521C2227.818359375,535,2227.818359375,549,2132.1995442708335,562.4226339775165C2036.5807291666667,575.8452679550331,1845.3430989583333,588.6905359100664,1749.7242838541667,595.1131698875829L1654.10546875,601.5358038650995" stroke="black" stroke-dasharray="none" stroke-width="2" fill="none" marker-end="url(#arrow)"/><path transform="rotate(0,0, 0) scale(1)" d="M2194.2469308035716,118L2203.175502232143,122.16666666666667C2212.104073660714,126.33333333333333,2229.9612165178573,134.66666666666666,2238.889787946429,145.83333333333334C2247.818359375,157,2247.818359375,171,2247.818359375,185C2247.818359375,199,2247.818359375,213,2247.818359375,227C2247.818359375,241,2247.818359375,255,2247.818359375,269C2247.818359375,283,2247.818359375,297,2247.818359375,311C2247.818359375,325,2247.818359375,339,2247.818359375,353C2247.818359375,367,2247.818359375,381,2247.818359375,395C2247.818359375,409,2247.818359375,423,2247.818359375,437C2247.818359375,451,2247.818359375,465,2156.8317057291665,478.36738685437757C2065.8450520833335,491.7347737087552,1883.8717447916667,504.46954741751034,1792.8850911458333,510.8369342718879L1701.8984375,517.2043211262655" stroke="black" stroke-dasharray="none" stroke-width="2" fill="none" marker-end="url(#arrow)"/><path transform="rotate(0,0, 0) scale(1)" d="M1217.158203125,190.6350546961423L1152.9524739583333,196.6958789134519C1088.7467447916667,202.75670313076157,960.3352864583334,214.87835156538077,850.3616536458334,226.4474001204619C740.3880208333334,238.01644867554305,648.8522135416666,249.03289735108604,603.0843098958334,254.54112168885754L557.31640625,260.04934602662905" stroke="black" stroke-dasharray="none" stroke-width="2" fill="none" marker-end="url(#arrow)"/><path transform="rotate(0,0, 0) scale(1)" d="M1217.158203125,192.39890603295734L1170.6305338541667,198.16575502746446C1124.1028645833333,203.93260402197157,1031.0475260416667,215.4663020109858,984.5198567708334,228.23315100549289C937.9921875,241,937.9921875,255,937.9921875,269C937.9921875,283,937.9921875,297,908.115234375,309.43336772491244C878.23828125,321.86673544982494,818.484375,332.7334708996499,788.607421875,338.16683862456233L758.73046875,343.60020634947483" stroke="black" stroke-dasharray="none" stroke-width="2" fill="none" marker-end="url(#arrow)"/><path transform="rotate(0,0, 0) scale(1)" d="M1217.158203125,197.6201913151194L1193.9964192708333,202.51682609593286C1170.8346354166667,207.41346087674629,1124.5110677083333,217.20673043837314,1101.3492838541667,229.10336521918657C1078.1875,241,1078.1875,255,1078.1875,269C1078.1875,283,1078.1875,297,1078.1875,311C1078.1875,325,1078.1875,339,1078.1875,353C1078.1875,367,1078.1875,381,1078.1875,395C1078.1875,409,1078.1875,423,1078.1875,437C1078.1875,451,1078.1875,465,1078.1875,479C1078.1875,493,1078.1875,507,1078.1875,521C1078.1875,535,1078.1875,549,1099.0909753224207,560.1666666666666C1119.9944506448412,571.3333333333334,1161.8014012896826,579.6666666666666,1182.7048766121031,583.8333333333334L1203.6083519345239,588" stroke="black" stroke-dasharray="none" stroke-width="2" fill="none" marker-end="url(#arrow)"/><path transform="rotate(0,0, 0) scale(1)" d="M1217.158203125,199.0329044459263L1197.3297526041667,203.69408703827193C1177.5013020833333,208.35526963061753,1137.8444010416667,217.67763481530878,1242.10546875,228.47330188650088C1346.3665364583333,239.268968957693,1594.5455729166667,251.53793791538598,1718.6350911458333,257.67242239423246L1842.724609375,263.80690687307896" stroke="black" stroke-dasharray="none" stroke-width="2" fill="none" marker-end="url(#arrow)"/><path transform="rotate(0,0, 0) scale(1)" d="M1217.158203125,200.8017652055098L1200.6630859375,205.16813767125817C1184.16796875,209.53451013700655,1151.177734375,218.26725506850326,1134.6826171875,229.63362753425164C1118.1875,241,1118.1875,255,1118.1875,269C1118.1875,283,1118.1875,297,1118.1875,311C1118.1875,325,1118.1875,339,1118.1875,353C1118.1875,367,1118.1875,381,1118.1875,395C1118.1875,409,1118.1875,423,1118.1875,437C1118.1875,451,1118.1875,465,1061.859375,477.87868728342215C1005.53125,490.75737456684436,892.875,502.5147491336886,836.546875,508.39343641711076L780.21875,514.2721237005329" stroke="black" stroke-dasharray="none" stroke-width="2" fill="none" marker-end="url(#arrow)"/><path transform="rotate(0,0, 0) scale(1)" d="M1220.726795014881,202L1206.970245845734,206.16666666666666C1193.2136966765872,210.33333333333334,1165.7005983382935,218.66666666666666,1151.9440491691469,229.83333333333334C1138.1875,241,1138.1875,255,1138.1875,269C1138.1875,283,1138.1875,297,1138.1875,311C1138.1875,325,1138.1875,339,1138.1875,353C1138.1875,367,1138.1875,381,1070.294921875,394.4638413926841C1002.40234375,407.9276827853683,866.6171875,420.85536557073664,798.724609375,427.31920696342075L730.83203125,433.7830483561049" stroke="black" stroke-dasharray="none" stroke-width="2" fill="none" marker-end="url(#arrow)"/><path transform="rotate(0,0, 0) scale(1)" d="M1228.822033110119,202L1217.0496109250992,206.16666666666666C1205.2771887400793,210.33333333333334,1181.7323443700398,218.66666666666666,1169.9599221850199,229.83333333333334C1158.1875,241,1158.1875,255,1158.1875,269C1158.1875,283,1158.1875,297,1158.1875,311C1158.1875,325,1158.1875,339,1158.1875,353C1158.1875,367,1158.1875,381,1158.1875,395C1158.1875,409,1158.1875,423,1158.1875,437C1158.1875,451,1158.1875,465,1158.1875,479C1158.1875,493,1158.1875,507,1158.1875,521C1158.1875,535,1158.1875,549,1158.1875,563C1158.1875,577,1158.1875,591,1158.1875,605C1158.1875,619,1158.1875,633,1207.58984375,645.87991631336C1256.9921875,658.7598326267199,1355.796875,670.5196652534399,1405.19921875,676.3995815667998L1454.6015625,682.2794978801599" stroke="black" stroke-dasharray="none" stroke-width="2" fill="none" marker-end="url(#arrow)"/><path transform="rotate(0,0, 0) scale(1)" d="M1336.548828125,188.0916298583381L1461.7604166666667,194.57635821528174C1586.9720052083333,201.06108657222543,1837.3951822916667,214.0305432861127,1962.6067708333333,227.51527164305637C2087.818359375,241,2087.818359375,255,2087.818359375,269C2087.818359375,283,2087.818359375,297,2087.818359375,311C2087.818359375,325,2087.818359375,339,2087.818359375,353C2087.818359375,367,2087.818359375,381,2087.818359375,395C2087.818359375,409,2087.818359375,423,2087.818359375,437C2087.818359375,451,2087.818359375,465,2087.818359375,479C2087.818359375,493,2087.818359375,507,2087.818359375,521C2087.818359375,535,2087.818359375,549,2015.5328776041667,562.256070222605C1943.2473958333333,575.5121404452101,1798.6764322916667,588.0242808904201,1726.3909505208333,594.2803511130251L1654.10546875,600.53642133563" stroke="black" stroke-dasharray="none" stroke-width="2" fill="none" marker-end="url(#arrow)"/><path transform="rotate(0,0, 0) scale(1)" d="M1336.548828125,188.0172192528452L1465.09375,194.514349377371C1593.638671875,201.0114795018968,1850.728515625,214.00573975094838,1979.2734375,227.5028698754742C2107.818359375,241,2107.818359375,255,2107.818359375,269C2107.818359375,283,2107.818359375,297,2107.818359375,311C2107.818359375,325,2107.818359375,339,2107.818359375,353C2107.818359375,367,2107.818359375,381,2107.818359375,395C2107.818359375,409,2107.818359375,423,2107.818359375,437C2107.818359375,451,2107.818359375,465,2040.1650390625,478.1749186123998C1972.51171875,491.34983722479956,1837.205078125,503.6996744495991,1769.5517578125,509.8745930619989L1701.8984375,516.0495116743987" stroke="black" stroke-dasharray="none" stroke-width="2" fill="none" marker-end="url(#arrow)"/><path transform="rotate(0,0, 0) scale(1)" d="M1288.89453125,622L1288.89453125,626.1666666666666C1288.89453125,630.3333333333334,1288.89453125,638.6666666666666,1316.5123697916667,648.0542876901799C1344.1302083333333,657.4419087136929,1399.3658854166667,667.8838174273859,1426.9837239583333,673.1047717842324L1454.6015625,678.3257261410788" stroke="black" stroke-dasharray="none" stroke-width="2" fill="none" marker-end="url(#arrow)"/><path transform="rotate(0,0, 0) scale(1)" d="M1842.724609375,278.30549696809913L1781.2115885416667,283.7545808067493C1719.6985677083333,289.20366464539944,1596.6725260416667,300.1018323226997,1416.0068359375,312.07894793706504C1235.3411458333333,324.05606355143044,997.0358072916666,337.1121271028609,877.8831380208334,343.64015887857613L758.73046875,350.1681906542913" stroke="black" stroke-dasharray="none" stroke-width="2" fill="none" marker-end="url(#arrow)"/><path transform="rotate(0,0, 0) scale(1)" d="M1943.723865327381,286L1942.7318018353174,290.1666666666667C1941.7397383432537,294.3333333333333,1939.755611359127,302.6666666666667,1938.7635478670636,313.8333333333333C1937.771484375,325,1937.771484375,339,1937.771484375,353C1937.771484375,367,1937.771484375,381,1937.771484375,395C1937.771484375,409,1937.771484375,423,1937.771484375,437C1937.771484375,451,1937.771484375,465,1937.771484375,479C1937.771484375,493,1937.771484375,507,1937.771484375,521C1937.771484375,535,1937.771484375,549,1845.5764973958333,561.9675250206939C1753.3815104166667,574.9350500413876,1568.9915364583333,586.8701000827753,1476.7965494791667,592.8376251034691L1384.6015625,598.8051501241629" stroke="black" stroke-dasharray="none" stroke-width="2" fill="none" marker-end="url(#arrow)"/><path transform="rotate(0,0, 0) scale(1)" d="M1968.019066220238,286L1972.981708829365,290.1666666666667C1977.944351438492,294.3333333333333,1987.8696366567463,302.6666666666667,1945.953373015873,312.3488005223208C1904.037109375,322.030934377975,1810.279296875,333.06186875595,1763.400390625,338.5773359449375L1716.521484375,344.092803133925" stroke="black" stroke-dasharray="none" stroke-width="2" fill="none" marker-end="url(#arrow)"/><path transform="rotate(0,0, 0) scale(1)" d="M1976.1143043154761,286L1983.0610739087304,290.1666666666667C1990.007843501984,294.3333333333333,2003.901382688492,302.6666666666667,2010.8481522817463,313.8333333333333C2017.794921875,325,2017.794921875,339,2017.794921875,353C2017.794921875,367,2017.794921875,381,2017.794921875,395C2017.794921875,409,2017.794921875,423,2017.794921875,437C2017.794921875,451,2017.794921875,465,1965.1455078125,477.97424396730503C1912.49609375,490.94848793461,1807.197265625,502.89697586921994,1754.5478515625,508.871219836525L1701.8984375,514.84546380383" stroke="black" stroke-dasharray="none" stroke-width="2" fill="none" marker-end="url(#arrow)"/><path transform="rotate(0,0, 0) scale(1)" d="M1565.107421875,361.3363835136644L1514.1546223958333,366.94698626138694C1463.2018229166667,372.55758900910956,1361.2962239583333,383.77879450455475,1310.3434244791667,396.3893972522774C1259.390625,409,1259.390625,423,1259.390625,437C1259.390625,451,1259.390625,465,1259.390625,479C1259.390625,493,1259.390625,507,1259.390625,521C1259.390625,535,1259.390625,549,1307.9850260416667,561.9478962706617C1356.5794270833333,574.8957925413232,1453.7682291666667,586.7915850826465,1502.3626302083333,592.7394813533082L1550.95703125,598.6873776239697" stroke="black" stroke-dasharray="none" stroke-width="2" fill="none" marker-end="url(#arrow)"/><path transform="rotate(0,0, 0) scale(1)" d="M1716.521484375,366.7290459685784L1742.5042317708333,371.44087164048204C1768.4869791666667,376.15269731238567,1820.4524739583333,385.5763486561928,1846.4352213541667,397.2881743280964C1872.41796875,409,1872.41796875,423,1872.41796875,437C1872.41796875,451,1872.41796875,465,1843.998046875,477.31076853557647C1815.578125,489.62153707115294,1758.73828125,500.24307414230594,1730.318359375,505.5538426778824L1701.8984375,510.86461121345894" stroke="black" stroke-dasharray="none" stroke-width="2" fill="none" marker-end="url(#arrow)"/><path transform="rotate(0,0, 0) scale(1)" d="M715.75390625,538L715.75390625,542.1666666666666C715.75390625,546.3333333333334,715.75390625,554.6666666666666,738.1647135416666,563.2953261855823C760.5755208333334,571.9239857044979,805.3971354166666,580.8479714089958,827.8079427083334,585.3099642612448L850.21875,589.7719571134937" stroke="black" stroke-dasharray="none" stroke-width="2" fill="none" marker-end="url(#arrow)"/><path transform="rotate(0,0, 0) scale(1)" d="M663.25390625,445.8280319782276L642.0930989583334,451.35669331518966C620.9322916666666,456.88535465215176,578.6106770833334,467.94267732607585,557.4498697916666,480.4713386630379C536.2890625,493,536.2890625,507,536.2890625,521C536.2890625,535,536.2890625,549,645.7721354166666,562.1098267996076C755.2552083333334,575.2196535992152,974.2213541666666,587.4393071984305,1083.7044270833333,593.5491339980381L1193.1875,599.6589607976457" stroke="black" stroke-dasharray="none" stroke-width="2" fill="none" marker-end="url(#arrow)"/><path transform="rotate(0,0, 0) scale(1)" d="M663.25390625,447.0824244442594L645.4264322916666,452.4020203702162C627.5989583333334,457.72161629617295,591.9440104166666,468.3608081480865,589.9498697916666,477.850602246642C587.9557291666666,487.3403963451976,619.6223958333334,495.6807926903951,635.4557291666666,499.8509908629939L651.2890625,504.02118903559267" stroke="black" stroke-dasharray="none" stroke-width="2" fill="none" marker-end="url(#arrow)"/><path transform="rotate(0,0, 0) scale(1)" d="M663.25390625,448.75233720441236L648.759765625,453.7936143370103C634.265625,458.83489146960824,605.27734375,468.9174457348042,590.783203125,480.95872286740206C576.2890625,493,576.2890625,507,576.2890625,521C576.2890625,535,576.2890625,549,738.7337239583334,562.6482121514323C901.1783854166666,576.2964243028647,1226.0677083333333,589.5928486057293,1388.5123697916667,596.2410607571616L1550.95703125,602.889272908594" stroke="black" stroke-dasharray="none" stroke-width="2" fill="none" marker-end="url(#arrow)"/><path transform="rotate(0,0, 0) scale(1)" d="M663.25390625,451.0852169193192L652.0930989583334,455.73768076609934C640.9322916666666,460.3901446128795,618.6106770833334,469.6950723064397,773.638671875,480.98641915941334C928.6666666666666,492.2777660123871,1261.0442708333333,505.5555320247742,1427.2330729166667,512.1944150309678L1593.421875,518.8332980371613" stroke="black" stroke-dasharray="none" stroke-width="2" fill="none" marker-end="url(#arrow)"/><path transform="rotate(0,0, 0) scale(1)" d="M664.3568638392857,454L656.3455636160714,458.1666666666667C648.3342633928571,462.3333333333333,632.3116629464286,470.6666666666667,624.3003627232143,481.8333333333333C616.2890625,493,616.2890625,507,616.2890625,521C616.2890625,535,616.2890625,549,616.2890625,563C616.2890625,577,616.2890625,591,616.2890625,605C616.2890625,619,616.2890625,633,616.2890625,647C616.2890625,661,616.2890625,675,616.2890625,689C616.2890625,703,616.2890625,717,716.4580078125,730.3815447604884C816.626953125,743.7630895209768,1016.96484375,756.5261790419535,1117.1337890625,762.9077238024419L1217.302734375,769.2892685629301" stroke="black" stroke-dasharray="none" stroke-width="2" fill="none" marker-end="url(#arrow)"/><path transform="rotate(0,0, 0) scale(1)" d="M730.83203125,449.00872640729847L744.896484375,454.0072720060821C758.9609375,459.0058176048656,787.08984375,469.00290880243284,801.154296875,481.00145440121645C815.21875,493,815.21875,507,815.21875,521C815.21875,535,815.21875,549,815.21875,563C815.21875,577,815.21875,591,815.21875,605C815.21875,619,815.21875,633,815.21875,647C815.21875,661,815.21875,675,815.21875,689C815.21875,703,815.21875,717,918.1946614583334,730.4265432277912C1021.1705729166666,743.8530864555823,1227.1223958333333,756.7061729111647,1330.0983072916667,763.1327161389557L1433.07421875,769.5592593667469" stroke="black" stroke-dasharray="none" stroke-width="2" fill="none" marker-end="url(#arrow)"/><path transform="rotate(0,0, 0) scale(1)" d="M730.83203125,441.159939541754L782.0579427083334,447.466616284795C833.2838541666666,453.773293027836,935.7356770833334,466.38664651391804,986.9615885416666,479.693323256959C1038.1875,493,1038.1875,507,1038.1875,521C1038.1875,535,1038.1875,549,1038.1875,563C1038.1875,577,1038.1875,591,1038.1875,605C1038.1875,619,1038.1875,633,1038.1875,647C1038.1875,661,1038.1875,675,1038.1875,689C1038.1875,703,1038.1875,717,1130.712890625,730.1938598894258C1223.23828125,743.3877197788514,1408.2890625,755.7754395577027,1500.814453125,761.9692994471285L1593.33984375,768.1631593365543" stroke="black" stroke-dasharray="none" stroke-width="2" fill="none" marker-end="url(#arrow)"/><path transform="rotate(0,0, 0) scale(1)" d="M730.83203125,440.9295642110045L785.3912760416666,447.27463684250375C839.9505208333334,453.619709474003,949.0690104166666,466.30985473700156,1003.6282552083334,479.65492736850075C1058.1875,493,1058.1875,507,1058.1875,521C1058.1875,535,1058.1875,549,1045.1434151785713,560.1666666666666C1032.099330357143,571.3333333333334,1006.0111607142857,579.6666666666666,992.967075892857,583.8333333333334L979.9229910714286,588" stroke="black" stroke-dasharray="none" stroke-width="2" fill="none" marker-end="url(#arrow)"/><path transform="rotate(0,0, 0) scale(1)" d="M1593.421875,537.6772477693892L1579.6959635416667,541.897706474491C1565.9700520833333,546.1181651795928,1538.5182291666667,554.5590825897964,1502.7514570932537,562.9462079615649C1466.9846850198412,571.3333333333334,1422.9029637896826,579.6666666666666,1400.8621031746031,583.8333333333334L1378.8212425595239,588" stroke="black" stroke-dasharray="none" stroke-width="2" fill="none" marker-end="url(#arrow)"/><path transform="rotate(0,0, 0) scale(1)" d="M1629.3936941964287,538L1624.9166201636906,542.1666666666666C1620.4395461309523,546.3333333333334,1611.4853980654761,554.6666666666666,1607.0083240327378,563C1602.53125,571.3333333333334,1602.53125,579.6666666666666,1602.53125,583.8333333333334L1602.53125,588" stroke="black" stroke-dasharray="none" stroke-width="2" fill="none" marker-end="url(#arrow)"/><path transform="rotate(0,0, 0) scale(1)" d="M1664.4356398809523,538L1668.5472780257935,542.1666666666666C1672.658916170635,546.3333333333334,1680.8821924603174,554.6666666666666,1684.9938306051588,565.8333333333334C1689.10546875,577,1689.10546875,591,1689.10546875,605C1689.10546875,619,1689.10546875,633,1689.10546875,647C1689.10546875,661,1689.10546875,675,1689.10546875,689C1689.10546875,703,1689.10546875,717,1664.8111979166667,729.0789811394128C1640.5169270833333,741.1579622788255,1591.9283854166667,751.3159245576511,1567.6341145833333,756.394905697064L1543.33984375,761.4738868364767" stroke="black" stroke-dasharray="none" stroke-width="2" fill="none" marker-end="url(#arrow)"/><path transform="rotate(0,0, 0) scale(1)" d="M1672.5308779761904,538L1678.6266431051588,542.1666666666666C1684.722408234127,546.3333333333334,1696.9139384920636,554.6666666666666,1703.0097036210318,565.8333333333334C1709.10546875,577,1709.10546875,591,1709.10546875,605C1709.10546875,619,1709.10546875,633,1709.10546875,647C1709.10546875,661,1709.10546875,675,1709.10546875,689C1709.10546875,703,1709.10546875,717,1704.788829985119,728.1666666666666C1700.4721912202378,739.3333333333334,1691.8389136904761,747.6666666666666,1687.5222749255952,751.8333333333334L1683.2056361607142,756" stroke="black" stroke-dasharray="none" stroke-width="2" fill="none" marker-end="url(#arrow)"/><path transform="rotate(0,0, 0) scale(1)" d="M1584.96484375,442.5996686390533L1537.2864583333333,448.6663905325444C1489.6080729166667,454.7331124260356,1394.2513020833333,466.86655621301776,1260.126953125,479.1594443399967C1126.0026041666667,491.45233246697563,953.1106770833334,503.9046649339514,866.6647135416666,510.1308311674392L780.21875,516.3569974009271" stroke="black" stroke-dasharray="none" stroke-width="2" fill="none" marker-end="url(#arrow)"/><path transform="rotate(0,0, 0) scale(1)" d="M1584.96484375,445.8280005223978L1557.404296875,451.3566671019982C1529.84375,456.8853336815985,1474.72265625,467.9426668407993,1447.162109375,480.4713334203996C1419.6015625,493,1419.6015625,507,1419.6015625,521C1419.6015625,535,1419.6015625,549,1419.6015625,563C1419.6015625,577,1419.6015625,591,1419.6015625,605C1419.6015625,619,1419.6015625,633,1419.6015625,647C1419.6015625,661,1419.6015625,675,1419.6015625,689C1419.6015625,703,1419.6015625,717,1405.3004557291667,728.1696291776829C1390.9993489583333,739.3392583553658,1362.3971354166667,747.6785167107315,1348.0960286458333,751.8481458884144L1333.794921875,756.0177750660972" stroke="black" stroke-dasharray="none" stroke-width="2" fill="none" marker-end="url(#arrow)"/><path transform="rotate(0,0, 0) scale(1)" d="M1672.98046875,451.60046901999505L1686.7447916666667,456.1670575166625C1700.5091145833333,460.73364601333,1728.0377604166667,469.866823006665,1741.8020833333333,481.43341150333254C1755.56640625,493,1755.56640625,507,1755.56640625,521C1755.56640625,535,1755.56640625,549,1755.56640625,563C1755.56640625,577,1755.56640625,591,1755.56640625,605C1755.56640625,619,1755.56640625,633,1755.56640625,647C1755.56640625,661,1755.56640625,675,1755.56640625,689C1755.56640625,703,1755.56640625,717,1720.1953125,729.5565133539827C1684.82421875,742.1130267079657,1614.08203125,753.2260534159313,1578.7109375,758.7825667699141L1543.33984375,764.3390801238969" stroke="black" stroke-dasharray="none" stroke-width="2" fill="none" marker-end="url(#arrow)"/><path transform="rotate(0,0, 0) scale(1)" d="M1672.98046875,445.2719485332681L1702.88671875,450.89329044439006C1732.79296875,456.51463235551205,1792.60546875,467.7573161777561,1822.51171875,480.378658088878C1852.41796875,493,1852.41796875,507,1852.41796875,521C1852.41796875,535,1852.41796875,549,1852.41796875,563C1852.41796875,577,1852.41796875,591,1852.41796875,605C1852.41796875,619,1852.41796875,633,1852.41796875,647C1852.41796875,661,1852.41796875,675,1852.41796875,689C1852.41796875,703,1852.41796875,717,1833.3229166666667,728.2927635017877C1814.2278645833333,739.5855270035754,1776.0377604166667,748.1710540071508,1756.9427083333333,752.4638175089384L1737.84765625,756.7565810107261" stroke="black" stroke-dasharray="none" stroke-width="2" fill="none" marker-end="url(#arrow)"/><path transform="rotate(0,0, 0) scale(1)" d="M1492.5556640625,706L1488.0187174479167,710.1666666666666C1483.4817708333333,714.3333333333334,1474.4078776041667,722.6666666666666,1447.94775390625,731.684995368941C1421.4876302083333,740.7033240712153,1377.6412760416667,750.4066481424308,1355.7180989583333,755.2583101780384L1333.794921875,760.1099722136462" stroke="black" stroke-dasharray="none" stroke-width="2" fill="none" marker-end="url(#arrow)"/><path transform="rotate(0,0, 0) scale(1)" d="M1511.06640625,706L1511.06640625,710.1666666666666C1511.06640625,714.3333333333334,1511.06640625,722.6666666666666,1508.798611111111,731C1506.5308159722224,739.3333333333334,1501.9952256944446,747.6666666666666,1499.7274305555557,751.8333333333334L1497.4596354166667,756" stroke="black" stroke-dasharray="none" stroke-width="2" fill="none" marker-end="url(#arrow)"/><path transform="rotate(0,0, 0) scale(1)" d="M1529.5771484375,706L1534.1140950520833,710.1666666666666C1538.6510416666667,714.3333333333334,1547.7249348958333,722.6666666666666,1563.0550285218253,731C1578.3851221478174,739.3333333333334,1599.971416170635,747.6666666666666,1610.7645631820435,751.8333333333334L1621.5577101934523,756" stroke="black" stroke-dasharray="none" stroke-width="2" fill="none" marker-end="url(#arrow)"/><path transform="rotate(0,0, 0) scale(1)" d="M1602.53125,622L1602.53125,626.1666666666666C1602.53125,630.3333333333334,1602.53125,638.6666666666666,1602.53125,649.8333333333334C1602.53125,661,1602.53125,675,1602.53125,689C1602.53125,703,1602.53125,717,1557.7418619791667,729.7530746946212C1512.9524739583333,742.5061493892423,1423.3736979166667,754.0122987784847,1378.5843098958333,759.7653734731057L1333.794921875,765.5184481677269" stroke="black" stroke-dasharray="none" stroke-width="2" fill="none" marker-end="url(#arrow)"/><g transform="translate(408.57421875, 252)"><rect width="148.7421875" height="34" stroke="black" fill="white" stroke-width="2" transform="translate(0, 0)" rx="3"/><g transform="translate(8, 8)"><g transform="translate(0, 0)"><rect width="132.7421875" height="18" stroke="none" fill="white" stroke-width="0" transform="translate(0, 0)" rx="3"/><text fill="black" font-size="16" font-weight="normal" transform="translate(0, 0)" alignment-baseline="middle" font-family="Arial"><tspan x="0" dy="16" font-family="Arial" font-size="16" font-weight="normal">@intlayer/chokidar</tspan></text></g></g></g><g transform="translate(0, 168)"><rect width="148.7578125" height="34" stroke="black" fill="white" stroke-width="2" transform="translate(0, 0)" rx="3"/><g transform="translate(8, 8)"><g transform="translate(0, 0)"><rect width="132.7578125" height="18" stroke="none" fill="white" stroke-width="0" transform="translate(0, 0)" rx="3"/><text fill="black" font-size="16" font-weight="normal" transform="translate(0, 0)" alignment-baseline="middle" font-family="Arial"><tspan x="0" dy="16" font-family="Arial" font-size="16" font-weight="normal">@intlayer/backend</tspan></text></g></g></g><g transform="translate(1193.1875, 588)"><rect width="191.4140625" height="34" stroke="black" fill="white" stroke-width="2" transform="translate(0, 0)" rx="3"/><g transform="translate(8, 8)"><g transform="translate(0, 0)"><rect width="175.4140625" height="18" stroke="none" fill="white" stroke-width="0" transform="translate(0, 0)" rx="3"/><text fill="black" font-size="16" font-weight="normal" transform="translate(0, 0)" alignment-baseline="middle" font-family="Arial"><tspan x="0" dy="16" font-family="Arial" font-size="16" font-weight="normal">@intlayer/design-system</tspan></text></g></g></g><g transform="translate(655.35546875, 336)"><rect width="103.375" height="34" stroke="black" fill="white" stroke-width="2" transform="translate(0, 0)" rx="3"/><g transform="translate(8, 8)"><g transform="translate(0, 0)"><rect width="87.375" height="18" stroke="none" fill="white" stroke-width="0" transform="translate(0, 0)" rx="3"/><text fill="black" font-size="16" font-weight="normal" transform="translate(0, 0)" alignment-baseline="middle" font-family="Arial"><tspan x="0" dy="16" font-family="Arial" font-size="16" font-weight="normal">@intlayer/cli</tspan></text></g></g></g><g transform="translate(1565.107421875, 336)"><rect width="151.4140625" height="34" stroke="black" fill="white" stroke-width="2" transform="translate(0, 0)" rx="3"/><g transform="translate(8, 8)"><g transform="translate(0, 0)"><rect width="135.4140625" height="18" stroke="none" fill="white" stroke-width="0" transform="translate(0, 0)" rx="3"/><text fill="black" font-size="16" font-weight="normal" transform="translate(0, 0)" alignment-baseline="middle" font-family="Arial"><tspan x="0" dy="16" font-family="Arial" font-size="16" font-weight="normal">@intlayer/webpack</tspan></text></g></g></g><g transform="translate(651.2890625, 504)"><rect width="128.9296875" height="34" stroke="black" fill="white" stroke-width="2" transform="translate(0, 0)" rx="3"/><g transform="translate(8, 8)"><g transform="translate(0, 0)"><rect width="112.9296875" height="18" stroke="none" fill="white" stroke-width="0" transform="translate(0, 0)" rx="3"/><text fill="black" font-size="16" font-weight="normal" transform="translate(0, 0)" alignment-baseline="middle" font-family="Arial"><tspan x="0" dy="16" font-family="Arial" font-size="16" font-weight="normal">express-intlayer</tspan></text></g></g></g><g transform="translate(1593.421875, 504)"><rect width="108.4765625" height="34" stroke="black" fill="white" stroke-width="2" transform="translate(0, 0)" rx="3"/><g transform="translate(8, 8)"><g transform="translate(0, 0)"><rect width="92.4765625" height="18" stroke="none" fill="white" stroke-width="0" transform="translate(0, 0)" rx="3"/><text fill="black" font-size="16" font-weight="normal" transform="translate(0, 0)" alignment-baseline="middle" font-family="Arial"><tspan x="0" dy="16" font-family="Arial" font-size="16" font-weight="normal">react-intlayer</tspan></text></g></g></g><g transform="translate(663.25390625, 420)"><rect width="67.578125" height="34" stroke="black" fill="white" stroke-width="2" transform="translate(0, 0)" rx="3"/><g transform="translate(8, 8)"><g transform="translate(0, 0)"><rect width="51.578125" height="18" stroke="none" fill="white" stroke-width="0" transform="translate(0, 0)" rx="3"/><text fill="black" font-size="16" font-weight="normal" transform="translate(0, 0)" alignment-baseline="middle" font-family="Arial"><tspan x="0" dy="16" font-family="Arial" font-size="16" font-weight="normal">inltayer</tspan></text></g></g></g><g transform="translate(1584.96484375, 420)"><rect width="88.015625" height="34" stroke="black" fill="white" stroke-width="2" transform="translate(0, 0)" rx="3"/><g transform="translate(8, 8)"><g transform="translate(0, 0)"><rect width="72.015625" height="18" stroke="none" fill="white" stroke-width="0" transform="translate(0, 0)" rx="3"/><text fill="black" font-size="16" font-weight="normal" transform="translate(0, 0)" alignment-baseline="middle" font-family="Arial"><tspan x="0" dy="16" font-family="Arial" font-size="16" font-weight="normal">intlayer-cli</tspan></text></g></g></g><g transform="translate(2092.337890625, 84)"><rect width="130.9609375" height="34" stroke="black" fill="white" stroke-width="2" transform="translate(0, 0)" rx="3"/><g transform="translate(8, 8)"><g transform="translate(0, 0)"><rect width="114.9609375" height="18" stroke="none" fill="white" stroke-width="0" transform="translate(0, 0)" rx="3"/><text fill="black" font-size="16" font-weight="normal" transform="translate(0, 0)" alignment-baseline="middle" font-family="Arial"><tspan x="0" dy="16" font-family="Arial" font-size="16" font-weight="normal">@intlayer/config</tspan></text></g></g></g><g transform="translate(1217.158203125, 168)"><rect width="119.390625" height="34" stroke="black" fill="white" stroke-width="2" transform="translate(0, 0)" rx="3"/><g transform="translate(8, 8)"><g transform="translate(0, 0)"><rect width="103.390625" height="18" stroke="none" fill="white" stroke-width="0" transform="translate(0, 0)" rx="3"/><text fill="black" font-size="16" font-weight="normal" transform="translate(0, 0)" alignment-baseline="middle" font-family="Arial"><tspan x="0" dy="16" font-family="Arial" font-size="16" font-weight="normal">@intlayer/core</tspan></text></g></g></g><g transform="translate(1842.724609375, 252)"><rect width="210.09375" height="34" stroke="black" fill="white" stroke-width="2" transform="translate(0, 0)" rx="3"/><g transform="translate(8, 8)"><g transform="translate(0, 0)"><rect width="194.09375" height="18" stroke="none" fill="white" stroke-width="0" transform="translate(0, 0)" rx="3"/><text fill="black" font-size="16" font-weight="normal" transform="translate(0, 0)" alignment-baseline="middle" font-family="Arial"><tspan x="0" dy="16" font-family="Arial" font-size="16" font-weight="normal">@intlayer/dictionaries-entry</tspan></text></g></g></g><g transform="translate(1454.6015625, 672)"><rect width="112.9296875" height="34" stroke="black" fill="white" stroke-width="2" transform="translate(0, 0)" rx="3"/><g transform="translate(8, 8)"><g transform="translate(0, 0)"><rect width="96.9296875" height="18" stroke="none" fill="white" stroke-width="0" transform="translate(0, 0)" rx="3"/><text fill="black" font-size="16" font-weight="normal" transform="translate(0, 0)" alignment-baseline="middle" font-family="Arial"><tspan x="0" dy="16" font-family="Arial" font-size="16" font-weight="normal">intlayer-editor</tspan></text></g></g></g><g transform="translate(1550.95703125, 588)"><rect width="103.1484375" height="34" stroke="black" fill="white" stroke-width="2" transform="translate(0, 0)" rx="3"/><g transform="translate(8, 8)"><g transform="translate(0, 0)"><rect width="87.1484375" height="18" stroke="none" fill="white" stroke-width="0" transform="translate(0, 0)" rx="3"/><text fill="black" font-size="16" font-weight="normal" transform="translate(0, 0)" alignment-baseline="middle" font-family="Arial"><tspan x="0" dy="16" font-family="Arial" font-size="16" font-weight="normal">next-intlayer</tspan></text></g></g></g><g transform="translate(850.21875, 588)"><rect width="152.96875" height="34" stroke="black" fill="white" stroke-width="2" transform="translate(0, 0)" rx="3"/><g transform="translate(8, 8)"><g transform="translate(0, 0)"><rect width="136.96875" height="18" stroke="none" fill="white" stroke-width="0" transform="translate(0, 0)" rx="3"/><text fill="black" font-size="16" font-weight="normal" transform="translate(0, 0)" alignment-baseline="middle" font-family="Arial"><tspan x="0" dy="16" font-family="Arial" font-size="16" font-weight="normal">express application</tspan></text></g></g></g><g transform="translate(1217.302734375, 756)"><rect width="116.4921875" height="34" stroke="black" fill="white" stroke-width="2" transform="translate(0, 0)" rx="3"/><g transform="translate(8, 8)"><g transform="translate(0, 0)"><rect width="100.4921875" height="18" stroke="none" fill="white" stroke-width="0" transform="translate(0, 0)" rx="3"/><text fill="black" font-size="16" font-weight="normal" transform="translate(0, 0)" alignment-baseline="middle" font-family="Arial"><tspan x="0" dy="16" font-family="Arial" font-size="16" font-weight="normal">nextjs website</tspan></text></g></g></g><g transform="translate(1433.07421875, 756)"><rect width="110.265625" height="34" stroke="black" fill="white" stroke-width="2" transform="translate(0, 0)" rx="3"/><g transform="translate(8, 8)"><g transform="translate(0, 0)"><rect width="94.265625" height="18" stroke="none" fill="white" stroke-width="0" transform="translate(0, 0)" rx="3"/><text fill="black" font-size="16" font-weight="normal" transform="translate(0, 0)" alignment-baseline="middle" font-family="Arial"><tspan x="0" dy="16" font-family="Arial" font-size="16" font-weight="normal">react website</tspan></text></g></g></g><g transform="translate(1593.33984375, 756)"><rect width="144.5078125" height="34" stroke="black" fill="white" stroke-width="2" transform="translate(0, 0)" rx="3"/><g transform="translate(8, 8)"><g transform="translate(0, 0)"><rect width="128.5078125" height="18" stroke="none" fill="white" stroke-width="0" transform="translate(0, 0)" rx="3"/><text fill="black" font-size="16" font-weight="normal" transform="translate(0, 0)" alignment-baseline="middle" font-family="Arial"><tspan x="0" dy="16" font-family="Arial" font-size="16" font-weight="normal">vite+react website</tspan></text></g></g></g></svg>