<svg xmlns="http://www.w3.org/2000/svg" id="mainsvg" width="1934.319921875" height="716.2" viewBox="-10 -10 1758.47265625 652"><defs><marker id="arrow" viewBox="0 0 10 10" refX="10" refY="5" markerWidth="5" markerHeight="5" orient="auto-start-reverse" fill="black"><path stroke="black" d="M 0 0 L 10 5 L 0 10 z"/></marker><marker id="Many" viewBox="0 0 16 16" refX="15" refY="8" markerWidth="15" markerHeight="15" orient="auto-start-reverse"><path stroke="black" d="M0 8H15M15 15L2 8L15 1" fill="none"/></marker><marker id="ZeroOrOne" viewBox="0 0 16 10" refX="15" refY="5" markerWidth="21" markerHeight="21" orient="auto-start-reverse"><path d="M9 5H16" stroke="black" fill="none"/><circle cx="5" cy="5" r="4.5" stroke="black" fill="#fff"/><path d="M12 0L12 10" stroke="black" fill="none"/></marker><marker id="OneOnlyOne" viewBox="0 0 10 14" refX="10" refY="7" markerWidth="13" markerHeight="13" orient="auto-start-reverse"><path d="M0 7H4M4 7H7M4 7V0M4 7V14M7 7H10M7 7V0M7 7V14" stroke="black" fill="none"/></marker><marker id="OneOrMany" viewBox="0 0 16 16" refX="15" refY="8" markerWidth="15" markerHeight="15" orient="auto-start-reverse"><path stroke="black" d="M2 1V15M2 8L15 15M2 8L15 1M2 8H0M2 8H15" fill="none"/></marker><marker id="ZeroOrMany" viewBox="0 0 25 16" refX="23" refY="8" markerWidth="25" markerHeight="25" orient="auto-start-reverse"><path d="M13 8H27M27 15L14 8L27 1" stroke="black" fill="none"/><path d="M13.5 7.5C13.5 10.7795 10.6254 13.5 7 13.5C3.37461 13.5 0.5 10.7795 0.5 7.5C0.5 4.22054 3.37461 1.5 7 1.5C10.6254 1.5 13.5 4.22054 13.5 7.5Z" stroke="black" fill="#fff"/></marker><marker id="aggregation" viewBox="0 0 10 6" refX="9.3" refY="2.8" markerWidth="23" markerHeight="15" orient="auto-start-reverse"><path stroke="black" fill="#fff" stroke-width="0.7" d="M1.01614 2.82609L5 0.574341L8.98386 2.82609L5 5.07783L1.01614 2.82609Z"/></marker><marker id="composition" viewBox="0 0 10 6" refX="9.7" refY="2.8" markerWidth="18" markerHeight="15" orient="auto-start-reverse"><path stroke="black" fill="black" d="M1.01614 2.82609L5 0.574341L8.98386 2.82609L5 5.07783L1.01614 2.82609Z"/></marker><marker id="implementation" viewBox="0 0 8 10" refX="8" refY="5" markerWidth="20" markerHeight="20" orient="auto-start-reverse"><path stroke="black" fill="#fff" stroke-width="0.7" d="M0.750001 1.10289L7.5 5L0.750001 8.89712L0.750001 1.10289Z"/></marker><marker id="dependency" viewBox="0 0 12 12" refX="11" refY="6" markerWidth="12" markerHeight="11" orient="auto-start-reverse"><path stroke="black" fill="#fff" d="M1 5.93162H10.886M10.886 5.93162L1 0.5M10.886 5.93162L1 11"/></marker><marker id="inheritance" viewBox="0 0 8 10" refX="8" refY="5" markerWidth="20" markerHeight="20" orient="auto-start-reverse"><path stroke="black" fill="#fff" stroke-width="0.7" d="M0.750001 1.10289L7.5 5L0.750001 8.89712L0.750001 1.10289Z"/></marker><marker id="association" viewBox="0 0 12 12" refX="11" refY="6" markerWidth="12" markerHeight="11" orient="auto-start-reverse"><path stroke="black" d="M1 5.93162H10.886M10.886 5.93162L1 0.5M10.886 5.93162L1 11"/></marker><filter id="shadowOLD" x="-50%" y="-50%" width="250%" height="250%"><feDropShadow flood-color="black" flood-opacity="0.3" dx="1" dy="1" stdDeviation="2"> </feDropShadow></filter><filter id="shadow-path" filterUnits="userSpaceOnUse" x="-10" y="-10" width="1758.47265625px" height="642px"><feDropShadow flood-color="black" flood-opacity="0.1" dx="1" dy="1" stdDeviation="1"> </feDropShadow></filter><filter id="shadow" filterUnits="userSpaceOnUse" x="-10" y="-10" width="1858.47265625px" height="742px"><feDropShadow flood-color="black" flood-opacity="0.1" dx="1" dy="1" stdDeviation="1"> </feDropShadow></filter></defs><rect x="-10" y="-10" width="1758.47265625" height="642" fill="#fff"/><path transform="rotate(0,0, 0) scale(1)" d="M542.00390625,186.3772762684267L708.1051432291666,193.1477302236889C874.2063802083334,199.91818417895115,1206.4088541666667,213.45909208947558,1372.5100911458333,227.22954604473776C1538.611328125,241,1538.611328125,255,1538.611328125,269C1538.611328125,283,1538.611328125,297,1538.611328125,311C1538.611328125,325,1538.611328125,339,1538.611328125,353C1538.611328125,367,1538.611328125,381,1538.611328125,395C1538.611328125,409,1538.611328125,423,1538.611328125,437C1538.611328125,451,1538.611328125,465,1538.611328125,479C1538.611328125,493,1538.611328125,507,1538.611328125,521C1538.611328125,535,1538.611328125,549,1550.3473229786705,560.1666666666666C1562.0833178323412,571.3333333333334,1585.5553075396826,579.6666666666666,1597.2913023933531,583.8333333333334L1609.0272972470239,588" stroke="black" stroke-dasharray="none" stroke-width="2" fill="none" marker-end="url(#arrow)"/><path transform="rotate(0,0, 0) scale(1)" d="M474.42578125,187.96901049328233L400.3932291666667,194.47417541106861C326.3606770833333,200.97934032885487,178.29557291666666,213.98967016442745,104.26302083333333,227.49483508221374C30.23046875,241,30.23046875,255,30.23046875,269C30.23046875,283,30.23046875,297,30.23046875,311C30.23046875,325,30.23046875,339,30.23046875,353C30.23046875,367,30.23046875,381,30.23046875,395C30.23046875,409,30.23046875,423,30.23046875,437C30.23046875,451,30.23046875,465,32.700939360119044,476.1666666666667C35.171409970238095,487.3333333333333,40.11235119047619,495.6666666666667,42.582821800595234,499.8333333333333L45.053292410714285,504" stroke="black" stroke-dasharray="none" stroke-width="2" fill="none" marker-end="url(#arrow)"/><path transform="rotate(0,0, 0) scale(1)" d="M474.42578125,188.5658199521024L413.7265625,194.971516626752C353.02734375,201.3772133014016,231.62890625,214.1886066507008,170.9296875,227.5943033253504C110.23046875,241,110.23046875,255,110.23046875,269C110.23046875,283,110.23046875,297,110.23046875,311C110.23046875,325,110.23046875,339,110.23046875,353C110.23046875,367,110.23046875,381,110.23046875,395C110.23046875,409,110.23046875,423,110.23046875,437C110.23046875,451,110.23046875,465,212.31315104166666,478.2613693410003C314.3958333333333,491.5227386820007,518.5611979166666,504.04547736400144,620.6438802083334,510.30684670500176L722.7265625,516.5682160460021" stroke="black" stroke-dasharray="none" stroke-width="2" fill="none" marker-end="url(#arrow)"/><path transform="rotate(0,0, 0) scale(1)" d="M542.00390625,196.49338015470033L556.9514973958334,201.57781679558363C571.8990885416666,206.6622534364669,601.7942708333334,216.83112671823346,622.1670154389881,226.0822300257834C642.5397600446428,235.33333333333334,653.3900669642857,243.66666666666666,658.8152204241071,247.83333333333334L664.2403738839286,252" stroke="black" stroke-dasharray="none" stroke-width="2" fill="none" marker-end="url(#arrow)"/><path transform="rotate(0,0, 0) scale(1)" d="M478.234375,438.9515566070885L663.7408854166666,445.62629717257374C849.2473958333334,452.301037738059,1220.2604166666667,465.65051886902955,1411.7813120039682,476.49192610118143C1603.3022073412696,487.3333333333333,1615.3309771825398,495.6666666666667,1621.3453621031747,499.8333333333333L1627.3597470238096,504" stroke="black" stroke-dasharray="none" stroke-width="2" fill="none" marker-end="url(#arrow)"/><path transform="rotate(0,0, 0) scale(1)" d="M369.7578125,443.09474938338695L316.5032552083333,449.0789578194892C263.2486979166667,455.0631662555913,156.73958333333334,467.0315831277956,103.97136966765873,477.18245823056446C51.20315600198413,487.3333333333333,52.17584325396825,495.6666666666667,52.66218687996032,499.8333333333333L53.14853050595238,504" stroke="black" stroke-dasharray="none" stroke-width="2" fill="none" marker-end="url(#arrow)"/><path transform="rotate(0,0, 0) scale(1)" d="M423.99609375,454L423.99609375,458.1666666666667C423.99609375,462.3333333333333,423.99609375,470.6666666666667,473.7845052083333,480.46999466509425C523.5729166666666,490.27332266352187,623.1497395833334,501.54664532704373,672.9381510416666,507.18330665880467L722.7265625,512.8199679905656" stroke="black" stroke-dasharray="none" stroke-width="2" fill="none" marker-end="url(#arrow)"/><path transform="rotate(0,0, 0) scale(1)" d="M1067.158203125,440.4518449350005L1149.0670572916667,446.8765374458338C1230.9759114583333,453.301229956667,1394.7936197916667,466.1506149783335,1476.7024739583333,479.5753074891668C1558.611328125,493,1558.611328125,507,1558.611328125,521C1558.611328125,535,1558.611328125,549,1568.3631959945435,560.1666666666666C1578.1150638640872,571.3333333333334,1597.6187996031747,579.6666666666666,1607.3706674727182,583.8333333333334L1617.122535342262,588" stroke="black" stroke-dasharray="none" stroke-width="2" fill="none" marker-end="url(#arrow)"/><path transform="rotate(0,0, 0) scale(1)" d="M979.142578125,438.9396468502444L827.6572265625,445.61637237520364C676.171875,452.2930979001629,373.201171875,465.64654895008147,220.21803695436506,476.48994114170745C67.23490203373017,487.3333333333333,64.23933531746032,495.6666666666667,62.7415519593254,499.8333333333333L61.243768601190474,504" stroke="black" stroke-dasharray="none" stroke-width="2" fill="none" marker-end="url(#arrow)"/><path transform="rotate(0,0, 0) scale(1)" d="M1023.150390625,454L1023.150390625,458.1666666666667C1023.150390625,462.3333333333333,1023.150390625,470.6666666666667,997.1643880208334,479.61666367068125C971.1783854166666,488.56666067469587,919.2063802083334,498.1333213493918,893.2203776041666,502.9166516867397L867.234375,507.6999820240877" stroke="black" stroke-dasharray="none" stroke-width="2" fill="none" marker-end="url(#arrow)"/><path transform="rotate(0,0, 0) scale(1)" d="M1651.8984375,538L1651.8984375,542.1666666666666C1651.8984375,546.3333333333334,1651.8984375,554.6666666666666,1652.3956318204364,563C1652.892826140873,571.3333333333334,1653.8872147817463,579.6666666666666,1654.3844091021826,583.8333333333334L1654.881603422619,588" stroke="black" stroke-dasharray="none" stroke-width="2" fill="none" marker-end="url(#arrow)"/><path transform="rotate(0,0, 0) scale(1)" d="M670.44921875,358.0234994290632L601.1790364583334,364.18624952421925C531.9088541666666,370.34899961937543,393.3684895833333,382.6744998096877,343.2532552083333,393.59292450710217C293.1380208333333,404.5113492045166,331.4479166666667,414.0226984090332,350.6028645833333,418.7783730112915L369.7578125,423.5340476135498" stroke="black" stroke-dasharray="none" stroke-width="2" fill="none" marker-end="url(#arrow)"/><path transform="rotate(0,0, 0) scale(1)" d="M783.37890625,355.3444251792755L942.5611979166666,361.9536876493962C1101.7434895833333,368.562950119517,1420.1080729166667,381.7814750597585,1579.2903645833333,395.39073752987923C1738.47265625,409,1738.47265625,423,1738.47265625,437C1738.47265625,451,1738.47265625,465,1738.47265625,479C1738.47265625,493,1738.47265625,507,1738.47265625,521C1738.47265625,535,1738.47265625,549,1730.381138392857,560.1666666666666C1722.2896205357144,571.3333333333334,1706.1065848214287,579.6666666666666,1698.015066964286,583.8333333333334L1689.923549107143,588" stroke="black" stroke-dasharray="none" stroke-width="2" fill="none" marker-end="url(#arrow)"/><path transform="rotate(0,0, 0) scale(1)" d="M670.44921875,356.72480689117805L573.74609375,363.1040057426483C477.04296875,369.4832045941187,283.63671875,382.2416022970594,186.93359375,395.62080114852967C90.23046875,409,90.23046875,423,90.23046875,437C90.23046875,451,90.23046875,465,86.74855840773809,476.1666666666667C83.26664806547619,487.3333333333333,76.30282738095238,495.6666666666667,72.82091703869047,499.8333333333333L69.33900669642857,504" stroke="black" stroke-dasharray="none" stroke-width="2" fill="none" marker-end="url(#arrow)"/><path transform="rotate(0,0, 0) scale(1)" d="M783.37890625,356.437924707801L888.9368489583334,362.8649372565008C994.4947916666666,369.29194980520066,1205.6106770833333,382.1459749026003,1311.1686197916667,395.57298745130015C1416.7265625,409,1416.7265625,423,1416.7265625,437C1416.7265625,451,1416.7265625,465,1325.14453125,478.18652107534854C1233.5625,491.3730421506971,1050.3984375,503.74608430139415,958.81640625,509.9326053767427L867.234375,516.1191264520912" stroke="black" stroke-dasharray="none" stroke-width="2" fill="none" marker-end="url(#arrow)"/><path transform="rotate(0,0, 0) scale(1)" d="M612.00390625,276.5898667375375L555.8079427083334,282.3248889479479C499.6119791666667,288.0599111583583,387.2200520833333,299.52995557917916,331.0240885416667,312.2649777895896C274.828125,325,274.828125,339,274.828125,353C274.828125,367,274.828125,381,290.6497395833333,392.45476209181135C306.4713541666667,403.90952418362275,338.1145833333333,412.8190483672454,353.9361979166667,417.27381045905673L369.7578125,421.7285725508681" stroke="black" stroke-dasharray="none" stroke-width="2" fill="none" marker-end="url(#arrow)"/><path transform="rotate(0,0, 0) scale(1)" d="M612.00390625,284.3197628193461L590.4169921875,288.7664690161218C568.830078125,293.2131752128974,525.65625,302.1065876064487,504.0693359375,313.55329380322434C482.482421875,325,482.482421875,339,482.482421875,353C482.482421875,367,482.482421875,381,565.2591145833334,394.4302331462095C648.0358072916666,407.86046629241895,813.5891927083334,420.72093258483784,896.3658854166666,427.15116573104734L979.142578125,433.58139887725685" stroke="black" stroke-dasharray="none" stroke-width="2" fill="none" marker-end="url(#arrow)"/><path transform="rotate(0,0, 0) scale(1)" d="M760.74609375,272.37722047184235L902.5006510416666,278.81435039320195C1044.2552083333333,285.25148031456155,1327.7643229166667,298.12574015728075,1469.5188802083333,311.5628700786404C1611.2734375,325,1611.2734375,339,1611.2734375,353C1611.2734375,367,1611.2734375,381,1611.2734375,395C1611.2734375,409,1611.2734375,423,1611.2734375,437C1611.2734375,451,1611.2734375,465,1615.303695436508,476.1666666666667C1619.333953373016,487.3333333333333,1627.3944692460318,495.6666666666667,1631.4247271825398,499.8333333333333L1635.4549851190477,504" stroke="black" stroke-dasharray="none" stroke-width="2" fill="none" marker-end="url(#arrow)"/><path transform="rotate(0,0, 0) scale(1)" d="M622.3577938988095,286L606.6673022073413,290.1666666666667C590.976810515873,294.3333333333333,559.5958271329365,302.6666666666667,567.6110646081349,311.8441261852806C575.6263020833334,321.02158570389446,623.0377604166666,331.043171407789,646.7434895833334,336.0539642597362L670.44921875,341.06475711168343" stroke="black" stroke-dasharray="none" stroke-width="2" fill="none" marker-end="url(#arrow)"/><path transform="rotate(0,0, 0) scale(1)" d="M760.74609375,274.0472956340064L851.4947916666666,280.2060796950053C942.2434895833334,286.36486375600424,1123.7408854166667,298.6824318780021,1226.6588309151787,309.0078826056677C1329.5767764136906,319.3333333333333,1353.915271577381,327.6666666666667,1366.0845191592261,331.8333333333333L1378.2537667410713,336" stroke="black" stroke-dasharray="none" stroke-width="2" fill="none" marker-end="url(#arrow)"/><path transform="rotate(0,0, 0) scale(1)" d="M726.119140625,24.38950318284152L675.0035807291666,30.1579193190346C623.8880208333334,35.92633545522768,521.6569010416666,47.463167727613836,470.5413411458333,60.23158386380692C419.42578125,73,419.42578125,87,419.42578125,101C419.42578125,115,419.42578125,129,419.42578125,143C419.42578125,157,419.42578125,171,419.42578125,185C419.42578125,199,419.42578125,213,419.42578125,227C419.42578125,241,419.42578125,255,419.42578125,269C419.42578125,283,419.42578125,297,419.42578125,311C419.42578125,325,419.42578125,339,419.42578125,353C419.42578125,367,419.42578125,381,419.8791852678571,392.1666666666667C420.3325892857143,403.3333333333333,421.2393973214286,411.6666666666667,421.6928013392857,415.8333333333333L422.14620535714283,420" stroke="black" stroke-dasharray="none" stroke-width="2" fill="none" marker-end="url(#arrow)"/><path transform="rotate(0,0, 0) scale(1)" d="M828.889880952381,34L838.0296533978175,38.166666666666664C847.169425843254,42.333333333333336,865.4489707341269,50.666666666666664,874.5887431795635,61.833333333333336C883.728515625,73,883.728515625,87,883.728515625,101C883.728515625,115,883.728515625,129,883.728515625,143C883.728515625,157,883.728515625,171,883.728515625,185C883.728515625,199,883.728515625,213,883.728515625,227C883.728515625,241,883.728515625,255,883.728515625,269C883.728515625,283,883.728515625,297,883.728515625,311C883.728515625,325,883.728515625,339,883.728515625,353C883.728515625,367,883.728515625,381,899.630859375,392.790485262804C915.533203125,404.58097052560794,947.337890625,414.16194105121593,963.240234375,418.95242631401993L979.142578125,423.74291157682393" stroke="black" stroke-dasharray="none" stroke-width="2" fill="none" marker-end="url(#arrow)"/><path transform="rotate(0,0, 0) scale(1)" d="M857.080078125,20.2242738988267L988.3268229166666,26.686894915688914C1119.5735677083333,33.14951593255113,1382.0670572916667,46.07475796627557,1513.3138020833333,59.537378983137785C1644.560546875,73,1644.560546875,87,1644.560546875,101C1644.560546875,115,1644.560546875,129,1644.560546875,143C1644.560546875,157,1644.560546875,171,1644.560546875,185C1644.560546875,199,1644.560546875,213,1644.560546875,227C1644.560546875,241,1644.560546875,255,1644.560546875,269C1644.560546875,283,1644.560546875,297,1644.560546875,311C1644.560546875,325,1644.560546875,339,1644.560546875,353C1644.560546875,367,1644.560546875,381,1644.560546875,395C1644.560546875,409,1644.560546875,423,1644.560546875,437C1644.560546875,451,1644.560546875,465,1645.2885122147818,476.1666666666667C1646.0164775545636,487.3333333333333,1647.472408234127,495.6666666666667,1648.2003735739088,499.8333333333333L1648.9283389136904,504" stroke="black" stroke-dasharray="none" stroke-width="2" fill="none" marker-end="url(#arrow)"/><path transform="rotate(0,0, 0) scale(1)" d="M726.119140625,29.815632593994884L701.2666015625,34.67969382832907C676.4140625,39.54375506266326,626.708984375,49.271877531331626,601.8564453125,61.13593876566582C577.00390625,73,577.00390625,87,577.00390625,101C577.00390625,115,577.00390625,129,577.00390625,143C577.00390625,157,577.00390625,171,577.00390625,185C577.00390625,199,577.00390625,213,577.00390625,227C577.00390625,241,577.00390625,255,577.00390625,269C577.00390625,283,577.00390625,297,592.578125,308.36339474164214C608.15234375,319.7267894832842,639.30078125,328.4535789665685,654.875,332.81697370821064L670.44921875,337.1803684498528" stroke="black" stroke-dasharray="none" stroke-width="2" fill="none" marker-end="url(#arrow)"/><path transform="rotate(0,0, 0) scale(1)" d="M790.307849702381,34L789.9912419394841,38.166666666666664C789.6746341765873,42.333333333333336,789.0414186507936,50.666666666666664,788.7248108878968,59C788.408203125,67.33333333333333,788.408203125,75.66666666666667,788.408203125,79.83333333333333L788.408203125,84" stroke="black" stroke-dasharray="none" stroke-width="2" fill="none" marker-end="url(#arrow)"/><path transform="rotate(0,0, 0) scale(1)" d="M749.0086960565476,34L738.5697467137898,38.166666666666664C728.1307973710318,42.333333333333336,707.2528986855159,50.666666666666664,696.813949342758,61.833333333333336C686.375,73,686.375,87,686.375,101C686.375,115,686.375,129,686.375,143C686.375,157,686.375,171,686.375,185C686.375,199,686.375,213,686.375,224.16666666666666C686.375,235.33333333333334,686.375,243.66666666666666,686.375,247.83333333333334L686.375,252" stroke="black" stroke-dasharray="none" stroke-width="2" fill="none" marker-end="url(#arrow)"/><path transform="rotate(0,0, 0) scale(1)" d="M728.712890625,108.1843249626425L680.4983723958334,113.98693746886875C632.2838541666666,119.789549975095,535.8548177083334,131.3947749875475,487.6402994791667,144.19738749377373C439.42578125,157,439.42578125,171,439.42578125,185C439.42578125,199,439.42578125,213,439.42578125,227C439.42578125,241,439.42578125,255,439.42578125,269C439.42578125,283,439.42578125,297,439.42578125,311C439.42578125,325,439.42578125,339,439.42578125,353C439.42578125,367,439.42578125,381,437.8950582837301,392.1666666666667C436.3643353174603,403.3333333333333,433.30288938492066,411.6666666666667,431.7721664186508,415.8333333333333L430.24144345238096,420" stroke="black" stroke-dasharray="none" stroke-width="2" fill="none" marker-end="url(#arrow)"/><path transform="rotate(0,0, 0) scale(1)" d="M848.103515625,107.67850082200903L900.7233072916666,113.56541735167418C953.3430989583334,119.45233388133936,1058.5826822916667,131.22616694066969,1111.2024739583333,144.11308347033483C1163.822265625,157,1163.822265625,171,1163.822265625,185C1163.822265625,199,1163.822265625,213,1163.822265625,227C1163.822265625,241,1163.822265625,255,1163.822265625,269C1163.822265625,283,1163.822265625,297,1163.822265625,311C1163.822265625,325,1163.822265625,339,1163.822265625,353C1163.822265625,367,1163.822265625,381,1147.7115885416667,392.81011884927244C1131.6009114583333,404.62023769854494,1099.3795572916667,414.2404753970898,1083.2688802083333,419.0505942463623L1067.158203125,423.86071309563476" stroke="black" stroke-dasharray="none" stroke-width="2" fill="none" marker-end="url(#arrow)"/><path transform="rotate(0,0, 0) scale(1)" d="M848.103515625,103.81885755819698L986.3942057291666,110.34904796516416C1124.6848958333333,116.87923837213133,1401.2662760416667,129.93961918606567,1539.5569661458333,143.46980959303283C1677.84765625,157,1677.84765625,171,1677.84765625,185C1677.84765625,199,1677.84765625,213,1677.84765625,227C1677.84765625,241,1677.84765625,255,1677.84765625,269C1677.84765625,283,1677.84765625,297,1677.84765625,311C1677.84765625,325,1677.84765625,339,1677.84765625,353C1677.84765625,367,1677.84765625,381,1677.84765625,395C1677.84765625,409,1677.84765625,423,1677.84765625,437C1677.84765625,451,1677.84765625,465,1675.2733289930557,476.1666666666667C1672.699001736111,487.3333333333333,1667.550347222222,495.6666666666667,1664.9760199652776,499.8333333333333L1662.4016927083333,504" stroke="black" stroke-dasharray="none" stroke-width="2" fill="none" marker-end="url(#arrow)"/><path transform="rotate(0,0, 0) scale(1)" d="M799.4774925595239,118L802.1905536954365,122.16666666666667C804.9036148313493,126.33333333333333,810.3297371031746,134.66666666666666,813.0427982390873,145.83333333333334C815.755859375,157,815.755859375,171,815.755859375,185C815.755859375,199,815.755859375,213,815.755859375,227C815.755859375,241,815.755859375,255,815.755859375,269C815.755859375,283,815.755859375,297,806.9421890500993,308.1666666666667C798.1285187251984,319.3333333333333,780.5011780753968,327.6666666666667,771.687507750496,331.8333333333333L762.8738374255952,336" stroke="black" stroke-dasharray="none" stroke-width="2" fill="none" marker-end="url(#arrow)"/><path transform="rotate(0,0, 0) scale(1)" d="M728.712890625,109.9481175806328L691.9632161458334,115.45676465052732C655.2135416666666,120.96541172042187,581.7141927083334,131.98270586021093,544.9645182291666,141.65801959677214C508.21484375,151.33333333333334,508.21484375,159.66666666666666,508.21484375,163.83333333333334L508.21484375,168" stroke="black" stroke-dasharray="none" stroke-width="2" fill="none" marker-end="url(#arrow)"/><path transform="rotate(0,0, 0) scale(1)" d="M770.3211960565476,118L765.8881060887898,122.16666666666667C761.4550161210318,126.33333333333333,752.5888361855159,134.66666666666666,748.155746217758,145.83333333333334C743.72265625,157,743.72265625,171,743.72265625,185C743.72265625,199,743.72265625,213,738.0334046378968,224.16666666666666C732.3441530257936,235.33333333333334,720.9656498015873,243.66666666666666,715.2763981894841,247.83333333333334L709.587146577381,252" stroke="black" stroke-dasharray="none" stroke-width="2" fill="none" marker-end="url(#arrow)"/><path transform="rotate(0,0, 0) scale(1)" d="M947.6722470238095,286L929.019515749008,290.1666666666667C910.3667844742064,294.3333333333333,873.0613219246032,302.6666666666667,843.6107933407737,311C814.1602647569445,319.3333333333333,792.564670138889,327.6666666666667,781.7668728298612,331.8333333333333L770.9690755208334,336" stroke="black" stroke-dasharray="none" stroke-width="2" fill="none" marker-end="url(#arrow)"/><path transform="rotate(0,0, 0) scale(1)" d="M1128.822265625,278.8293322890151L1186.1240234375,284.19111024084594C1243.42578125,289.55288819267673,1358.029296875,300.27644409633837,1410.8937019469247,309.80488871483584C1463.7581070188492,319.3333333333333,1454.8834015376985,327.6666666666667,1450.446048797123,331.8333333333333L1446.0086960565477,336" stroke="black" stroke-dasharray="none" stroke-width="2" fill="none" marker-end="url(#arrow)"/><path transform="rotate(0,0, 0) scale(1)" d="M1503.611328125,364.77912033050916L1535.9840494791667,369.81593360875763C1568.3567708333333,374.8527468870061,1633.1022135416667,384.92637344350305,1665.4749348958333,396.9631867217515C1697.84765625,409,1697.84765625,423,1697.84765625,437C1697.84765625,451,1697.84765625,465,1693.2892020089284,476.1666666666667C1688.730747767857,487.3333333333333,1679.6138392857144,495.6666666666667,1675.055385044643,499.8333333333333L1670.4969308035713,504" stroke="black" stroke-dasharray="none" stroke-width="2" fill="none" marker-end="url(#arrow)"/><path transform="rotate(0,0, 0) scale(1)" d="M1352.197265625,356.29358117403336L1203.9114583333333,362.7446509783611C1055.6256510416667,369.19572078268885,759.0540364583334,382.09786039134445,606.9501410590277,392.71559686233894C454.84624565972223,403.3333333333333,447.2100694444445,411.6666666666667,443.3919813368056,415.8333333333333L439.5738932291667,420" stroke="black" stroke-dasharray="none" stroke-width="2" fill="none" marker-end="url(#arrow)"/><path transform="rotate(0,0, 0) scale(1)" d="M1250.509765625,370L1250.509765625,374.1666666666667C1250.509765625,378.3333333333333,1250.509765625,386.6666666666667,1219.951171875,396.47840927313126C1189.392578125,406.2901518795959,1128.275390625,417.5803037591918,1097.716796875,423.2253796989897L1067.158203125,428.8704556387877" stroke="black" stroke-dasharray="none" stroke-width="2" fill="none" marker-end="url(#arrow)"/><g transform="translate(1598.6640625, 588)"><rect width="116.4921875" height="34" stroke="black" fill="white" stroke-width="2" transform="translate(0, 0)" rx="3"/><g transform="translate(8, 8)"><g transform="translate(0, 0)"><rect width="100.4921875" height="18" stroke="none" fill="white" stroke-width="0" transform="translate(0, 0)" rx="3"/><text fill="black" font-size="16" font-weight="normal" transform="translate(0, 0)" alignment-baseline="middle" font-family="Arial"><tspan x="0" dy="16" font-family="Arial" font-size="16" font-weight="normal">nextjs website</tspan></text></g></g></g><g transform="translate(474.42578125, 168)"><rect width="67.578125" height="34" stroke="black" fill="white" stroke-width="2" transform="translate(0, 0)" rx="3"/><g transform="translate(8, 8)"><g transform="translate(0, 0)"><rect width="51.578125" height="18" stroke="none" fill="white" stroke-width="0" transform="translate(0, 0)" rx="3"/><text fill="black" font-size="16" font-weight="normal" transform="translate(0, 0)" alignment-baseline="middle" font-family="Arial"><tspan x="0" dy="16" font-family="Arial" font-size="16" font-weight="normal">inltayer</tspan></text></g></g></g><g transform="translate(0, 504)"><rect width="110.265625" height="34" stroke="black" fill="white" stroke-width="2" transform="translate(0, 0)" rx="3"/><g transform="translate(8, 8)"><g transform="translate(0, 0)"><rect width="94.265625" height="18" stroke="none" fill="white" stroke-width="0" transform="translate(0, 0)" rx="3"/><text fill="black" font-size="16" font-weight="normal" transform="translate(0, 0)" alignment-baseline="middle" font-family="Arial"><tspan x="0" dy="16" font-family="Arial" font-size="16" font-weight="normal">react website</tspan></text></g></g></g><g transform="translate(722.7265625, 504)"><rect width="144.5078125" height="34" stroke="black" fill="white" stroke-width="2" transform="translate(0, 0)" rx="3"/><g transform="translate(8, 8)"><g transform="translate(0, 0)"><rect width="128.5078125" height="18" stroke="none" fill="white" stroke-width="0" transform="translate(0, 0)" rx="3"/><text fill="black" font-size="16" font-weight="normal" transform="translate(0, 0)" alignment-baseline="middle" font-family="Arial"><tspan x="0" dy="16" font-family="Arial" font-size="16" font-weight="normal">vite+react website</tspan></text></g></g></g><g transform="translate(612.00390625, 252)"><rect width="148.7421875" height="34" stroke="black" fill="white" stroke-width="2" transform="translate(0, 0)" rx="3"/><g transform="translate(8, 8)"><g transform="translate(0, 0)"><rect width="132.7421875" height="18" stroke="none" fill="white" stroke-width="0" transform="translate(0, 0)" rx="3"/><text fill="black" font-size="16" font-weight="normal" transform="translate(0, 0)" alignment-baseline="middle" font-family="Arial"><tspan x="0" dy="16" font-family="Arial" font-size="16" font-weight="normal">@intlayer/chokidar</tspan></text></g></g></g><g transform="translate(1600.32421875, 504)"><rect width="103.1484375" height="34" stroke="black" fill="white" stroke-width="2" transform="translate(0, 0)" rx="3"/><g transform="translate(8, 8)"><g transform="translate(0, 0)"><rect width="87.1484375" height="18" stroke="none" fill="white" stroke-width="0" transform="translate(0, 0)" rx="3"/><text fill="black" font-size="16" font-weight="normal" transform="translate(0, 0)" alignment-baseline="middle" font-family="Arial"><tspan x="0" dy="16" font-family="Arial" font-size="16" font-weight="normal">next-intlayer</tspan></text></g></g></g><g transform="translate(369.7578125, 420)"><rect width="108.4765625" height="34" stroke="black" fill="white" stroke-width="2" transform="translate(0, 0)" rx="3"/><g transform="translate(8, 8)"><g transform="translate(0, 0)"><rect width="92.4765625" height="18" stroke="none" fill="white" stroke-width="0" transform="translate(0, 0)" rx="3"/><text fill="black" font-size="16" font-weight="normal" transform="translate(0, 0)" alignment-baseline="middle" font-family="Arial"><tspan x="0" dy="16" font-family="Arial" font-size="16" font-weight="normal">react-intlayer</tspan></text></g></g></g><g transform="translate(979.142578125, 420)"><rect width="88.015625" height="34" stroke="black" fill="white" stroke-width="2" transform="translate(0, 0)" rx="3"/><g transform="translate(8, 8)"><g transform="translate(0, 0)"><rect width="72.015625" height="18" stroke="none" fill="white" stroke-width="0" transform="translate(0, 0)" rx="3"/><text fill="black" font-size="16" font-weight="normal" transform="translate(0, 0)" alignment-baseline="middle" font-family="Arial"><tspan x="0" dy="16" font-family="Arial" font-size="16" font-weight="normal">intlayer-cli</tspan></text></g></g></g><g transform="translate(670.44921875, 336)"><rect width="112.9296875" height="34" stroke="black" fill="white" stroke-width="2" transform="translate(0, 0)" rx="3"/><g transform="translate(8, 8)"><g transform="translate(0, 0)"><rect width="96.9296875" height="18" stroke="none" fill="white" stroke-width="0" transform="translate(0, 0)" rx="3"/><text fill="black" font-size="16" font-weight="normal" transform="translate(0, 0)" alignment-baseline="middle" font-family="Arial"><tspan x="0" dy="16" font-family="Arial" font-size="16" font-weight="normal">intlayer-editor</tspan></text></g></g></g><g transform="translate(1352.197265625, 336)"><rect width="151.4140625" height="34" stroke="black" fill="white" stroke-width="2" transform="translate(0, 0)" rx="3"/><g transform="translate(8, 8)"><g transform="translate(0, 0)"><rect width="135.4140625" height="18" stroke="none" fill="white" stroke-width="0" transform="translate(0, 0)" rx="3"/><text fill="black" font-size="16" font-weight="normal" transform="translate(0, 0)" alignment-baseline="middle" font-family="Arial"><tspan x="0" dy="16" font-family="Arial" font-size="16" font-weight="normal">@intlayer/webpack</tspan></text></g></g></g><g transform="translate(726.119140625, 0)"><rect width="130.9609375" height="34" stroke="black" fill="white" stroke-width="2" transform="translate(0, 0)" rx="3"/><g transform="translate(8, 8)"><g transform="translate(0, 0)"><rect width="114.9609375" height="18" stroke="none" fill="white" stroke-width="0" transform="translate(0, 0)" rx="3"/><text fill="black" font-size="16" font-weight="normal" transform="translate(0, 0)" alignment-baseline="middle" font-family="Arial"><tspan x="0" dy="16" font-family="Arial" font-size="16" font-weight="normal">@intlayer/config</tspan></text></g></g></g><g transform="translate(728.712890625, 84)"><rect width="119.390625" height="34" stroke="black" fill="white" stroke-width="2" transform="translate(0, 0)" rx="3"/><g transform="translate(8, 8)"><g transform="translate(0, 0)"><rect width="103.390625" height="18" stroke="none" fill="white" stroke-width="0" transform="translate(0, 0)" rx="3"/><text fill="black" font-size="16" font-weight="normal" transform="translate(0, 0)" alignment-baseline="middle" font-family="Arial"><tspan x="0" dy="16" font-family="Arial" font-size="16" font-weight="normal">@intlayer/core</tspan></text></g></g></g><g transform="translate(918.728515625, 252)"><rect width="210.09375" height="34" stroke="black" fill="white" stroke-width="2" transform="translate(0, 0)" rx="3"/><g transform="translate(8, 8)"><g transform="translate(0, 0)"><rect width="194.09375" height="18" stroke="none" fill="white" stroke-width="0" transform="translate(0, 0)" rx="3"/><text fill="black" font-size="16" font-weight="normal" transform="translate(0, 0)" alignment-baseline="middle" font-family="Arial"><tspan x="0" dy="16" font-family="Arial" font-size="16" font-weight="normal">@intlayer/dictionaries-entry</tspan></text></g></g></g><g transform="translate(1198.822265625, 336)"><rect width="103.375" height="34" stroke="black" fill="white" stroke-width="2" transform="translate(0, 0)" rx="3"/><g transform="translate(8, 8)"><g transform="translate(0, 0)"><rect width="87.375" height="18" stroke="none" fill="white" stroke-width="0" transform="translate(0, 0)" rx="3"/><text fill="black" font-size="16" font-weight="normal" transform="translate(0, 0)" alignment-baseline="middle" font-family="Arial"><tspan x="0" dy="16" font-family="Arial" font-size="16" font-weight="normal">@intlayer/cli</tspan></text></g></g></g></svg>