<svg xmlns="http://www.w3.org/2000/svg" id="mainsvg" width="1494.319921875" height="531.4000000000001" viewBox="-24.3125 -10 1358.47265625 484"><defs><marker id="arrow" viewBox="0 0 10 10" refX="10" refY="5" markerWidth="5" markerHeight="5" orient="auto-start-reverse" fill="black"><path stroke="black" d="M 0 0 L 10 5 L 0 10 z"/></marker><marker id="Many" viewBox="0 0 16 16" refX="15" refY="8" markerWidth="15" markerHeight="15" orient="auto-start-reverse"><path stroke="black" d="M0 8H15M15 15L2 8L15 1" fill="none"/></marker><marker id="ZeroOrOne" viewBox="0 0 16 10" refX="15" refY="5" markerWidth="21" markerHeight="21" orient="auto-start-reverse"><path d="M9 5H16" stroke="black" fill="none"/><circle cx="5" cy="5" r="4.5" stroke="black" fill="#fff"/><path d="M12 0L12 10" stroke="black" fill="none"/></marker><marker id="OneOnlyOne" viewBox="0 0 10 14" refX="10" refY="7" markerWidth="13" markerHeight="13" orient="auto-start-reverse"><path d="M0 7H4M4 7H7M4 7V0M4 7V14M7 7H10M7 7V0M7 7V14" stroke="black" fill="none"/></marker><marker id="OneOrMany" viewBox="0 0 16 16" refX="15" refY="8" markerWidth="15" markerHeight="15" orient="auto-start-reverse"><path stroke="black" d="M2 1V15M2 8L15 15M2 8L15 1M2 8H0M2 8H15" fill="none"/></marker><marker id="ZeroOrMany" viewBox="0 0 25 16" refX="23" refY="8" markerWidth="25" markerHeight="25" orient="auto-start-reverse"><path d="M13 8H27M27 15L14 8L27 1" stroke="black" fill="none"/><path d="M13.5 7.5C13.5 10.7795 10.6254 13.5 7 13.5C3.37461 13.5 0.5 10.7795 0.5 7.5C0.5 4.22054 3.37461 1.5 7 1.5C10.6254 1.5 13.5 4.22054 13.5 7.5Z" stroke="black" fill="#fff"/></marker><marker id="aggregation" viewBox="0 0 10 6" refX="9.3" refY="2.8" markerWidth="23" markerHeight="15" orient="auto-start-reverse"><path stroke="black" fill="#fff" stroke-width="0.7" d="M1.01614 2.82609L5 0.574341L8.98386 2.82609L5 5.07783L1.01614 2.82609Z"/></marker><marker id="composition" viewBox="0 0 10 6" refX="9.7" refY="2.8" markerWidth="18" markerHeight="15" orient="auto-start-reverse"><path stroke="black" fill="black" d="M1.01614 2.82609L5 0.574341L8.98386 2.82609L5 5.07783L1.01614 2.82609Z"/></marker><marker id="implementation" viewBox="0 0 8 10" refX="8" refY="5" markerWidth="20" markerHeight="20" orient="auto-start-reverse"><path stroke="black" fill="#fff" stroke-width="0.7" d="M0.750001 1.10289L7.5 5L0.750001 8.89712L0.750001 1.10289Z"/></marker><marker id="dependency" viewBox="0 0 12 12" refX="11" refY="6" markerWidth="12" markerHeight="11" orient="auto-start-reverse"><path stroke="black" fill="#fff" d="M1 5.93162H10.886M10.886 5.93162L1 0.5M10.886 5.93162L1 11"/></marker><marker id="inheritance" viewBox="0 0 8 10" refX="8" refY="5" markerWidth="20" markerHeight="20" orient="auto-start-reverse"><path stroke="black" fill="#fff" stroke-width="0.7" d="M0.750001 1.10289L7.5 5L0.750001 8.89712L0.750001 1.10289Z"/></marker><marker id="association" viewBox="0 0 12 12" refX="11" refY="6" markerWidth="12" markerHeight="11" orient="auto-start-reverse"><path stroke="black" d="M1 5.93162H10.886M10.886 5.93162L1 0.5M10.886 5.93162L1 11"/></marker><filter id="shadowOLD" x="-50%" y="-50%" width="250%" height="250%"><feDropShadow flood-color="black" flood-opacity="0.3" dx="1" dy="1" stdDeviation="2"> </feDropShadow></filter><filter id="shadow-path" filterUnits="userSpaceOnUse" x="-24.3125" y="-10" width="1358.47265625px" height="474px"><feDropShadow flood-color="black" flood-opacity="0.1" dx="1" dy="1" stdDeviation="1"> </feDropShadow></filter><filter id="shadow" filterUnits="userSpaceOnUse" x="-24.3125" y="-10" width="1458.47265625px" height="574px"><feDropShadow flood-color="black" flood-opacity="0.1" dx="1" dy="1" stdDeviation="1"> </feDropShadow></filter></defs><rect x="-24.3125" y="-10" width="1358.47265625" height="474" fill="#fff"/><path transform="rotate(0,0, 0) scale(1)" d="M898.361328125,354.60553651568085L756.6754557291666,361.3379470964007C614.9895833333334,368.0703576771205,331.6178385416667,381.5351788385603,190.92402963789684,392.4342560859468C50.23022073412699,403.3333333333333,52.21434771825397,411.6666666666667,53.20641121031746,415.8333333333333L54.19847470238095,420" stroke="black" stroke-dasharray="none" stroke-width="2" fill="none" marker-end="url(#arrow)"/><path transform="rotate(0,0, 0) scale(1)" d="M932.150390625,370L932.150390625,374.1666666666667C932.150390625,378.3333333333333,932.150390625,386.6666666666667,936.8807121155754,395C941.6110336061507,403.3333333333333,951.0716765873016,411.6666666666667,955.8019980778769,415.8333333333333L960.5323195684524,420" stroke="black" stroke-dasharray="none" stroke-width="2" fill="none" marker-end="url(#arrow)"/><path transform="rotate(0,0, 0) scale(1)" d="M274.568359375,275.63911610512474L226.42154947916666,281.5325967542706C178.27473958333334,287.4260774034165,81.98111979166667,299.21303870170823,42.024646577380956,309.2731860175208C2.0681733630952386,319.3333333333333,18.448846726190478,327.6666666666667,26.6391834077381,331.8333333333333L34.829520089285715,336" stroke="black" stroke-dasharray="none" stroke-width="2" fill="none" marker-end="url(#arrow)"/><path transform="rotate(0,0, 0) scale(1)" d="M383.044921875,272.0779583725883L497.3557942708333,278.5649653104902C611.6666666666666,285.0519722483922,840.2884114583334,298.0259861241961,954.5992838541666,311.512993062098C1068.91015625,325,1068.91015625,339,1068.91015625,353C1068.91015625,367,1068.91015625,381,1060.0730406746031,392.1666666666667C1051.2359250992065,403.3333333333333,1033.5616939484128,411.6666666666667,1024.724578373016,415.8333333333333L1015.887462797619,420" stroke="black" stroke-dasharray="none" stroke-width="2" fill="none" marker-end="url(#arrow)"/><path transform="rotate(0,0, 0) scale(1)" d="M68.24609375,370L68.24609375,374.1666666666667C68.24609375,378.3333333333333,68.24609375,386.6666666666667,67.2540302579365,395C66.26196676587301,403.3333333333333,64.27783978174604,411.6666666666667,63.28577628968254,415.8333333333333L62.29371279761905,420" stroke="black" stroke-dasharray="none" stroke-width="2" fill="none" marker-end="url(#arrow)"/><path transform="rotate(0,0, 0) scale(1)" d="M863.361328125,286L863.361328125,290.1666666666667C863.361328125,294.3333333333333,863.361328125,302.6666666666667,863.361328125,313.8333333333333C863.361328125,325,863.361328125,339,863.361328125,353C863.361328125,367,863.361328125,381,738.8831380208334,394.49358472074306C614.4049479166666,407.9871694414862,365.4485677083333,420.9743388829724,240.97037760416666,427.46792360371546L116.4921875,433.9615083244586" stroke="black" stroke-dasharray="none" stroke-width="2" fill="none" marker-end="url(#arrow)"/><path transform="rotate(0,0, 0) scale(1)" d="M316.6497860863095,34L306.96922278025795,38.166666666666664C297.2886594742063,42.333333333333336,277.9275328621032,50.666666666666664,268.2469695560516,61.833333333333336C258.56640625,73,258.56640625,87,258.56640625,101C258.56640625,115,258.56640625,129,258.56640625,143C258.56640625,157,258.56640625,171,258.56640625,185C258.56640625,199,258.56640625,213,265.53468346974205,224.16666666666666C272.50296068948415,235.33333333333334,286.43951512896825,243.66666666666666,293.4077923487103,247.83333333333334L300.3760695684524,252" stroke="black" stroke-dasharray="none" stroke-width="2" fill="none" marker-end="url(#arrow)"/><path transform="rotate(0,0, 0) scale(1)" d="M281.775390625,27.735629560512592L245.67805989583334,32.946357967093824C209.58072916666666,38.157086373675064,137.38606770833334,48.57854318683753,101.28873697916667,60.78927159341877C65.19140625,73,65.19140625,87,65.19140625,101C65.19140625,115,65.19140625,129,65.19140625,143C65.19140625,157,65.19140625,171,65.19140625,185C65.19140625,199,65.19140625,213,69.20364428323413,224.16666666666666C73.21588231646825,235.33333333333334,81.2403583829365,243.66666666666666,85.25259641617063,247.83333333333334L89.26483444940476,252" stroke="black" stroke-dasharray="none" stroke-width="2" fill="none" marker-end="url(#arrow)"/><path transform="rotate(0,0, 0) scale(1)" d="M281.775390625,25.912843090812828L235.7607421875,31.427369242344025C189.74609375,36.94189539387522,97.716796875,47.97094769693761,51.7021484375,60.48547384846881C5.6875,73,5.6875,87,5.6875,101C5.6875,115,5.6875,129,5.6875,143C5.6875,157,5.6875,171,5.6875,185C5.6875,199,5.6875,213,5.6875,227C5.6875,241,5.6875,255,5.6875,269C5.6875,283,5.6875,297,11.893709697420634,308.1666666666667C18.09991939484127,319.3333333333333,30.51233878968254,327.6666666666667,36.71854848710317,331.8333333333333L42.92475818452381,336" stroke="black" stroke-dasharray="none" stroke-width="2" fill="none" marker-end="url(#arrow)"/><path transform="rotate(0,0, 0) scale(1)" d="M430.517578125,28.739184050971126L462.4694010416667,33.78265337580927C494.4212239583333,38.82612270064742,558.3248697916666,48.91306135032371,590.2766927083334,60.95653067516185C622.228515625,73,622.228515625,87,622.228515625,101C622.228515625,115,622.228515625,129,622.228515625,143C622.228515625,157,622.228515625,171,622.228515625,185C622.228515625,199,622.228515625,213,653.0065104166666,225.36084561801394C683.7845052083334,237.72169123602785,745.3404947916666,248.44338247205573,776.1184895833334,253.80422809006964L806.896484375,259.1650737080836" stroke="black" stroke-dasharray="none" stroke-width="2" fill="none" marker-end="url(#arrow)"/><path transform="rotate(0,0, 0) scale(1)" d="M357.32045200892856,34L357.6081891741071,38.166666666666664C357.8959263392857,42.333333333333336,358.47140066964283,50.666666666666664,358.7591378348214,59C359.046875,67.33333333333333,359.046875,75.66666666666667,359.046875,79.83333333333333L359.046875,84" stroke="black" stroke-dasharray="none" stroke-width="2" fill="none" marker-end="url(#arrow)"/><path transform="rotate(0,0, 0) scale(1)" d="M397.9911179315476,34L408.2471555679563,38.166666666666664C418.50319320436506,42.333333333333336,439.0152684771826,50.666666666666664,449.27130611359127,61.833333333333336C459.52734375,73,459.52734375,87,459.52734375,101C459.52734375,115,459.52734375,129,460.51940724206344,140.16666666666666C461.511470734127,151.33333333333334,463.495597718254,159.66666666666666,464.4876612103174,163.83333333333334L465.47972470238096,168" stroke="black" stroke-dasharray="none" stroke-width="2" fill="none" marker-end="url(#arrow)"/><path transform="rotate(0,0, 0) scale(1)" d="M430.517578125,30.81616186049726L455.802734375,35.51346821708105C481.087890625,40.21077457366484,531.658203125,49.60538728683242,556.943359375,61.302693643416205C582.228515625,73,582.228515625,87,582.228515625,101C582.228515625,115,582.228515625,129,582.228515625,143C582.228515625,157,582.228515625,171,582.228515625,185C582.228515625,199,582.228515625,213,583.2205791170635,224.16666666666666C584.212642609127,235.33333333333334,586.196769593254,243.66666666666666,587.1888330853175,247.83333333333334L588.180896577381,252" stroke="black" stroke-dasharray="none" stroke-width="2" fill="none" marker-end="url(#arrow)"/><path transform="rotate(0,0, 0) scale(1)" d="M359.046875,118L359.046875,122.16666666666667C359.046875,126.33333333333333,359.046875,134.66666666666666,359.046875,145.83333333333334C359.046875,157,359.046875,171,359.046875,185C359.046875,199,359.046875,213,356.0468517485119,224.16666666666666C353.04682849702385,235.33333333333334,347.04678199404765,243.66666666666666,344.0467587425596,247.83333333333334L341.04673549107144,252" stroke="black" stroke-dasharray="none" stroke-width="2" fill="none" marker-end="url(#arrow)"/><path transform="rotate(0,0, 0) scale(1)" d="M293.56640625,111.04244939877616L258.8372395833333,116.36870783231346C224.10807291666666,121.69496626585078,154.64973958333334,132.3474831329254,119.92057291666667,144.6737415664627C85.19140625,157,85.19140625,171,85.19140625,185C85.19140625,199,85.19140625,213,87.21951729910715,224.16666666666666C89.24762834821429,235.33333333333334,93.30385044642857,243.66666666666666,95.33196149553572,247.83333333333334L97.36007254464286,252" stroke="black" stroke-dasharray="none" stroke-width="2" fill="none" marker-end="url(#arrow)"/><path transform="rotate(0,0, 0) scale(1)" d="M293.56640625,109.2498945394891L248.919921875,114.87491211624092C204.2734375,120.49992969299274,114.98046875,131.74996484649637,70.333984375,144.37498242324818C25.6875,157,25.6875,171,25.6875,185C25.6875,199,25.6875,213,25.6875,227C25.6875,241,25.6875,255,25.6875,269C25.6875,283,25.6875,297,29.90958271329365,308.1666666666667C34.1316654265873,319.3333333333333,42.5758308531746,327.6666666666667,46.79791356646825,331.8333333333333L51.019996279761905,336" stroke="black" stroke-dasharray="none" stroke-width="2" fill="none" marker-end="url(#arrow)"/><path transform="rotate(0,0, 0) scale(1)" d="M424.52734375,106.06222025690528L504.1598307291667,112.2185168807544C583.7923177083334,118.37481350460352,743.0572916666666,130.68740675230177,822.6897786458334,143.84370337615087C902.322265625,157,902.322265625,171,902.322265625,185C902.322265625,199,902.322265625,213,898.4570932539682,224.16666666666666C894.5919208829365,235.33333333333334,886.8615761408731,243.66666666666666,882.9964037698413,247.83333333333334L879.1312313988095,252" stroke="black" stroke-dasharray="none" stroke-width="2" fill="none" marker-end="url(#arrow)"/><path transform="rotate(0,0, 0) scale(1)" d="M424.52734375,117.58393300905696L441.2529296875,121.81994417421413C457.978515625,126.05595533937132,491.4296875,134.52797766968567,502.6638532366071,142.9306555015095C513.8980189732143,151.33333333333334,502.9151785714286,159.66666666666666,497.4237583705357,163.83333333333334L491.93233816964283,168" stroke="black" stroke-dasharray="none" stroke-width="2" fill="none" marker-end="url(#arrow)"/><path transform="rotate(0,0, 0) scale(1)" d="M449.1920107886905,202L444.20786055307536,206.16666666666666C439.2237103174603,210.33333333333334,429.2554098462301,218.66666666666666,415.2950226314484,227C401.3346354166667,235.33333333333334,383.3821614583333,243.66666666666666,374.4059244791667,247.83333333333334L365.4296875,252" stroke="black" stroke-dasharray="none" stroke-width="2" fill="none" marker-end="url(#arrow)"/><path transform="rotate(0,0, 0) scale(1)" d="M409.83203125,192.56347438752783L364.533203125,198.30289532293986C319.234375,204.0423162583519,228.63671875,215.52115812917592,180.12317863343253,225.42724573125463C131.6096385168651,235.33333333333334,125.18021453373017,243.66666666666666,121.9655025421627,247.83333333333334L118.75079055059524,252" stroke="black" stroke-dasharray="none" stroke-width="2" fill="none" marker-end="url(#arrow)"/><path transform="rotate(0,0, 0) scale(1)" d="M473.57496279761904,202L474.5670262896826,206.16666666666666C475.559089781746,210.33333333333334,477.543216765873,218.66666666666666,478.53528025793656,229.83333333333334C479.52734375,241,479.52734375,255,479.52734375,269C479.52734375,283,479.52734375,297,419.576171875,310.12220765899247C359.625,323.24441531798493,239.72265625,335.4888306359699,179.771484375,341.6110382949624L119.8203125,347.73324595395485" stroke="black" stroke-dasharray="none" stroke-width="2" fill="none" marker-end="url(#arrow)"/><path transform="rotate(0,0, 0) scale(1)" d="M529.22265625,190.5371714740479L594.7392578125,196.6143095617066C660.255859375,202.69144764936527,791.2890625,214.84572382468264,850.9563647073413,225.08952857900798C910.6236669146825,235.33333333333334,898.9250682043652,243.66666666666666,893.0757688492064,247.83333333333334L887.2264694940476,252" stroke="black" stroke-dasharray="none" stroke-width="2" fill="none" marker-end="url(#arrow)"/><path transform="rotate(0,0, 0) scale(1)" d="M835.1515066964286,202L853.0132998511905,206.16666666666666C870.8750930059523,210.33333333333334,906.5986793154761,218.66666666666666,916.6270461309523,227C926.6554129464286,235.33333333333334,910.9885602678572,243.66666666666666,903.1551339285714,247.83333333333334L895.3217075892857,252" stroke="black" stroke-dasharray="none" stroke-width="2" fill="none" marker-end="url(#arrow)"/><path transform="rotate(0,0, 0) scale(1)" d="M697.4945126488095,202L681.6168464781746,206.16666666666666C665.7391803075396,210.33333333333334,633.9838479662699,218.66666666666666,617.1141183035714,227C600.244388640873,235.33333333333334,598.260261656746,243.66666666666666,597.2681981646825,247.83333333333334L596.276134672619,252" stroke="black" stroke-dasharray="none" stroke-width="2" fill="none" marker-end="url(#arrow)"/><path transform="rotate(0,0, 0) scale(1)" d="M592.228515625,286L592.228515625,290.1666666666667C592.228515625,294.3333333333333,592.228515625,302.6666666666667,513.4938151041666,313.14434164930293C434.7591145833333,323.6220166319392,277.2897135416667,336.2440332638783,198.55501302083334,342.5550415798478L119.8203125,348.8660498958174" stroke="black" stroke-dasharray="none" stroke-width="2" fill="none" marker-end="url(#arrow)"/><path transform="rotate(0,0, 0) scale(1)" d="M171.87890625,202L171.87890625,206.16666666666666C171.87890625,210.33333333333334,171.87890625,218.66666666666666,165.30706690228175,227C158.7352275545635,235.33333333333334,145.591548859127,243.66666666666666,139.01970951140873,247.83333333333334L132.44787016369048,252" stroke="black" stroke-dasharray="none" stroke-width="2" fill="none" marker-end="url(#arrow)"/><g transform="translate(0, 420)"><rect width="116.4921875" height="34" stroke="black" fill="white" stroke-width="2" transform="translate(0, 0)" rx="3"/><g transform="translate(8, 8)"><g transform="translate(0, 0)"><rect width="100.4921875" height="18" stroke="none" fill="white" stroke-width="0" transform="translate(0, 0)" rx="3"/><text fill="black" font-size="16" font-weight="normal" transform="translate(0, 0)" alignment-baseline="middle" font-family="Arial"><tspan x="0" dy="16" font-family="Arial" font-size="16" font-weight="normal">nextjs website</tspan></text></g></g></g><g transform="translate(898.361328125, 336)"><rect width="67.578125" height="34" stroke="black" fill="white" stroke-width="2" transform="translate(0, 0)" rx="3"/><g transform="translate(8, 8)"><g transform="translate(0, 0)"><rect width="51.578125" height="18" stroke="none" fill="white" stroke-width="0" transform="translate(0, 0)" rx="3"/><text fill="black" font-size="16" font-weight="normal" transform="translate(0, 0)" alignment-baseline="middle" font-family="Arial"><tspan x="0" dy="16" font-family="Arial" font-size="16" font-weight="normal">inltayer</tspan></text></g></g></g><g transform="translate(924.69921875, 420)"><rect width="110.265625" height="34" stroke="black" fill="white" stroke-width="2" transform="translate(0, 0)" rx="3"/><g transform="translate(8, 8)"><g transform="translate(0, 0)"><rect width="94.265625" height="18" stroke="none" fill="white" stroke-width="0" transform="translate(0, 0)" rx="3"/><text fill="black" font-size="16" font-weight="normal" transform="translate(0, 0)" alignment-baseline="middle" font-family="Arial"><tspan x="0" dy="16" font-family="Arial" font-size="16" font-weight="normal">react website</tspan></text></g></g></g><g transform="translate(16.671875, 336)"><rect width="103.1484375" height="34" stroke="black" fill="white" stroke-width="2" transform="translate(0, 0)" rx="3"/><g transform="translate(8, 8)"><g transform="translate(0, 0)"><rect width="87.1484375" height="18" stroke="none" fill="white" stroke-width="0" transform="translate(0, 0)" rx="3"/><text fill="black" font-size="16" font-weight="normal" transform="translate(0, 0)" alignment-baseline="middle" font-family="Arial"><tspan x="0" dy="16" font-family="Arial" font-size="16" font-weight="normal">next-intlayer</tspan></text></g></g></g><g transform="translate(274.568359375, 252)"><rect width="108.4765625" height="34" stroke="black" fill="white" stroke-width="2" transform="translate(0, 0)" rx="3"/><g transform="translate(8, 8)"><g transform="translate(0, 0)"><rect width="92.4765625" height="18" stroke="none" fill="white" stroke-width="0" transform="translate(0, 0)" rx="3"/><text fill="black" font-size="16" font-weight="normal" transform="translate(0, 0)" alignment-baseline="middle" font-family="Arial"><tspan x="0" dy="16" font-family="Arial" font-size="16" font-weight="normal">react-intlayer</tspan></text></g></g></g><g transform="translate(806.896484375, 252)"><rect width="112.9296875" height="34" stroke="black" fill="white" stroke-width="2" transform="translate(0, 0)" rx="3"/><g transform="translate(8, 8)"><g transform="translate(0, 0)"><rect width="96.9296875" height="18" stroke="none" fill="white" stroke-width="0" transform="translate(0, 0)" rx="3"/><text fill="black" font-size="16" font-weight="normal" transform="translate(0, 0)" alignment-baseline="middle" font-family="Arial"><tspan x="0" dy="16" font-family="Arial" font-size="16" font-weight="normal">intlayer-editor</tspan></text></g></g></g><g transform="translate(281.775390625, 0)"><rect width="148.7421875" height="34" stroke="black" fill="white" stroke-width="2" transform="translate(0, 0)" rx="3"/><g transform="translate(8, 8)"><g transform="translate(0, 0)"><rect width="132.7421875" height="18" stroke="none" fill="white" stroke-width="0" transform="translate(0, 0)" rx="3"/><text fill="black" font-size="16" font-weight="normal" transform="translate(0, 0)" alignment-baseline="middle" font-family="Arial"><tspan x="0" dy="16" font-family="Arial" font-size="16" font-weight="normal">@intlayer/chokidar</tspan></text></g></g></g><g transform="translate(61.626953125, 252)"><rect width="88.015625" height="34" stroke="black" fill="white" stroke-width="2" transform="translate(0, 0)" rx="3"/><g transform="translate(8, 8)"><g transform="translate(0, 0)"><rect width="72.015625" height="18" stroke="none" fill="white" stroke-width="0" transform="translate(0, 0)" rx="3"/><text fill="black" font-size="16" font-weight="normal" transform="translate(0, 0)" alignment-baseline="middle" font-family="Arial"><tspan x="0" dy="16" font-family="Arial" font-size="16" font-weight="normal">intlayer-cli</tspan></text></g></g></g><g transform="translate(293.56640625, 84)"><rect width="130.9609375" height="34" stroke="black" fill="white" stroke-width="2" transform="translate(0, 0)" rx="3"/><g transform="translate(8, 8)"><g transform="translate(0, 0)"><rect width="114.9609375" height="18" stroke="none" fill="white" stroke-width="0" transform="translate(0, 0)" rx="3"/><text fill="black" font-size="16" font-weight="normal" transform="translate(0, 0)" alignment-baseline="middle" font-family="Arial"><tspan x="0" dy="16" font-family="Arial" font-size="16" font-weight="normal">@intlayer/config</tspan></text></g></g></g><g transform="translate(409.83203125, 168)"><rect width="119.390625" height="34" stroke="black" fill="white" stroke-width="2" transform="translate(0, 0)" rx="3"/><g transform="translate(8, 8)"><g transform="translate(0, 0)"><rect width="103.390625" height="18" stroke="none" fill="white" stroke-width="0" transform="translate(0, 0)" rx="3"/><text fill="black" font-size="16" font-weight="normal" transform="translate(0, 0)" alignment-baseline="middle" font-family="Arial"><tspan x="0" dy="16" font-family="Arial" font-size="16" font-weight="normal">@intlayer/core</tspan></text></g></g></g><g transform="translate(516.521484375, 252)"><rect width="151.4140625" height="34" stroke="black" fill="white" stroke-width="2" transform="translate(0, 0)" rx="3"/><g transform="translate(8, 8)"><g transform="translate(0, 0)"><rect width="135.4140625" height="18" stroke="none" fill="white" stroke-width="0" transform="translate(0, 0)" rx="3"/><text fill="black" font-size="16" font-weight="normal" transform="translate(0, 0)" alignment-baseline="middle" font-family="Arial"><tspan x="0" dy="16" font-family="Arial" font-size="16" font-weight="normal">@intlayer/webpack</tspan></text></g></g></g><g transform="translate(657.228515625, 168)"><rect width="210.09375" height="34" stroke="black" fill="white" stroke-width="2" transform="translate(0, 0)" rx="3"/><g transform="translate(8, 8)"><g transform="translate(0, 0)"><rect width="194.09375" height="18" stroke="none" fill="white" stroke-width="0" transform="translate(0, 0)" rx="3"/><text fill="black" font-size="16" font-weight="normal" transform="translate(0, 0)" alignment-baseline="middle" font-family="Arial"><tspan x="0" dy="16" font-family="Arial" font-size="16" font-weight="normal">@intlayer/dictionaries-entry</tspan></text></g></g></g><g transform="translate(120.19140625, 168)"><rect width="103.375" height="34" stroke="black" fill="white" stroke-width="2" transform="translate(0, 0)" rx="3"/><g transform="translate(8, 8)"><g transform="translate(0, 0)"><rect width="87.375" height="18" stroke="none" fill="white" stroke-width="0" transform="translate(0, 0)" rx="3"/><text fill="black" font-size="16" font-weight="normal" transform="translate(0, 0)" alignment-baseline="middle" font-family="Arial"><tspan x="0" dy="16" font-family="Arial" font-size="16" font-weight="normal">@intlayer/cli</tspan></text></g></g></g></svg>