<svg id="mainsvg" width="2385.2876953125" height="808.6" viewBox="-10 -10 2168.443359375 736"><defs><marker id="arrow" viewBox="0 0 10 10" refX="10" refY="5" markerWidth="5" markerHeight="5" orient="auto-start-reverse" fill="black"><path stroke="black" d="M 0 0 L 10 5 L 0 10 z"></path></marker><marker id="Many" viewBox="0 0 16 16" refX="15" refY="8" markerWidth="15" markerHeight="15" orient="auto-start-reverse"><path stroke="black" d="M0 8H15M15 15L2 8L15 1" fill="none"></path></marker><marker id="ZeroOrOne" viewBox="0 0 16 10" refX="15" refY="5" markerWidth="21" markerHeight="21" orient="auto-start-reverse"><path d="M9 5H16" stroke="black" fill="none"></path><circle cx="5" cy="5" r="4.5" stroke="black" fill="#fff"></circle><path d="M12 0L12 10" stroke="black" fill="none"></path></marker><marker id="OneOnlyOne" viewBox="0 0 10 14" refX="10" refY="7" markerWidth="13" markerHeight="13" orient="auto-start-reverse"><path d="M0 7H4M4 7H7M4 7V0M4 7V14M7 7H10M7 7V0M7 7V14" stroke="black" fill="none"></path></marker><marker id="OneOrMany" viewBox="0 0 16 16" refX="15" refY="8" markerWidth="15" markerHeight="15" orient="auto-start-reverse"><path stroke="black" d="M2 1V15M2 8L15 15M2 8L15 1M2 8H0M2 8H15" fill="none"></path></marker><marker id="ZeroOrMany" viewBox="0 0 25 16" refX="23" refY="8" markerWidth="25" markerHeight="25" orient="auto-start-reverse"><path d="M13 8H27M27 15L14 8L27 1" stroke="black" fill="none"></path><path d="M13.5 7.5C13.5 10.7795 10.6254 13.5 7 13.5C3.37461 13.5 0.5 10.7795 0.5 7.5C0.5 4.22054 3.37461 1.5 7 1.5C10.6254 1.5 13.5 4.22054 13.5 7.5Z" stroke="black" fill="#fff"></path></marker><marker id="aggregation" viewBox="0 0 10 6" refX="9.3" refY="2.8" markerWidth="23" markerHeight="15" orient="auto-start-reverse"><path stroke="black" fill="#fff" stroke-width="0.7" d="M1.01614 2.82609L5 0.574341L8.98386 2.82609L5 5.07783L1.01614 2.82609Z"></path></marker><marker id="composition" viewBox="0 0 10 6" refX="9.7" refY="2.8" markerWidth="18" markerHeight="15" orient="auto-start-reverse"><path stroke="black" fill="black" d="M1.01614 2.82609L5 0.574341L8.98386 2.82609L5 5.07783L1.01614 2.82609Z"></path></marker><marker id="implementation" viewBox="0 0 8 10" refX="8" refY="5" markerWidth="20" markerHeight="20" orient="auto-start-reverse"><path stroke="black" fill="#fff" stroke-width="0.7" d="M0.750001 1.10289L7.5 5L0.750001 8.89712L0.750001 1.10289Z"></path></marker><marker id="dependency" viewBox="0 0 12 12" refX="11" refY="6" markerWidth="12" markerHeight="11" orient="auto-start-reverse"><path stroke="black" fill="#fff" d="M1 5.93162H10.886M10.886 5.93162L1 0.5M10.886 5.93162L1 11"></path></marker><marker id="inheritance" viewBox="0 0 8 10" refX="8" refY="5" markerWidth="20" markerHeight="20" orient="auto-start-reverse"><path stroke="black" fill="#fff" stroke-width="0.7" d="M0.750001 1.10289L7.5 5L0.750001 8.89712L0.750001 1.10289Z"></path></marker><marker id="association" viewBox="0 0 12 12" refX="11" refY="6" markerWidth="12" markerHeight="11" orient="auto-start-reverse"><path stroke="black" d="M1 5.93162H10.886M10.886 5.93162L1 0.5M10.886 5.93162L1 11"></path></marker><filter id="shadowOLD" x="-50%" y="-50%" width="250%" height="250%"><feDropShadow flood-color="black" flood-opacity="0.3" dx="1" dy="1" stdDeviation="2"> </feDropShadow></filter><filter id="shadow-path" filterUnits="userSpaceOnUse" x="-10" y="-10" width="2168.443359375px" height="726px"><feDropShadow flood-color="black" flood-opacity="0.1" dx="1" dy="1" stdDeviation="1"> </feDropShadow></filter><filter id="shadow" filterUnits="userSpaceOnUse" x="-10" y="-10" width="2268.443359375px" height="826px"><feDropShadow flood-color="black" flood-opacity="0.1" dx="1" dy="1" stdDeviation="1"> </feDropShadow></filter></defs><rect x="-10" y="-10" width="2168.443359375" height="726" fill="#fff"></rect><path transform="rotate(0,0, 0) scale(1)" d="M260.14769345238096,118L259.15562996031747,122.16666666666667C258.163566468254,126.33333333333333,256.179439484127,134.66666666666666,268.02219742063494,143C279.86495535714283,151.33333333333334,305.5345982142857,159.66666666666666,318.3694196428571,163.83333333333334L331.20424107142856,168" stroke="black" stroke-dasharray="none" stroke-width="2" fill="none" marker-end="url(#arrow)"></path><path transform="rotate(0,0, 0) scale(1)" d="M268.24293154761904,118L269.23499503968253,122.16666666666667C270.227058531746,126.33333333333333,272.211185515873,134.66666666666666,273.2032490079365,145.83333333333334C274.1953125,157,274.1953125,171,274.1953125,185C274.1953125,199,274.1953125,213,274.1953125,227C274.1953125,241,274.1953125,255,274.1953125,269C274.1953125,283,274.1953125,297,274.1953125,311C274.1953125,325,274.1953125,339,274.1953125,353C274.1953125,367,274.1953125,381,274.1953125,395C274.1953125,409,274.1953125,423,274.1953125,437C274.1953125,451,274.1953125,465,410.7981770833333,478.26807441010914C547.4010416666666,491.5361488202182,820.6067708333334,504.0722976404365,957.2096354166666,510.34037205054557L1093.8125,516.6084464606547" stroke="black" stroke-dasharray="none" stroke-width="2" fill="none" marker-end="url(#arrow)"></path><path transform="rotate(0,0, 0) scale(1)" d="M361.4341052827381,202L356.00856429811506,206.16666666666666C350.58302331349205,210.33333333333334,339.731941344246,218.66666666666666,372.1563352554563,228.53552404505194C404.5807291666667,238.40438142343717,480.2805989583333,249.80876284687437,518.1305338541666,255.51095355859297L555.98046875,261.21314427031155" stroke="black" stroke-dasharray="none" stroke-width="2" fill="none" marker-end="url(#arrow)"></path><path transform="rotate(0,0, 0) scale(1)" d="M369.5293433779762,202L366.0879293774801,206.16666666666666C362.6465153769841,210.33333333333334,355.76368737599205,218.66666666666666,538.4642004588294,229.38895330745672C721.1647135416666,240.11123994824678,1093.4485677083333,253.22247989649358,1279.5904947916667,259.7780998706169L1465.732421875,266.33371984474036" stroke="black" stroke-dasharray="none" stroke-width="2" fill="none" marker-end="url(#arrow)"></path><path transform="rotate(0,0, 0) scale(1)" d="M387.61793154761904,202L388.6099950396826,206.16666666666666C389.602058531746,210.33333333333334,391.586185515873,218.66666666666666,392.57824900793656,229.83333333333334C393.5703125,241,393.5703125,255,393.5703125,269C393.5703125,283,393.5703125,297,393.5703125,311C393.5703125,325,393.5703125,339,393.5703125,353C393.5703125,367,393.5703125,381,419.9609375,392.9747015200126C446.3515625,404.9494030400253,499.1328125,414.8988060800505,525.5234375,419.8735076000632L551.9140625,424.84820912007575" stroke="black" stroke-dasharray="none" stroke-width="2" fill="none" marker-end="url(#arrow)"></path><path transform="rotate(0,0, 0) scale(1)" d="M395.71316964285717,202L398.68936011904765,206.16666666666666C401.6655505952381,210.33333333333334,407.61793154761904,218.66666666666666,410.5941220238096,229.83333333333334C413.5703125,241,413.5703125,255,413.5703125,269C413.5703125,283,413.5703125,297,413.5703125,311C413.5703125,325,413.5703125,339,413.5703125,353C413.5703125,367,413.5703125,381,593.6497395833334,394.66540671355347C773.7291666666666,408.33081342710693,1133.8880208333333,421.6616268542138,1313.9674479166667,428.3270335677673L1494.046875,434.9924402813207" stroke="black" stroke-dasharray="none" stroke-width="2" fill="none" marker-end="url(#arrow)"></path><path transform="rotate(0,0, 0) scale(1)" d="M603.620349702381,286L602.6282862103175,290.1666666666667C601.636222718254,294.3333333333333,599.652095734127,302.6666666666667,598.6600322420635,311C597.66796875,319.3333333333333,597.66796875,327.6666666666667,597.66796875,331.8333333333333L597.66796875,336" stroke="black" stroke-dasharray="none" stroke-width="2" fill="none" marker-end="url(#arrow)"></path><path transform="rotate(0,0, 0) scale(1)" d="M659.35546875,278.39979365052517L689.232421875,283.83316137543767C719.109375,289.2665291003501,778.86328125,300.13326455017506,916.5690104166666,312.12080970638704C1054.2747395833333,324.108354862599,1269.9322916666667,337.216709725198,1377.7610677083333,343.7708871564975L1485.58984375,350.325064587797" stroke="black" stroke-dasharray="none" stroke-width="2" fill="none" marker-end="url(#arrow)"></path><path transform="rotate(0,0, 0) scale(1)" d="M1992.962890625,18.642022774580628L1724.7307942708333,25.368352312150524C1456.4986979166667,32.094681849720416,920.0345052083334,45.54734092486021,651.8024088541666,59.2736704624301C383.5703125,73,383.5703125,87,383.5703125,101C383.5703125,115,383.5703125,129,383.5703125,140.16666666666666C383.5703125,151.33333333333334,383.5703125,159.66666666666666,383.5703125,163.83333333333334L383.5703125,168" stroke="black" stroke-dasharray="none" stroke-width="2" fill="none" marker-end="url(#arrow)"></path><path transform="rotate(0,0, 0) scale(1)" d="M1992.962890625,18.895661937245304L1762.0804036458333,25.579718281037753C1531.1979166666667,32.263774624830205,1069.4329427083333,45.6318873124151,838.5504557291666,59.31594365620756C607.66796875,73,607.66796875,87,607.66796875,101C607.66796875,115,607.66796875,129,607.66796875,143C607.66796875,157,607.66796875,171,607.66796875,185C607.66796875,199,607.66796875,213,607.66796875,224.16666666666666C607.66796875,235.33333333333334,607.66796875,243.66666666666666,607.66796875,247.83333333333334L607.66796875,252" stroke="black" stroke-dasharray="none" stroke-width="2" fill="none" marker-end="url(#arrow)"></path><path transform="rotate(0,0, 0) scale(1)" d="M1992.962890625,20.12178142750092L1857.048828125,26.601484522917435C1721.134765625,33.08118761833395,1449.306640625,46.04059380916698,1313.392578125,56.68696357125015C1177.478515625,67.33333333333333,1177.478515625,75.66666666666667,1177.478515625,79.83333333333333L1177.478515625,84" stroke="black" stroke-dasharray="none" stroke-width="2" fill="none" marker-end="url(#arrow)"></path><path transform="rotate(0,0, 0) scale(1)" d="M2046.300502232143,34L2043.3243117559523,38.166666666666664C2040.3481212797622,42.333333333333336,2034.395740327381,50.666666666666664,2031.4195498511906,61.833333333333336C2028.443359375,73,2028.443359375,87,2028.443359375,101C2028.443359375,115,2028.443359375,129,2028.443359375,143C2028.443359375,157,2028.443359375,171,2028.443359375,185C2028.443359375,199,2028.443359375,213,2028.443359375,227C2028.443359375,241,2028.443359375,255,2028.443359375,269C2028.443359375,283,2028.443359375,297,2028.443359375,311C2028.443359375,325,2028.443359375,339,2028.443359375,353C2028.443359375,367,2028.443359375,381,2028.443359375,395C2028.443359375,409,2028.443359375,423,2028.443359375,437C2028.443359375,451,2028.443359375,465,1904.5738932291667,478.2014182977168C1780.7044270833333,491.40283659543366,1532.9654947916667,503.80567319086725,1409.0960286458333,510.0070914885841L1285.2265625,516.2085097863009" stroke="black" stroke-dasharray="none" stroke-width="2" fill="none" marker-end="url(#arrow)"></path><path transform="rotate(0,0, 0) scale(1)" d="M2054.3957403273807,34L2053.4036768353176,38.166666666666664C2052.411613343254,42.333333333333336,2050.4274863591268,50.666666666666664,2049.4354228670636,61.833333333333336C2048.443359375,73,2048.443359375,87,2048.443359375,101C2048.443359375,115,2048.443359375,129,2028.597439236111,140.16666666666666C2008.7515190972224,151.33333333333334,1969.0596788194446,159.66666666666666,1949.2137586805557,163.83333333333334L1929.3678385416667,168" stroke="black" stroke-dasharray="none" stroke-width="2" fill="none" marker-end="url(#arrow)"></path><path transform="rotate(0,0, 0) scale(1)" d="M2062.4909784226193,34L2063.4830419146824,38.166666666666664C2064.475105406746,42.333333333333336,2066.4592323908732,50.666666666666664,2067.4512958829364,61.833333333333336C2068.443359375,73,2068.443359375,87,2068.443359375,101C2068.443359375,115,2068.443359375,129,2068.443359375,143C2068.443359375,157,2068.443359375,171,2068.443359375,185C2068.443359375,199,2068.443359375,213,1993.2272135416667,225.99441121315218C1918.0110677083333,238.98882242630438,1767.5787760416667,250.9776448526087,1692.3626302083333,256.9720560657609L1617.146484375,262.96646727891306" stroke="black" stroke-dasharray="none" stroke-width="2" fill="none" marker-end="url(#arrow)"></path><path transform="rotate(0,0, 0) scale(1)" d="M2070.5862165178573,34L2073.5624069940477,38.166666666666664C2076.538597470238,42.333333333333336,2082.490978422619,50.666666666666664,2085.4671688988096,61.833333333333336C2088.443359375,73,2088.443359375,87,2088.443359375,101C2088.443359375,115,2088.443359375,129,2088.443359375,143C2088.443359375,157,2088.443359375,171,2088.443359375,185C2088.443359375,199,2088.443359375,213,2088.443359375,227C2088.443359375,241,2088.443359375,255,2088.443359375,269C2088.443359375,283,2088.443359375,297,2002.6370442708333,310.44876611598266C1916.8307291666667,323.8975322319653,1745.2180989583333,336.7950644639306,1659.4117838541667,343.24383057991326L1573.60546875,349.69259669589593" stroke="black" stroke-dasharray="none" stroke-width="2" fill="none" marker-end="url(#arrow)"></path><path transform="rotate(0,0, 0) scale(1)" d="M2078.6814546130954,34L2083.641772073413,38.166666666666664C2088.60208953373,42.333333333333336,2098.5227244543653,50.666666666666664,2103.4830419146824,61.833333333333336C2108.443359375,73,2108.443359375,87,2108.443359375,101C2108.443359375,115,2108.443359375,129,2108.443359375,143C2108.443359375,157,2108.443359375,171,2108.443359375,185C2108.443359375,199,2108.443359375,213,2108.443359375,227C2108.443359375,241,2108.443359375,255,2108.443359375,269C2108.443359375,283,2108.443359375,297,2108.443359375,311C2108.443359375,325,2108.443359375,339,2108.443359375,353C2108.443359375,367,2108.443359375,381,2108.443359375,395C2108.443359375,409,2108.443359375,423,2108.443359375,437C2108.443359375,451,2108.443359375,465,2108.443359375,479C2108.443359375,493,2108.443359375,507,2108.443359375,521C2108.443359375,535,2108.443359375,549,2001.7288411458333,562.4327193422605C1895.0143229166667,575.8654386845211,1681.5852864583333,588.7308773690421,1574.8707682291667,595.1635967113026L1468.15625,601.5963160535632" stroke="black" stroke-dasharray="none" stroke-width="2" fill="none" marker-end="url(#arrow)"></path><path transform="rotate(0,0, 0) scale(1)" d="M2086.7766927083335,34L2093.721137152778,38.166666666666664C2100.665581597222,42.333333333333336,2114.5544704861113,50.666666666666664,2121.4989149305557,61.833333333333336C2128.443359375,73,2128.443359375,87,2128.443359375,101C2128.443359375,115,2128.443359375,129,2128.443359375,143C2128.443359375,157,2128.443359375,171,2128.443359375,185C2128.443359375,199,2128.443359375,213,2128.443359375,227C2128.443359375,241,2128.443359375,255,2128.443359375,269C2128.443359375,283,2128.443359375,297,2128.443359375,311C2128.443359375,325,2128.443359375,339,2128.443359375,353C2128.443359375,367,2128.443359375,381,2128.443359375,395C2128.443359375,409,2128.443359375,423,2128.443359375,437C2128.443359375,451,2128.443359375,465,2032.8245442708333,478.42263397751657C1937.2057291666667,491.8452679550332,1745.9680989583333,504.69053591006633,1650.3492838541667,511.1131698875829L1554.73046875,517.5358038650995" stroke="black" stroke-dasharray="none" stroke-width="2" fill="none" marker-end="url(#arrow)"></path><path transform="rotate(0,0, 0) scale(1)" d="M2094.8719308035716,34L2103.800502232143,38.166666666666664C2112.729073660714,42.333333333333336,2130.5862165178573,50.666666666666664,2139.514787946429,61.833333333333336C2148.443359375,73,2148.443359375,87,2148.443359375,101C2148.443359375,115,2148.443359375,129,2148.443359375,143C2148.443359375,157,2148.443359375,171,2148.443359375,185C2148.443359375,199,2148.443359375,213,2148.443359375,227C2148.443359375,241,2148.443359375,255,2148.443359375,269C2148.443359375,283,2148.443359375,297,2148.443359375,311C2148.443359375,325,2148.443359375,339,2148.443359375,353C2148.443359375,367,2148.443359375,381,2057.4567057291665,394.36738685437757C1966.4700520833333,407.7347737087552,1784.4967447916667,420.46954741751034,1693.5100911458333,426.8369342718879L1602.5234375,433.20432112626554" stroke="black" stroke-dasharray="none" stroke-width="2" fill="none" marker-end="url(#arrow)"></path><path transform="rotate(0,0, 0) scale(1)" d="M1117.783203125,108.39890603295734L1071.2555338541667,114.16575502746446C1024.7278645833333,119.93260402197156,931.6725260416666,131.4663020109858,821.6988932291666,143.08909819499948C711.7252604166666,154.71189437901316,584.8333333333334,166.4237887580263,521.3873697916666,172.27973594753288L457.94140625,178.13568313703945" stroke="black" stroke-dasharray="none" stroke-width="2" fill="none" marker-end="url(#arrow)"></path><path transform="rotate(0,0, 0) scale(1)" d="M1117.783203125,108.86298902956688L1074.5888671875,114.55249085797239C1031.39453125,120.24199268637791,945.005859375,131.62099634318895,901.8115234375,144.31049817159447C858.6171875,157,858.6171875,171,858.6171875,185C858.6171875,199,858.6171875,213,825.4069010416666,225.55822424232989C792.1966145833334,238.1164484846598,725.7760416666666,249.23289696931963,692.5657552083334,254.7911212116495L659.35546875,260.3493454539794" stroke="black" stroke-dasharray="none" stroke-width="2" fill="none" marker-end="url(#arrow)"></path><path transform="rotate(0,0, 0) scale(1)" d="M1117.783203125,113.6201913151194L1094.6214192708333,118.51682609593284C1071.4596354166667,123.41346087674627,1025.1360677083333,133.20673043837314,1001.9742838541666,145.10336521918657C978.8125,157,978.8125,171,978.8125,185C978.8125,199,978.8125,213,978.8125,227C978.8125,241,978.8125,255,978.8125,269C978.8125,283,978.8125,297,978.8125,311C978.8125,325,978.8125,339,978.8125,353C978.8125,367,978.8125,381,978.8125,395C978.8125,409,978.8125,423,978.8125,437C978.8125,451,978.8125,465,999.7159753224206,476.1666666666667C1020.6194506448413,487.3333333333333,1062.4264012896826,495.6666666666667,1083.3298766121031,499.8333333333333L1104.2333519345239,504" stroke="black" stroke-dasharray="none" stroke-width="2" fill="none" marker-end="url(#arrow)"></path><path transform="rotate(0,0, 0) scale(1)" d="M1117.783203125,115.0329044459263L1097.9547526041667,119.69408703827192C1078.1263020833333,124.35526963061754,1038.4694010416667,133.67763481530878,1142.73046875,144.47330188650088C1246.9915364583333,155.26896895769298,1495.1705729166667,167.53793791538598,1619.2600911458333,173.67242239423248L1743.349609375,179.80690687307896" stroke="black" stroke-dasharray="none" stroke-width="2" fill="none" marker-end="url(#arrow)"></path><path transform="rotate(0,0, 0) scale(1)" d="M1117.783203125,116.80176520550981L1101.2880859375,121.16813767125818C1084.79296875,125.53451013700654,1051.802734375,134.26725506850326,1035.3076171875,145.63362753425164C1018.8125,157,1018.8125,171,1018.8125,185C1018.8125,199,1018.8125,213,1018.8125,227C1018.8125,241,1018.8125,255,1018.8125,269C1018.8125,283,1018.8125,297,1018.8125,311C1018.8125,325,1018.8125,339,1018.8125,353C1018.8125,367,1018.8125,381,962.484375,393.87868728342215C906.15625,406.75737456684436,793.5,418.5147491336886,737.171875,424.39343641711076L680.84375,430.2721237005329" stroke="black" stroke-dasharray="none" stroke-width="2" fill="none" marker-end="url(#arrow)"></path><path transform="rotate(0,0, 0) scale(1)" d="M1121.351795014881,118L1107.595245845734,122.16666666666667C1093.8386966765872,126.33333333333333,1066.3255983382935,134.66666666666666,1052.5690491691469,145.83333333333334C1038.8125,157,1038.8125,171,1038.8125,185C1038.8125,199,1038.8125,213,1038.8125,227C1038.8125,241,1038.8125,255,1038.8125,269C1038.8125,283,1038.8125,297,970.919921875,310.4638413926842C903.02734375,323.9276827853683,767.2421875,336.85536557073664,699.349609375,343.31920696342075L631.45703125,349.7830483561049" stroke="black" stroke-dasharray="none" stroke-width="2" fill="none" marker-end="url(#arrow)"></path><path transform="rotate(0,0, 0) scale(1)" d="M1129.447033110119,118L1117.6746109250992,122.16666666666667C1105.9021887400793,126.33333333333333,1082.3573443700398,134.66666666666666,1070.5849221850199,145.83333333333334C1058.8125,157,1058.8125,171,1058.8125,185C1058.8125,199,1058.8125,213,1058.8125,227C1058.8125,241,1058.8125,255,1058.8125,269C1058.8125,283,1058.8125,297,1058.8125,311C1058.8125,325,1058.8125,339,1058.8125,353C1058.8125,367,1058.8125,381,1058.8125,395C1058.8125,409,1058.8125,423,1058.8125,437C1058.8125,451,1058.8125,465,1058.8125,479C1058.8125,493,1058.8125,507,1058.8125,521C1058.8125,535,1058.8125,549,1108.21484375,561.87991631336C1157.6171875,574.7598326267199,1256.421875,586.5196652534399,1305.82421875,592.3995815667998L1355.2265625,598.2794978801599" stroke="black" stroke-dasharray="none" stroke-width="2" fill="none" marker-end="url(#arrow)"></path><path transform="rotate(0,0, 0) scale(1)" d="M1237.173828125,104.09162985833811L1362.3854166666667,110.57635821528176C1487.5970052083333,117.0610865722254,1738.0201822916667,130.0305432861127,1863.2317708333333,143.51527164305637C1988.443359375,157,1988.443359375,171,1988.443359375,185C1988.443359375,199,1988.443359375,213,1988.443359375,227C1988.443359375,241,1988.443359375,255,1988.443359375,269C1988.443359375,283,1988.443359375,297,1988.443359375,311C1988.443359375,325,1988.443359375,339,1988.443359375,353C1988.443359375,367,1988.443359375,381,1988.443359375,395C1988.443359375,409,1988.443359375,423,1988.443359375,437C1988.443359375,451,1988.443359375,465,1916.1578776041667,478.25607022260505C1843.8723958333333,491.51214044521004,1699.3014322916667,504.02428089042,1627.0159505208333,510.28035111302506L1554.73046875,516.53642133563" stroke="black" stroke-dasharray="none" stroke-width="2" fill="none" marker-end="url(#arrow)"></path><path transform="rotate(0,0, 0) scale(1)" d="M1237.173828125,104.0172192528452L1365.71875,110.51434937737099C1494.263671875,117.0114795018968,1751.353515625,130.00573975094838,1879.8984375,143.5028698754742C2008.443359375,157,2008.443359375,171,2008.443359375,185C2008.443359375,199,2008.443359375,213,2008.443359375,227C2008.443359375,241,2008.443359375,255,2008.443359375,269C2008.443359375,283,2008.443359375,297,2008.443359375,311C2008.443359375,325,2008.443359375,339,2008.443359375,353C2008.443359375,367,2008.443359375,381,1940.7900390625,394.1749186123998C1873.13671875,407.34983722479956,1737.830078125,419.6996744495991,1670.1767578125,425.8745930619989L1602.5234375,432.0495116743987" stroke="black" stroke-dasharray="none" stroke-width="2" fill="none" marker-end="url(#arrow)"></path><path transform="rotate(0,0, 0) scale(1)" d="M1189.51953125,538L1189.51953125,542.1666666666666C1189.51953125,546.3333333333334,1189.51953125,554.6666666666666,1217.1373697916667,564.0542876901799C1244.7552083333333,573.4419087136929,1299.9908854166667,583.8838174273859,1327.6087239583333,589.1047717842324L1355.2265625,594.3257261410788" stroke="black" stroke-dasharray="none" stroke-width="2" fill="none" marker-end="url(#arrow)"></path><path transform="rotate(0,0, 0) scale(1)" d="M1743.349609375,194.30549696809913L1681.8365885416667,199.75458080674926C1620.3235677083333,205.2036646453994,1497.2975260416667,216.1018323226997,1316.6318359375,228.07894793706507C1135.9661458333333,240.0560635514304,897.6608072916666,253.11212710286088,778.5081380208334,259.6401588785761L659.35546875,266.1681906542913" stroke="black" stroke-dasharray="none" stroke-width="2" fill="none" marker-end="url(#arrow)"></path><path transform="rotate(0,0, 0) scale(1)" d="M1844.348865327381,202L1843.3568018353174,206.16666666666666C1842.3647383432537,210.33333333333334,1840.380611359127,218.66666666666666,1839.3885478670636,229.83333333333334C1838.396484375,241,1838.396484375,255,1838.396484375,269C1838.396484375,283,1838.396484375,297,1838.396484375,311C1838.396484375,325,1838.396484375,339,1838.396484375,353C1838.396484375,367,1838.396484375,381,1838.396484375,395C1838.396484375,409,1838.396484375,423,1838.396484375,437C1838.396484375,451,1838.396484375,465,1746.2014973958333,477.9675250206938C1654.0065104166667,490.9350500413877,1469.6165364583333,502.87010008277525,1377.4215494791667,508.83762510346907L1285.2265625,514.8051501241629" stroke="black" stroke-dasharray="none" stroke-width="2" fill="none" marker-end="url(#arrow)"></path><path transform="rotate(0,0, 0) scale(1)" d="M1868.644066220238,202L1873.606708829365,206.16666666666666C1878.569351438492,210.33333333333334,1888.4946366567463,218.66666666666666,1846.578373015873,228.34880052232083C1804.662109375,238.03093437797497,1710.904296875,249.06186875594997,1664.025390625,254.57733594493746L1617.146484375,260.092803133925" stroke="black" stroke-dasharray="none" stroke-width="2" fill="none" marker-end="url(#arrow)"></path><path transform="rotate(0,0, 0) scale(1)" d="M1876.7393043154761,202L1883.6860739087304,206.16666666666666C1890.632843501984,210.33333333333334,1904.526382688492,218.66666666666666,1911.4731522817463,229.83333333333334C1918.419921875,241,1918.419921875,255,1918.419921875,269C1918.419921875,283,1918.419921875,297,1918.419921875,311C1918.419921875,325,1918.419921875,339,1918.419921875,353C1918.419921875,367,1918.419921875,381,1865.7705078125,393.974243967305C1813.12109375,406.94848793461,1707.822265625,418.89697586921994,1655.1728515625,424.8712198365249L1602.5234375,430.8454638038299" stroke="black" stroke-dasharray="none" stroke-width="2" fill="none" marker-end="url(#arrow)"></path><path transform="rotate(0,0, 0) scale(1)" d="M1465.732421875,277.3363835136644L1414.7796223958333,282.94698626138694C1363.8268229166667,288.55758900910956,1261.9212239583333,299.7787945045548,1210.9684244791667,312.3893972522774C1160.015625,325,1160.015625,339,1160.015625,353C1160.015625,367,1160.015625,381,1160.015625,395C1160.015625,409,1160.015625,423,1160.015625,437C1160.015625,451,1160.015625,465,1208.6100260416667,477.94789627066166C1257.2044270833333,490.89579254132326,1354.3932291666667,502.79158508264646,1402.9876302083333,508.7394813533081L1451.58203125,514.6873776239697" stroke="black" stroke-dasharray="none" stroke-width="2" fill="none" marker-end="url(#arrow)"></path><path transform="rotate(0,0, 0) scale(1)" d="M1617.146484375,282.7290459685784L1643.1292317708333,287.44087164048204C1669.1119791666667,292.1526973123856,1721.0774739583333,301.5763486561928,1747.0602213541667,313.28817432809643C1773.04296875,325,1773.04296875,339,1773.04296875,353C1773.04296875,367,1773.04296875,381,1744.623046875,393.31076853557647C1716.203125,405.62153707115294,1659.36328125,416.24307414230594,1630.943359375,421.5538426778824L1602.5234375,426.86461121345894" stroke="black" stroke-dasharray="none" stroke-width="2" fill="none" marker-end="url(#arrow)"></path><path transform="rotate(0,0, 0) scale(1)" d="M616.37890625,454L616.37890625,458.1666666666667C616.37890625,462.3333333333333,616.37890625,470.6666666666667,638.7897135416666,479.29532618558227C661.2005208333334,487.9239857044979,706.0221354166666,496.8479714089958,728.4329427083334,501.3099642612447L750.84375,505.77195711349367" stroke="black" stroke-dasharray="none" stroke-width="2" fill="none" marker-end="url(#arrow)"></path><path transform="rotate(0,0, 0) scale(1)" d="M563.87890625,361.8280319782276L542.7180989583334,367.35669331518966C521.5572916666666,372.88535465215176,479.2356770833333,383.94267732607585,458.0748697916667,396.4713386630379C436.9140625,409,436.9140625,423,436.9140625,437C436.9140625,451,436.9140625,465,546.3971354166666,478.1098267996076C655.8802083333334,491.21965359921523,874.8463541666666,503.43930719843047,984.3294270833334,509.5491339980381L1093.8125,515.6589607976457" stroke="black" stroke-dasharray="none" stroke-width="2" fill="none" marker-end="url(#arrow)"></path><path transform="rotate(0,0, 0) scale(1)" d="M563.87890625,363.0824244442594L546.0514322916666,368.4020203702162C528.2239583333334,373.72161629617295,492.5690104166667,384.3608081480865,490.5748697916667,393.85060224664204C488.5807291666667,403.3403963451976,520.2473958333334,411.6807926903951,536.0807291666666,415.8509908629939L551.9140625,420.02118903559267" stroke="black" stroke-dasharray="none" stroke-width="2" fill="none" marker-end="url(#arrow)"></path><path transform="rotate(0,0, 0) scale(1)" d="M563.87890625,364.75233720441236L549.384765625,369.7936143370103C534.890625,374.83489146960824,505.90234375,384.9174457348042,491.408203125,396.95872286740206C476.9140625,409,476.9140625,423,476.9140625,437C476.9140625,451,476.9140625,465,639.3587239583334,478.6482121514323C801.8033854166666,492.29642430286464,1126.6927083333333,505.59284860572933,1289.1373697916667,512.2410607571616L1451.58203125,518.889272908594" stroke="black" stroke-dasharray="none" stroke-width="2" fill="none" marker-end="url(#arrow)"></path><path transform="rotate(0,0, 0) scale(1)" d="M563.87890625,367.0852169193192L552.7180989583334,371.73768076609934C541.5572916666666,376.3901446128795,519.2356770833334,385.6950723064397,674.263671875,396.9864191594134C829.2916666666666,408.2777660123871,1161.6692708333333,421.5555320247742,1327.8580729166667,428.1944150309678L1494.046875,434.8332980371613" stroke="black" stroke-dasharray="none" stroke-width="2" fill="none" marker-end="url(#arrow)"></path><path transform="rotate(0,0, 0) scale(1)" d="M564.9818638392857,370L556.9705636160714,374.1666666666667C548.9592633928571,378.3333333333333,532.9366629464286,386.6666666666667,524.9253627232143,397.8333333333333C516.9140625,409,516.9140625,423,516.9140625,437C516.9140625,451,516.9140625,465,516.9140625,479C516.9140625,493,516.9140625,507,516.9140625,521C516.9140625,535,516.9140625,549,516.9140625,563C516.9140625,577,516.9140625,591,516.9140625,605C516.9140625,619,516.9140625,633,617.0830078125,646.3815447604884C717.251953125,659.7630895209767,917.58984375,672.5261790419535,1017.7587890625,678.9077238024419L1117.927734375,685.2892685629301" stroke="black" stroke-dasharray="none" stroke-width="2" fill="none" marker-end="url(#arrow)"></path><path transform="rotate(0,0, 0) scale(1)" d="M631.45703125,365.00872640729847L645.521484375,370.0072720060821C659.5859375,375.0058176048656,687.71484375,385.00290880243284,701.779296875,397.00145440121645C715.84375,409,715.84375,423,715.84375,437C715.84375,451,715.84375,465,715.84375,479C715.84375,493,715.84375,507,715.84375,521C715.84375,535,715.84375,549,715.84375,563C715.84375,577,715.84375,591,715.84375,605C715.84375,619,715.84375,633,818.8196614583334,646.4265432277912C921.7955729166666,659.8530864555823,1127.7473958333333,672.7061729111646,1230.7233072916667,679.1327161389557L1333.69921875,685.5592593667469" stroke="black" stroke-dasharray="none" stroke-width="2" fill="none" marker-end="url(#arrow)"></path><path transform="rotate(0,0, 0) scale(1)" d="M631.45703125,357.159939541754L682.6829427083334,363.466616284795C733.9088541666666,369.773293027836,836.3606770833334,382.38664651391804,887.5865885416666,395.69332325695905C938.8125,409,938.8125,423,938.8125,437C938.8125,451,938.8125,465,938.8125,479C938.8125,493,938.8125,507,938.8125,521C938.8125,535,938.8125,549,938.8125,563C938.8125,577,938.8125,591,938.8125,605C938.8125,619,938.8125,633,1031.337890625,646.1938598894257C1123.86328125,659.3877197788514,1308.9140625,671.7754395577028,1401.439453125,677.9692994471285L1493.96484375,684.1631593365543" stroke="black" stroke-dasharray="none" stroke-width="2" fill="none" marker-end="url(#arrow)"></path><path transform="rotate(0,0, 0) scale(1)" d="M631.45703125,356.9295642110045L686.0162760416666,363.27463684250375C740.5755208333334,369.619709474003,849.6940104166666,382.30985473700156,904.2532552083334,395.65492736850075C958.8125,409,958.8125,423,958.8125,437C958.8125,451,958.8125,465,945.7684151785714,476.1666666666667C932.7243303571428,487.3333333333333,906.6361607142857,495.6666666666667,893.592075892857,499.8333333333333L880.5479910714286,504" stroke="black" stroke-dasharray="none" stroke-width="2" fill="none" marker-end="url(#arrow)"></path><path transform="rotate(0,0, 0) scale(1)" d="M1494.046875,453.67724776938917L1480.3209635416667,457.89770647449103C1466.5950520833333,462.1181651795928,1439.1432291666667,470.5590825897964,1403.3764570932537,478.9462079615649C1367.6096850198412,487.3333333333333,1323.5279637896826,495.6666666666667,1301.4871031746031,499.8333333333333L1279.4462425595239,504" stroke="black" stroke-dasharray="none" stroke-width="2" fill="none" marker-end="url(#arrow)"></path><path transform="rotate(0,0, 0) scale(1)" d="M1530.0186941964287,454L1525.5416201636906,458.1666666666667C1521.0645461309523,462.3333333333333,1512.1103980654761,470.6666666666667,1507.6333240327378,479C1503.15625,487.3333333333333,1503.15625,495.6666666666667,1503.15625,499.8333333333333L1503.15625,504" stroke="black" stroke-dasharray="none" stroke-width="2" fill="none" marker-end="url(#arrow)"></path><path transform="rotate(0,0, 0) scale(1)" d="M1565.0606398809523,454L1569.1722780257935,458.1666666666667C1573.283916170635,462.3333333333333,1581.5071924603174,470.6666666666667,1585.6188306051588,481.8333333333333C1589.73046875,493,1589.73046875,507,1589.73046875,521C1589.73046875,535,1589.73046875,549,1589.73046875,563C1589.73046875,577,1589.73046875,591,1589.73046875,605C1589.73046875,619,1589.73046875,633,1565.4361979166667,645.0789811394128C1541.1419270833333,657.1579622788255,1492.5533854166667,667.3159245576511,1468.2591145833333,672.3949056970639L1443.96484375,677.4738868364767" stroke="black" stroke-dasharray="none" stroke-width="2" fill="none" marker-end="url(#arrow)"></path><path transform="rotate(0,0, 0) scale(1)" d="M1573.1558779761904,454L1579.2516431051588,458.1666666666667C1585.347408234127,462.3333333333333,1597.5389384920636,470.6666666666667,1603.6347036210318,481.8333333333333C1609.73046875,493,1609.73046875,507,1609.73046875,521C1609.73046875,535,1609.73046875,549,1609.73046875,563C1609.73046875,577,1609.73046875,591,1609.73046875,605C1609.73046875,619,1609.73046875,633,1605.413829985119,644.1666666666666C1601.0971912202378,655.3333333333334,1592.4639136904761,663.6666666666666,1588.1472749255952,667.8333333333334L1583.8306361607142,672" stroke="black" stroke-dasharray="none" stroke-width="2" fill="none" marker-end="url(#arrow)"></path><path transform="rotate(0,0, 0) scale(1)" d="M1485.58984375,358.5996686390533L1437.9114583333333,364.6663905325444C1390.2330729166667,370.7331124260356,1294.8763020833333,382.86655621301776,1160.751953125,395.15944433999675C1026.6276041666667,407.45233246697563,853.7356770833334,419.9046649339514,767.2897135416666,426.1308311674392L680.84375,432.35699740092707" stroke="black" stroke-dasharray="none" stroke-width="2" fill="none" marker-end="url(#arrow)"></path><path transform="rotate(0,0, 0) scale(1)" d="M1485.58984375,361.8280005223978L1458.029296875,367.3566671019982C1430.46875,372.8853336815985,1375.34765625,383.9426668407993,1347.787109375,396.4713334203996C1320.2265625,409,1320.2265625,423,1320.2265625,437C1320.2265625,451,1320.2265625,465,1320.2265625,479C1320.2265625,493,1320.2265625,507,1320.2265625,521C1320.2265625,535,1320.2265625,549,1320.2265625,563C1320.2265625,577,1320.2265625,591,1320.2265625,605C1320.2265625,619,1320.2265625,633,1305.9254557291667,644.1696291776829C1291.6243489583333,655.3392583553658,1263.0221354166667,663.6785167107315,1248.7210286458333,667.8481458884144L1234.419921875,672.0177750660972" stroke="black" stroke-dasharray="none" stroke-width="2" fill="none" marker-end="url(#arrow)"></path><path transform="rotate(0,0, 0) scale(1)" d="M1573.60546875,367.60046901999505L1587.3697916666667,372.1670575166625C1601.1341145833333,376.73364601333,1628.6627604166667,385.866823006665,1642.4270833333333,397.43341150333254C1656.19140625,409,1656.19140625,423,1656.19140625,437C1656.19140625,451,1656.19140625,465,1656.19140625,479C1656.19140625,493,1656.19140625,507,1656.19140625,521C1656.19140625,535,1656.19140625,549,1656.19140625,563C1656.19140625,577,1656.19140625,591,1656.19140625,605C1656.19140625,619,1656.19140625,633,1620.8203125,645.5565133539828C1585.44921875,658.1130267079657,1514.70703125,669.2260534159312,1479.3359375,674.7825667699141L1443.96484375,680.3390801238969" stroke="black" stroke-dasharray="none" stroke-width="2" fill="none" marker-end="url(#arrow)"></path><path transform="rotate(0,0, 0) scale(1)" d="M1573.60546875,361.2719485332681L1603.51171875,366.89329044439006C1633.41796875,372.51463235551205,1693.23046875,383.7573161777561,1723.13671875,396.378658088878C1753.04296875,409,1753.04296875,423,1753.04296875,437C1753.04296875,451,1753.04296875,465,1753.04296875,479C1753.04296875,493,1753.04296875,507,1753.04296875,521C1753.04296875,535,1753.04296875,549,1753.04296875,563C1753.04296875,577,1753.04296875,591,1753.04296875,605C1753.04296875,619,1753.04296875,633,1733.9479166666667,644.2927635017877C1714.8528645833333,655.5855270035754,1676.6627604166667,664.1710540071507,1657.5677083333333,668.4638175089384L1638.47265625,672.7565810107261" stroke="black" stroke-dasharray="none" stroke-width="2" fill="none" marker-end="url(#arrow)"></path><path transform="rotate(0,0, 0) scale(1)" d="M1393.1806640625,622L1388.6437174479167,626.1666666666666C1384.1067708333333,630.3333333333334,1375.0328776041667,638.6666666666666,1348.57275390625,647.684995368941C1322.1126302083333,656.7033240712154,1278.2662760416667,666.4066481424308,1256.3430989583333,671.2583101780384L1234.419921875,676.1099722136462" stroke="black" stroke-dasharray="none" stroke-width="2" fill="none" marker-end="url(#arrow)"></path><path transform="rotate(0,0, 0) scale(1)" d="M1411.69140625,622L1411.69140625,626.1666666666666C1411.69140625,630.3333333333334,1411.69140625,638.6666666666666,1409.423611111111,647C1407.1558159722224,655.3333333333334,1402.6202256944446,663.6666666666666,1400.3524305555557,667.8333333333334L1398.0846354166667,672" stroke="black" stroke-dasharray="none" stroke-width="2" fill="none" marker-end="url(#arrow)"></path><path transform="rotate(0,0, 0) scale(1)" d="M1430.2021484375,622L1434.7390950520833,626.1666666666666C1439.2760416666667,630.3333333333334,1448.3499348958333,638.6666666666666,1463.6800285218253,647C1479.0101221478174,655.3333333333334,1500.596416170635,663.6666666666666,1511.3895631820435,667.8333333333334L1522.1827101934523,672" stroke="black" stroke-dasharray="none" stroke-width="2" fill="none" marker-end="url(#arrow)"></path><path transform="rotate(0,0, 0) scale(1)" d="M1503.15625,538L1503.15625,542.1666666666666C1503.15625,546.3333333333334,1503.15625,554.6666666666666,1503.15625,565.8333333333334C1503.15625,577,1503.15625,591,1503.15625,605C1503.15625,619,1503.15625,633,1458.3668619791667,645.7530746946212C1413.5774739583333,658.5061493892423,1323.9986979166667,670.0122987784846,1279.2093098958333,675.7653734731058L1234.419921875,681.5184481677269" stroke="black" stroke-dasharray="none" stroke-width="2" fill="none" marker-end="url(#arrow)"></path><g transform="translate(555.98046875, 252)"><rect width="103.375" height="34" stroke="black" fill="white" stroke-width="2" transform="translate(0, 0)" rx="3"></rect><g transform="translate(8, 8)"><g transform="translate(0, 0)"><rect width="87.375" height="18" stroke="none" fill="white" stroke-width="0" transform="translate(0, 0)" rx="3"></rect><text fill="black" font-size="16" font-weight="normal" transform="translate(0, 0)" alignment-baseline="middle" font-family="Arial"><tspan x="0" dy="16" font-family="Arial" font-size="16" font-weight="normal">@intlayer/cli</tspan></text></g></g></g><g transform="translate(309.19921875, 168)"><rect width="148.7421875" height="34" stroke="black" fill="white" stroke-width="2" transform="translate(0, 0)" rx="3"></rect><g transform="translate(8, 8)"><g transform="translate(0, 0)"><rect width="132.7421875" height="18" stroke="none" fill="white" stroke-width="0" transform="translate(0, 0)" rx="3"></rect><text fill="black" font-size="16" font-weight="normal" transform="translate(0, 0)" alignment-baseline="middle" font-family="Arial"><tspan x="0" dy="16" font-family="Arial" font-size="16" font-weight="normal">@intlayer/chokidar</tspan></text></g></g></g><g transform="translate(189.81640625, 84)"><rect width="148.7578125" height="34" stroke="black" fill="white" stroke-width="2" transform="translate(0, 0)" rx="3"></rect><g transform="translate(8, 8)"><g transform="translate(0, 0)"><rect width="132.7578125" height="18" stroke="none" fill="white" stroke-width="0" transform="translate(0, 0)" rx="3"></rect><text fill="black" font-size="16" font-weight="normal" transform="translate(0, 0)" alignment-baseline="middle" font-family="Arial"><tspan x="0" dy="16" font-family="Arial" font-size="16" font-weight="normal">@intlayer/backend</tspan></text></g></g></g><g transform="translate(1093.8125, 504)"><rect width="191.4140625" height="34" stroke="black" fill="white" stroke-width="2" transform="translate(0, 0)" rx="3"></rect><g transform="translate(8, 8)"><g transform="translate(0, 0)"><rect width="175.4140625" height="18" stroke="none" fill="white" stroke-width="0" transform="translate(0, 0)" rx="3"></rect><text fill="black" font-size="16" font-weight="normal" transform="translate(0, 0)" alignment-baseline="middle" font-family="Arial"><tspan x="0" dy="16" font-family="Arial" font-size="16" font-weight="normal">@intlayer/design-system</tspan></text></g></g></g><g transform="translate(1465.732421875, 252)"><rect width="151.4140625" height="34" stroke="black" fill="white" stroke-width="2" transform="translate(0, 0)" rx="3"></rect><g transform="translate(8, 8)"><g transform="translate(0, 0)"><rect width="135.4140625" height="18" stroke="none" fill="white" stroke-width="0" transform="translate(0, 0)" rx="3"></rect><text fill="black" font-size="16" font-weight="normal" transform="translate(0, 0)" alignment-baseline="middle" font-family="Arial"><tspan x="0" dy="16" font-family="Arial" font-size="16" font-weight="normal">@intlayer/webpack</tspan></text></g></g></g><g transform="translate(551.9140625, 420)"><rect width="128.9296875" height="34" stroke="black" fill="white" stroke-width="2" transform="translate(0, 0)" rx="3"></rect><g transform="translate(8, 8)"><g transform="translate(0, 0)"><rect width="112.9296875" height="18" stroke="none" fill="white" stroke-width="0" transform="translate(0, 0)" rx="3"></rect><text fill="black" font-size="16" font-weight="normal" transform="translate(0, 0)" alignment-baseline="middle" font-family="Arial"><tspan x="0" dy="16" font-family="Arial" font-size="16" font-weight="normal">express-intlayer</tspan></text></g></g></g><g transform="translate(1494.046875, 420)"><rect width="108.4765625" height="34" stroke="black" fill="white" stroke-width="2" transform="translate(0, 0)" rx="3"></rect><g transform="translate(8, 8)"><g transform="translate(0, 0)"><rect width="92.4765625" height="18" stroke="none" fill="white" stroke-width="0" transform="translate(0, 0)" rx="3"></rect><text fill="black" font-size="16" font-weight="normal" transform="translate(0, 0)" alignment-baseline="middle" font-family="Arial"><tspan x="0" dy="16" font-family="Arial" font-size="16" font-weight="normal">react-intlayer</tspan></text></g></g></g><g transform="translate(563.87890625, 336)"><rect width="67.578125" height="34" stroke="black" fill="white" stroke-width="2" transform="translate(0, 0)" rx="3"></rect><g transform="translate(8, 8)"><g transform="translate(0, 0)"><rect width="51.578125" height="18" stroke="none" fill="white" stroke-width="0" transform="translate(0, 0)" rx="3"></rect><text fill="black" font-size="16" font-weight="normal" transform="translate(0, 0)" alignment-baseline="middle" font-family="Arial"><tspan x="0" dy="16" font-family="Arial" font-size="16" font-weight="normal">inltayer</tspan></text></g></g></g><g transform="translate(1485.58984375, 336)"><rect width="88.015625" height="34" stroke="black" fill="white" stroke-width="2" transform="translate(0, 0)" rx="3"></rect><g transform="translate(8, 8)"><g transform="translate(0, 0)"><rect width="72.015625" height="18" stroke="none" fill="white" stroke-width="0" transform="translate(0, 0)" rx="3"></rect><text fill="black" font-size="16" font-weight="normal" transform="translate(0, 0)" alignment-baseline="middle" font-family="Arial"><tspan x="0" dy="16" font-family="Arial" font-size="16" font-weight="normal">intlayer-cli</tspan></text></g></g></g><g transform="translate(1992.962890625, 0)"><rect width="130.9609375" height="34" stroke="black" fill="white" stroke-width="2" transform="translate(0, 0)" rx="3"></rect><g transform="translate(8, 8)"><g transform="translate(0, 0)"><rect width="114.9609375" height="18" stroke="none" fill="white" stroke-width="0" transform="translate(0, 0)" rx="3"></rect><text fill="black" font-size="16" font-weight="normal" transform="translate(0, 0)" alignment-baseline="middle" font-family="Arial"><tspan x="0" dy="16" font-family="Arial" font-size="16" font-weight="normal">@intlayer/config</tspan></text></g></g></g><g transform="translate(1117.783203125, 84)"><rect width="119.390625" height="34" stroke="black" fill="white" stroke-width="2" transform="translate(0, 0)" rx="3"></rect><g transform="translate(8, 8)"><g transform="translate(0, 0)"><rect width="103.390625" height="18" stroke="none" fill="white" stroke-width="0" transform="translate(0, 0)" rx="3"></rect><text fill="black" font-size="16" font-weight="normal" transform="translate(0, 0)" alignment-baseline="middle" font-family="Arial"><tspan x="0" dy="16" font-family="Arial" font-size="16" font-weight="normal">@intlayer/core</tspan></text></g></g></g><g transform="translate(1743.349609375, 168)"><rect width="210.09375" height="34" stroke="black" fill="white" stroke-width="2" transform="translate(0, 0)" rx="3"></rect><g transform="translate(8, 8)"><g transform="translate(0, 0)"><rect width="194.09375" height="18" stroke="none" fill="white" stroke-width="0" transform="translate(0, 0)" rx="3"></rect><text fill="black" font-size="16" font-weight="normal" transform="translate(0, 0)" alignment-baseline="middle" font-family="Arial"><tspan x="0" dy="16" font-family="Arial" font-size="16" font-weight="normal">@intlayer/dictionaries-entry</tspan></text></g></g></g><g transform="translate(1355.2265625, 588)"><rect width="112.9296875" height="34" stroke="black" fill="white" stroke-width="2" transform="translate(0, 0)" rx="3"></rect><g transform="translate(8, 8)"><g transform="translate(0, 0)"><rect width="96.9296875" height="18" stroke="none" fill="white" stroke-width="0" transform="translate(0, 0)" rx="3"></rect><text fill="black" font-size="16" font-weight="normal" transform="translate(0, 0)" alignment-baseline="middle" font-family="Arial"><tspan x="0" dy="16" font-family="Arial" font-size="16" font-weight="normal">intlayer-editor</tspan></text></g></g></g><g transform="translate(1451.58203125, 504)"><rect width="103.1484375" height="34" stroke="black" fill="white" stroke-width="2" transform="translate(0, 0)" rx="3"></rect><g transform="translate(8, 8)"><g transform="translate(0, 0)"><rect width="87.1484375" height="18" stroke="none" fill="white" stroke-width="0" transform="translate(0, 0)" rx="3"></rect><text fill="black" font-size="16" font-weight="normal" transform="translate(0, 0)" alignment-baseline="middle" font-family="Arial"><tspan x="0" dy="16" font-family="Arial" font-size="16" font-weight="normal">next-intlayer</tspan></text></g></g></g><g transform="translate(750.84375, 504)"><rect width="152.96875" height="34" stroke="black" fill="white" stroke-width="2" transform="translate(0, 0)" rx="3"></rect><g transform="translate(8, 8)"><g transform="translate(0, 0)"><rect width="136.96875" height="18" stroke="none" fill="white" stroke-width="0" transform="translate(0, 0)" rx="3"></rect><text fill="black" font-size="16" font-weight="normal" transform="translate(0, 0)" alignment-baseline="middle" font-family="Arial"><tspan x="0" dy="16" font-family="Arial" font-size="16" font-weight="normal">express&nbsp;application</tspan></text></g></g></g><g transform="translate(1117.927734375, 672)"><rect width="116.4921875" height="34" stroke="black" fill="white" stroke-width="2" transform="translate(0, 0)" rx="3"></rect><g transform="translate(8, 8)"><g transform="translate(0, 0)"><rect width="100.4921875" height="18" stroke="none" fill="white" stroke-width="0" transform="translate(0, 0)" rx="3"></rect><text fill="black" font-size="16" font-weight="normal" transform="translate(0, 0)" alignment-baseline="middle" font-family="Arial"><tspan x="0" dy="16" font-family="Arial" font-size="16" font-weight="normal">nextjs&nbsp;website</tspan></text></g></g></g><g transform="translate(1333.69921875, 672)"><rect width="110.265625" height="34" stroke="black" fill="white" stroke-width="2" transform="translate(0, 0)" rx="3"></rect><g transform="translate(8, 8)"><g transform="translate(0, 0)"><rect width="94.265625" height="18" stroke="none" fill="white" stroke-width="0" transform="translate(0, 0)" rx="3"></rect><text fill="black" font-size="16" font-weight="normal" transform="translate(0, 0)" alignment-baseline="middle" font-family="Arial"><tspan x="0" dy="16" font-family="Arial" font-size="16" font-weight="normal">react&nbsp;website</tspan></text></g></g></g><g transform="translate(1493.96484375, 672)"><rect width="144.5078125" height="34" stroke="black" fill="white" stroke-width="2" transform="translate(0, 0)" rx="3"></rect><g transform="translate(8, 8)"><g transform="translate(0, 0)"><rect width="128.5078125" height="18" stroke="none" fill="white" stroke-width="0" transform="translate(0, 0)" rx="3"></rect><text fill="black" font-size="16" font-weight="normal" transform="translate(0, 0)" alignment-baseline="middle" font-family="Arial"><tspan x="0" dy="16" font-family="Arial" font-size="16" font-weight="normal">vite+react&nbsp;website</tspan></text></g></g></g></svg>